<svg width="104" height="104" viewBox="0 0 104 104" fill="none" xmlns="http://www.w3.org/2000/svg">
<path d="M11.4921 24.205C11.4921 20.8333 12.8315 17.5998 15.2156 15.2156C17.5998 12.8315 20.8333 11.4921 24.205 11.4921H29.9836C33.3404 11.4902 36.5601 10.1607 38.9404 7.79382L42.9854 3.74881C44.1668 2.56074 45.5714 1.61791 47.1185 0.974556C48.6655 0.331199 50.3245 0 52 0C53.6755 0 55.3344 0.331199 56.8815 0.974556C58.4286 1.61791 59.8332 2.56074 61.0146 3.74881L65.0596 7.79382C67.4399 10.1607 70.6596 11.4902 74.0164 11.4921H79.795C83.1667 11.4921 86.4002 12.8315 88.7844 15.2156C91.1685 17.5998 92.5079 20.8333 92.5079 24.205V29.9836C92.5098 33.3404 93.8393 36.5601 96.2062 38.9404L100.251 42.9854C101.439 44.1668 102.382 45.5714 103.025 47.1185C103.669 48.6655 104 50.3245 104 52C104 53.6755 103.669 55.3344 103.025 56.8815C102.382 58.4286 101.439 59.8332 100.251 61.0146L96.2062 65.0596C93.8393 67.4399 92.5098 70.6596 92.5079 74.0164V79.795C92.5079 83.1667 91.1685 86.4002 88.7844 88.7844C86.4002 91.1685 83.1667 92.5079 79.795 92.5079H74.0164C70.6596 92.5098 67.4399 93.8393 65.0596 96.2062L61.0146 100.251C59.8332 101.439 58.4286 102.382 56.8815 103.025C55.3344 103.669 53.6755 104 52 104C50.3245 104 48.6655 103.669 47.1185 103.025C45.5714 102.382 44.1668 101.439 42.9854 100.251L38.9404 96.2062C36.5601 93.8393 33.3404 92.5098 29.9836 92.5079H24.205C20.8333 92.5079 17.5998 91.1685 15.2156 88.7844C12.8315 86.4002 11.4921 83.1667 11.4921 79.795V74.0164C11.4902 70.6596 10.1607 67.4399 7.79382 65.0596L3.74881 61.0146C2.56074 59.8332 1.61791 58.4286 0.974556 56.8815C0.331199 55.3344 0 53.6755 0 52C0 50.3245 0.331199 48.6655 0.974556 47.1185C1.61791 45.5714 2.56074 44.1668 3.74881 42.9854L7.79382 38.9404C10.1607 36.5601 11.4902 33.3404 11.4921 29.9836V24.205Z" fill="white"/>
<path d="M16.1661 27.4121C16.1661 24.4295 17.3509 21.569 19.46 19.46C21.569 17.3509 24.4295 16.1661 27.4121 16.1661H32.5239C35.4934 16.1644 38.3417 14.9883 40.4473 12.8945L44.0255 9.31626C45.0706 8.26527 46.3132 7.43123 47.6817 6.86211C49.0503 6.29298 50.5178 6 52 6C53.4822 6 54.9497 6.29298 56.3182 6.86211C57.6868 7.43123 58.9293 8.26527 59.9744 9.31626L63.5527 12.8945C65.6583 14.9883 68.5066 16.1644 71.4761 16.1661H76.5879C79.5705 16.1661 82.431 17.3509 84.54 19.46C86.649 21.569 87.8339 24.4295 87.8339 27.4121V32.5239C87.8356 35.4934 89.0116 38.3417 91.1055 40.4473L94.6837 44.0255C95.7347 45.0706 96.5688 46.3132 97.1379 47.6817C97.707 49.0503 98 50.5178 98 52C98 53.4822 97.707 54.9497 97.1379 56.3182C96.5688 57.6868 95.7347 58.9293 94.6837 59.9744L91.1055 63.5527C89.0116 65.6583 87.8356 68.5066 87.8339 71.4761V76.5879C87.8339 79.5705 86.649 82.431 84.54 84.54C82.431 86.649 79.5705 87.8339 76.5879 87.8339H71.4761C68.5066 87.8356 65.6583 89.0116 63.5527 91.1055L59.9744 94.6837C58.9293 95.7347 57.6868 96.5688 56.3182 97.1379C54.9497 97.707 53.4822 98 52 98C50.5178 98 49.0503 97.707 47.6817 97.1379C46.3132 96.5688 45.0706 95.7347 44.0255 94.6837L40.4473 91.1055C38.3417 89.0116 35.4934 87.8356 32.5239 87.8339H27.4121C24.4295 87.8339 21.569 86.649 19.46 84.54C17.3509 82.431 16.1661 79.5705 16.1661 76.5879V71.4761C16.1644 68.5066 14.9883 65.6583 12.8945 63.5527L9.31626 59.9744C8.26527 58.9293 7.43123 57.6868 6.86211 56.3182C6.29298 54.9497 6 53.4822 6 52C6 50.5178 6.29298 49.0503 6.86211 47.6817C7.43123 46.3132 8.26527 45.0706 9.31626 44.0255L12.8945 40.4473C14.9883 38.3417 16.1644 35.4934 16.1661 32.5239V27.4121Z" fill="#EB653C"/>
<path d="M30.0653 49.5206V44.8229C34.9297 41.0839 40.0226 37.0892 40.0226 33.4461C40.0226 32.1039 39.4023 31.273 38.1617 31.273C36.9538 31.273 36.1376 32.2636 36.2029 34.3409H30C30.1959 28.3968 34.1462 26 38.5535 26C44.234 26 46.4867 29.1638 46.4867 32.9987C46.4867 37.8562 42.3732 41.8509 38.5535 44.4394H46.7152V49.5206H30.0653Z" fill="white"/>
<path d="M48.8482 37.8242C48.8482 30.9214 51.46 26 58.3158 26C65.1717 26 67.8161 30.9214 67.8161 37.8242C67.8161 44.8229 65.1717 49.7124 58.3158 49.7124C51.46 49.7124 48.8482 44.8229 48.8482 37.8242ZM61.4826 37.8242C61.4826 34.5965 61.1561 31.9121 58.3158 31.9121C55.4755 31.9121 55.1491 34.5965 55.1491 37.8242C55.1491 41.1478 55.4755 43.8003 58.3158 43.8003C61.1561 43.8003 61.4826 41.1478 61.4826 37.8242Z" fill="white"/>
<path d="M69.3742 41.2117C69.3742 39.2623 70.6474 38.3196 72.3287 38.3196C73.9937 38.3196 75.2506 39.2623 75.2506 41.2117C75.2506 43.1451 73.9937 44.0879 72.3287 44.0879C70.6474 44.0879 69.3742 43.1451 69.3742 41.2117ZM72.2961 40.3808C71.937 40.3808 71.7411 40.6525 71.7411 41.2117C71.7411 41.755 71.937 42.0266 72.2961 42.0266C72.6715 42.0266 72.9001 41.755 72.9001 41.2117C72.9001 40.6525 72.6715 40.3808 72.2961 40.3808ZM71.9206 49.8402L78.0093 38.4794H81.4699L75.3812 49.8402H71.9206ZM78.1399 47.1079C78.1399 45.1585 79.4131 44.2157 81.0781 44.2157C82.7594 44.2157 84 45.1585 84 47.1079C84 49.0573 82.7594 50 81.0781 50C79.4131 50 78.1399 49.0573 78.1399 47.1079ZM81.0618 46.277C80.6863 46.277 80.4905 46.5646 80.4905 47.1079C80.4905 47.6671 80.6863 47.9387 81.0618 47.9387C81.4209 47.9387 81.6494 47.6671 81.6494 47.1079C81.6494 46.5646 81.4209 46.277 81.0618 46.277Z" fill="white"/>
<path d="M47.9274 67C47.9274 72.2837 44.009 76 38.9637 76C33.944 76 30 72.2837 30 67C30 61.7163 33.944 58 38.9637 58C44.009 58 47.9274 61.7163 47.9274 67ZM32.3818 67C32.3818 71.2978 35.199 74.0028 38.9637 74.0028C42.7285 74.0028 45.5456 71.2978 45.5456 67C45.5456 62.677 42.7285 59.9972 38.9637 59.9972C35.199 59.9972 32.3818 62.677 32.3818 67Z" fill="white"/>
<path d="M51.0041 75.823V58.2022H61.0947V60.073H53.3347V66.014H59.6349V67.8848H53.3347V75.823H51.0041Z" fill="white"/>
<path d="M63.9094 75.823V58.2022H74V60.073H66.24V66.014H72.5402V67.8848H66.24V75.823H63.9094Z" fill="white"/>
</svg>
