<svg width="1043" height="897" viewBox="0 0 1043 897" fill="none" xmlns="http://www.w3.org/2000/svg">
<path d="M939.793 840.86C976.191 893.94 1028.56 897 1053.99 897C1061.45 897 1067.5 890.954 1067.5 883.495V19.9999C1067.5 8.95422 1058.55 -6.10352e-05 1047.5 -6.10352e-05H20C8.9543 -6.10352e-05 0 8.95422 0 19.9999V26.1801C0 29.915 0.947155 33.4106 2.90766 36.5895C54.5243 120.285 238.443 435.014 270.169 490.781C302.523 547.652 391.629 578.121 416.906 576.542H698.447C759.111 576.542 801.238 623.935 814.719 647.631C929.306 835.622 903.395 787.78 939.793 840.86Z" fill="url(#paint0_linear_8_1086)"/>
<path d="M1140.23 704.248C1172.66 748.452 1219.31 751 1241.97 751C1248.61 751 1254 745.613 1254 738.969V24C1254 12.9543 1245.05 4 1234 4H323C311.954 4 303 12.9543 303 24V24.5132C303 28.4569 304.102 32.2103 306.271 35.504C353.168 106.721 515.559 366.495 543.685 412.711C572.508 460.072 651.889 485.446 674.407 484.13H925.223C979.266 484.13 1016.8 523.598 1028.81 543.331C1130.89 699.886 1107.8 660.045 1140.23 704.248Z" fill="url(#paint1_linear_8_1086)"/>
<path d="M732.915 104.458C732.915 105.815 731.815 106.916 730.458 106.916V106.916C729.1 106.916 728 105.815 728 104.458V104.458C728 103.101 729.1 102 730.458 102V102C731.815 102 732.915 103.101 732.915 104.458V104.458Z" stroke="white" stroke-opacity="0.2" stroke-miterlimit="10"/>
<path d="M770.483 104.458C770.483 105.815 769.382 106.916 768.025 106.916C766.668 106.916 765.568 105.815 765.568 104.458C765.568 103.101 766.668 102 768.025 102C769.382 102 770.483 103.101 770.483 104.458Z" fill="#65A7CA"/>
<path d="M808.049 104.458C808.049 105.816 806.949 106.916 805.591 106.916V106.916C804.234 106.916 803.133 105.816 803.133 104.458V104.458C803.133 103.101 804.234 102 805.591 102V102C806.949 102 808.049 103.101 808.049 104.458V104.458Z" stroke="white" stroke-opacity="0.2" stroke-miterlimit="10"/>
<path d="M732.915 131.843C732.915 133.2 731.815 134.3 730.458 134.3V134.3C729.1 134.3 728 133.2 728 131.843V131.843C728 130.486 729.1 129.385 730.458 129.385V129.385C731.815 129.385 732.915 130.486 732.915 131.843V131.843Z" stroke="white" stroke-opacity="0.2" stroke-miterlimit="10"/>
<path d="M770.483 131.843C770.483 133.2 769.382 134.3 768.025 134.3V134.3C766.668 134.3 765.568 133.2 765.568 131.843V131.843C765.568 130.486 766.668 129.385 768.025 129.385V129.385C769.382 129.385 770.483 130.486 770.483 131.843V131.843Z" stroke="white" stroke-opacity="0.2" stroke-miterlimit="10"/>
<path d="M808.049 131.843C808.049 133.2 806.948 134.3 805.591 134.3V134.3C804.234 134.3 803.133 133.2 803.133 131.843V131.843C803.133 130.486 804.234 129.385 805.591 129.385V129.385C806.948 129.385 808.049 130.486 808.049 131.843V131.843Z" stroke="white" stroke-opacity="0.2" stroke-miterlimit="10"/>
<path d="M732.915 159.228C732.915 160.586 731.815 161.686 730.458 161.686V161.686C729.1 161.686 728 160.586 728 159.228V159.228C728 157.871 729.1 156.771 730.458 156.771V156.771C731.815 156.771 732.915 157.871 732.915 159.228V159.228Z" stroke="white" stroke-opacity="0.2" stroke-miterlimit="10"/>
<path d="M770.483 159.228C770.483 160.586 769.382 161.686 768.025 161.686V161.686C766.668 161.686 765.568 160.586 765.568 159.228V159.228C765.568 157.871 766.668 156.771 768.025 156.771V156.771C769.382 156.771 770.483 157.871 770.483 159.228V159.228Z" stroke="white" stroke-opacity="0.2" stroke-miterlimit="10"/>
<path d="M808.049 159.228C808.049 160.586 806.948 161.686 805.591 161.686C804.234 161.686 803.133 160.586 803.133 159.228C803.133 157.871 804.234 156.771 805.591 156.771C806.948 156.771 808.049 157.871 808.049 159.228Z" fill="#65A7CA"/>
<path d="M732.915 186.614C732.915 187.971 731.815 189.071 730.458 189.071V189.071C729.1 189.071 728 187.971 728 186.614V186.614C728 185.257 729.1 184.156 730.458 184.156V184.156C731.815 184.156 732.915 185.257 732.915 186.614V186.614Z" stroke="white" stroke-opacity="0.2" stroke-miterlimit="10"/>
<path d="M770.483 186.614C770.483 187.971 769.382 189.071 768.025 189.071V189.071C766.668 189.071 765.568 187.971 765.568 186.614V186.614C765.568 185.257 766.668 184.156 768.025 184.156V184.156C769.382 184.156 770.483 185.257 770.483 186.614V186.614Z" stroke="white" stroke-opacity="0.2" stroke-miterlimit="10"/>
<path d="M808.049 186.614C808.049 187.971 806.948 189.071 805.591 189.071V189.071C804.234 189.071 803.133 187.971 803.133 186.614V186.614C803.133 185.257 804.234 184.156 805.591 184.156V184.156C806.948 184.156 808.049 185.257 808.049 186.614V186.614Z" stroke="white" stroke-opacity="0.2" stroke-miterlimit="10"/>
<path d="M732.915 213.999C732.915 215.356 731.815 216.457 730.458 216.457C729.1 216.457 728 215.356 728 213.999C728 212.641 729.1 211.54 730.458 211.54C731.815 211.54 732.915 212.641 732.915 213.999Z" fill="#65A7CA"/>
<path d="M770.483 213.999C770.483 215.356 769.382 216.457 768.025 216.457V216.457C766.668 216.457 765.568 215.356 765.568 213.999V213.999C765.568 212.641 766.668 211.54 768.025 211.54V211.54C769.382 211.54 770.483 212.641 770.483 213.999V213.999Z" stroke="white" stroke-opacity="0.2" stroke-miterlimit="10"/>
<path d="M808.049 213.999C808.049 215.356 806.949 216.457 805.591 216.457V216.457C804.234 216.457 803.133 215.356 803.133 213.999V213.999C803.133 212.641 804.234 211.54 805.591 211.54V211.54C806.949 211.54 808.049 212.641 808.049 213.999V213.999Z" stroke="white" stroke-opacity="0.2" stroke-miterlimit="10"/>
<path d="M732.915 241.383C732.915 242.74 731.815 243.841 730.458 243.841V243.841C729.1 243.841 728 242.74 728 241.383V241.383C728 240.026 729.1 238.925 730.458 238.925V238.925C731.815 238.925 732.915 240.026 732.915 241.383V241.383Z" stroke="white" stroke-opacity="0.2" stroke-miterlimit="10"/>
<path d="M770.483 241.383C770.483 242.74 769.382 243.841 768.025 243.841C766.668 243.841 765.568 242.74 765.568 241.383C765.568 240.026 766.668 238.925 768.025 238.925C769.382 238.925 770.483 240.026 770.483 241.383Z" fill="#65A7CA"/>
<path d="M808.049 241.383C808.049 242.74 806.949 243.841 805.591 243.841V243.841C804.234 243.841 803.133 242.74 803.133 241.383V241.383C803.133 240.026 804.234 238.925 805.591 238.925V238.925C806.949 238.925 808.049 240.026 808.049 241.383V241.383Z" stroke="white" stroke-opacity="0.2" stroke-miterlimit="10"/>
<defs>
<linearGradient id="paint0_linear_8_1086" x1="1035" y1="5.98112e-05" x2="538.75" y2="897" gradientUnits="userSpaceOnUse">
<stop stop-color="#3A80A5"/>
<stop offset="1" stop-color="#1F678D"/>
</linearGradient>
<linearGradient id="paint1_linear_8_1086" x1="492.022" y1="206.5" x2="921.52" y2="544.514" gradientUnits="userSpaceOnUse">
<stop stop-color="#3A80A5"/>
<stop offset="1" stop-color="#1F678D"/>
</linearGradient>
</defs>
</svg>
