<svg width="64" height="64" viewBox="0 0 64 64" fill="none" xmlns="http://www.w3.org/2000/svg">
<path d="M7.07207 14.8954C7.07207 12.8205 7.89631 10.8306 9.36347 9.36347C10.8306 7.89631 12.8205 7.07207 14.8954 7.07207H18.4514C20.5171 7.07089 22.4985 6.25276 23.9633 4.7962L26.4526 2.30696C27.1796 1.57584 28.044 0.995639 28.996 0.599727C29.948 0.203815 30.9689 0 32 0C33.0311 0 34.052 0.203815 35.004 0.599727C35.956 0.995639 36.8204 1.57584 37.5474 2.30696L40.0367 4.7962C41.5015 6.25276 43.4828 7.07089 45.5486 7.07207H49.1046C51.1795 7.07207 53.1694 7.89631 54.6365 9.36347C56.1037 10.8306 56.9279 12.8205 56.9279 14.8954V18.4514C56.9291 20.5171 57.7472 22.4985 59.2038 23.9633L61.693 26.4526C62.4242 27.1796 63.0044 28.044 63.4003 28.996C63.7962 29.948 64 30.9689 64 32C64 33.0311 63.7962 34.052 63.4003 35.004C63.0044 35.956 62.4242 36.8204 61.693 37.5474L59.2038 40.0367C57.7472 41.5015 56.9291 43.4828 56.9279 45.5486V49.1046C56.9279 51.1795 56.1037 53.1694 54.6365 54.6365C53.1694 56.1037 51.1795 56.9279 49.1046 56.9279H45.5486C43.4828 56.9291 41.5015 57.7472 40.0367 59.2038L37.5474 61.693C36.8204 62.4242 35.956 63.0044 35.004 63.4003C34.052 63.7962 33.0311 64 32 64C30.9689 64 29.948 63.7962 28.996 63.4003C28.044 63.0044 27.1796 62.4242 26.4526 61.693L23.9633 59.2038C22.4985 57.7472 20.5171 56.9291 18.4514 56.9279H14.8954C12.8205 56.9279 10.8306 56.1037 9.36347 54.6365C7.89631 53.1694 7.07207 51.1795 7.07207 49.1046V45.5486C7.07089 43.4828 6.25276 41.5015 4.7962 40.0367L2.30696 37.5474C1.57584 36.8204 0.995639 35.956 0.599727 35.004C0.203815 34.052 0 33.0311 0 32C0 30.9689 0.203815 29.948 0.599727 28.996C0.995639 28.044 1.57584 27.1796 2.30696 26.4526L4.7962 23.9633C6.25276 22.4985 7.07089 20.5171 7.07207 18.4514V14.8954Z" fill="#E86453"/>
<path d="M18.5011 30.4742V27.5833C21.4946 25.2824 24.6287 22.8241 24.6287 20.5822C24.6287 19.7562 24.247 19.2449 23.4835 19.2449C22.7402 19.2449 22.2379 19.8546 22.2781 21.1328H18.4609C18.5815 17.475 21.0124 16 23.7246 16C27.2203 16 28.6066 17.9469 28.6066 20.3069C28.6066 23.2961 26.0752 25.7544 23.7246 27.3473H28.7472V30.4742H18.5011Z" fill="white"/>
<path d="M30.0598 23.2765C30.0598 19.0286 31.6671 16 35.8861 16C40.105 16 41.7324 19.0286 41.7324 23.2765C41.7324 27.5833 40.105 30.5922 35.8861 30.5922C31.6671 30.5922 30.0598 27.5833 30.0598 23.2765ZM37.8348 23.2765C37.8348 21.2902 37.6339 19.6382 35.8861 19.6382C34.1382 19.6382 33.9373 21.2902 33.9373 23.2765C33.9373 25.3217 34.1382 26.954 35.8861 26.954C37.6339 26.954 37.8348 25.3217 37.8348 23.2765Z" fill="white"/>
<path d="M42.6912 25.3611C42.6912 24.1614 43.4747 23.5813 44.5094 23.5813C45.534 23.5813 46.3075 24.1614 46.3075 25.3611C46.3075 26.5509 45.534 27.131 44.5094 27.131C43.4747 27.131 42.6912 26.5509 42.6912 25.3611ZM44.4893 24.8497C44.2683 24.8497 44.1478 25.0169 44.1478 25.3611C44.1478 25.6954 44.2683 25.8625 44.4893 25.8625C44.7203 25.8625 44.861 25.6954 44.861 25.3611C44.861 25.0169 44.7203 24.8497 44.4893 24.8497ZM44.2583 30.6709L48.0051 23.6796H50.1347L46.3878 30.6709H44.2583ZM48.0855 28.9894C48.0855 27.7898 48.869 27.2097 49.8936 27.2097C50.9283 27.2097 51.6917 27.7898 51.6917 28.9894C51.6917 30.1891 50.9283 30.7692 49.8936 30.7692C48.869 30.7692 48.0855 30.1891 48.0855 28.9894ZM49.8836 28.4781C49.6525 28.4781 49.532 28.6551 49.532 28.9894C49.532 29.3336 49.6525 29.5008 49.8836 29.5008C50.1046 29.5008 50.2452 29.3336 50.2452 28.9894C50.2452 28.6551 50.1046 28.4781 49.8836 28.4781Z" fill="white"/>
<path d="M29.4932 41.2299C29.4932 44.4814 27.0819 46.7683 23.9771 46.7683C20.888 46.7683 18.4609 44.4814 18.4609 41.2299C18.4609 37.9784 20.888 35.6914 23.9771 35.6914C27.0819 35.6914 29.4932 37.9784 29.4932 41.2299ZM19.9267 41.2299C19.9267 43.8746 21.6603 45.5393 23.9771 45.5393C26.2938 45.5393 28.0275 43.8746 28.0275 41.2299C28.0275 38.5695 26.2938 36.9204 23.9771 36.9204C21.6603 36.9204 19.9267 38.5695 19.9267 41.2299Z" fill="white"/>
<path d="M31.3865 46.6594V35.8159H37.5961V36.9671H32.8207V40.6231H36.6978V41.7744H32.8207V46.6594H31.3865Z" fill="white"/>
<path d="M39.3283 46.6594V35.8159H45.5379V36.9671H40.7625V40.6231H44.6395V41.7744H40.7625V46.6594H39.3283Z" fill="white"/>
</svg>
