<svg width="18" height="18" viewBox="0 0 18 18" fill="none" xmlns="http://www.w3.org/2000/svg">
<path d="M16.2 1.8H14.4V0H12.6V1.8H5.4V0H3.6V1.8H1.8C0.80595 1.8 0 2.60595 0 3.6V16.2C0 17.194 0.80595 18 1.8 18H16.2C17.194 18 18 17.194 18 16.2V3.6C18 2.60595 17.194 1.8 16.2 1.8ZM16.2 16.2H1.8V7.2H16.2V16.2ZM16.2 5.4H1.8V3.6H16.2V5.4Z" fill="#FFBB00"/>
<path d="M9.8 9H8V10.8H9.8V9Z" fill="#FFBB00"/>
<path d="M13.8 9H12V10.8H13.8V9Z" fill="#FFBB00"/>
<path d="M9.8 12.6001H8V14.4001H9.8V12.6001Z" fill="#FFBB00"/>
<path d="M13.8 12.6001H12V14.4001H13.8V12.6001Z" fill="#FFBB00"/>
<path d="M5.8 12.6001H4V14.4001H5.8V12.6001Z" fill="#FFBB00"/>
<path d="M5.8 9H4V10.8H5.8V9Z" fill="#FFBB00"/>
</svg>
