<svg width="29" height="20" viewBox="0 0 29 20" fill="none" xmlns="http://www.w3.org/2000/svg">
<path d="M24.0139 20H4.24093C3.11663 19.9989 2.03869 19.5518 1.24362 18.7569C0.448554 17.9619 0.00130244 16.8841 0 15.7598V4.24023C0.00130244 3.11593 0.448554 2.03806 1.24362 1.24312C2.03869 0.448189 3.11663 0.0011161 4.24093 0H24.0139C25.1382 0.00111642 26.216 0.448212 27.011 1.24317C27.8059 2.03812 28.253 3.11599 28.2541 4.24023V15.7598C28.253 16.884 27.8059 17.9619 27.011 18.7568C26.216 19.5518 25.1382 19.9989 24.0139 20ZM4.24093 2.10852C3.67567 2.10908 3.13372 2.33382 2.73395 2.73346C2.33419 3.13309 2.10926 3.67497 2.10852 4.24023V15.7598C2.10926 16.325 2.33419 16.8669 2.73395 17.2665C3.13372 17.6662 3.67567 17.8909 4.24093 17.8915H24.0139C24.5791 17.8909 25.121 17.6662 25.5206 17.2665C25.9203 16.8668 26.1451 16.325 26.1456 15.7598V4.24023C26.1451 3.67504 25.9203 3.13315 25.5206 2.7335C25.121 2.33385 24.5791 2.10908 24.0139 2.10852H4.24093Z" fill="#272A2E"/>
<path d="M27.1999 10.7428H1.05426C0.774652 10.7428 0.506497 10.6317 0.308785 10.434C0.111073 10.2363 0 9.96816 0 9.68856V5.33868C0 5.05908 0.111073 4.79092 0.308785 4.59321C0.506497 4.3955 0.774652 4.28442 1.05426 4.28442H27.1999C27.4795 4.28442 27.7477 4.3955 27.9454 4.59321C28.1431 4.79092 28.2541 5.05908 28.2541 5.33868V9.68856C28.2541 9.96816 28.1431 10.2363 27.9454 10.434C27.7477 10.6317 27.4795 10.7428 27.1999 10.7428ZM2.10852 8.6343H26.1456V6.39294H2.10852V8.6343Z" fill="#272A2E"/>
<path d="M7.00452 14.1361H4.31756C4.03796 14.1361 3.7698 14.025 3.57209 13.8273C3.37438 13.6296 3.26331 13.3615 3.26331 13.0818C3.26331 12.8022 3.37438 12.5341 3.57209 12.3364C3.7698 12.1387 4.03796 12.0276 4.31756 12.0276H7.00452C7.28413 12.0276 7.55228 12.1387 7.74999 12.3364C7.94771 12.5341 8.05878 12.8022 8.05878 13.0818C8.05878 13.3615 7.94771 13.6296 7.74999 13.8273C7.55228 14.025 7.28413 14.1361 7.00452 14.1361Z" fill="#272A2E"/>
<path d="M12.4515 14.1361H9.76453C9.48492 14.1361 9.21676 14.025 9.01905 13.8273C8.82134 13.6296 8.71027 13.3615 8.71027 13.0818C8.71027 12.8022 8.82134 12.5341 9.01905 12.3364C9.21676 12.1387 9.48492 12.0276 9.76453 12.0276H12.4515C12.7311 12.0276 12.9992 12.1387 13.197 12.3364C13.3947 12.5341 13.5057 12.8022 13.5057 13.0818C13.5057 13.3615 13.3947 13.6296 13.197 13.8273C12.9992 14.025 12.7311 14.1361 12.4515 14.1361Z" fill="#272A2E"/>
<path d="M17.8985 14.1361H15.2115C14.9319 14.1361 14.6638 14.025 14.4661 13.8273C14.2684 13.6296 14.1573 13.3615 14.1573 13.0818C14.1573 12.8022 14.2684 12.5341 14.4661 12.3364C14.6638 12.1387 14.9319 12.0276 15.2115 12.0276H17.8985C18.1781 12.0276 18.4463 12.1387 18.644 12.3364C18.8417 12.5341 18.9528 12.8022 18.9528 13.0818C18.9528 13.3615 18.8417 13.6296 18.644 13.8273C18.4463 14.025 18.1781 14.1361 17.8985 14.1361Z" fill="#272A2E"/>
</svg>
