<svg className="hidden tablet:block" width="36" height="36" viewBox="0 0 36 36" fill="none" xmlns="http://www.w3.org/2000/svg">
<g clip-path="url(#clip0_2132_2094)">
<path d="M9.6825 28.5L3 33.75V6C3 5.60218 3.15804 5.22064 3.43934 4.93934C3.72064 4.65804 4.10218 4.5 4.5 4.5H31.5C31.8978 4.5 32.2794 4.65804 32.5607 4.93934C32.842 5.22064 33 5.60218 33 6V27C33 27.3978 32.842 27.7794 32.5607 28.0607C32.2794 28.342 31.8978 28.5 31.5 28.5H9.6825ZM8.6445 25.5H30V7.5H6V27.5775L8.6445 25.5ZM16.5 15H19.5V18H16.5V15ZM10.5 15H13.5V18H10.5V15ZM22.5 15H25.5V18H22.5V15Z" fill="white"/>
</g>
<defs>
<clipPath id="clip0_2132_2094">
<rect width="36" height="36" fill="white"/>
</clipPath>
</defs>
</svg>

<svg className="block tablet:hidden" width="26" height="26" viewBox="0 0 26 26" fill="none" xmlns="http://www.w3.org/2000/svg">
<g clip-path="url(#clip0_2180_432)">
<path d="M7.17775 20.3508L2.5 24.0258V4.60078C2.5 4.3223 2.61062 4.05523 2.80754 3.85832C3.00445 3.66141 3.27152 3.55078 3.55 3.55078H22.45C22.7285 3.55078 22.9955 3.66141 23.1925 3.85832C23.3894 4.05523 23.5 4.3223 23.5 4.60078V19.3008C23.5 19.5793 23.3894 19.8463 23.1925 20.0432C22.9955 20.2402 22.7285 20.3508 22.45 20.3508H7.17775ZM6.45115 18.2508H21.4V5.65078H4.6V19.705L6.45115 18.2508ZM11.95 10.9008H14.05V13.0008H11.95V10.9008ZM7.75 10.9008H9.85V13.0008H7.75V10.9008ZM16.15 10.9008H18.25V13.0008H16.15V10.9008Z" fill="white"/>
</g>
<defs>
<clipPath id="clip0_2180_432">
<rect width="25.2" height="25.2" fill="white" transform="translate(0.400391 0.400391)"/>
</clipPath>
</defs>
</svg>
