<svg width="36" height="36" viewBox="0 0 36 36" fill="none" xmlns="http://www.w3.org/2000/svg">
<g clip-path="url(#clip0_2132_2094)">
<path d="M9.6825 28.5L3 33.75V6C3 5.60218 3.15804 5.22064 3.43934 4.93934C3.72064 4.65804 4.10218 4.5 4.5 4.5H31.5C31.8978 4.5 32.2794 4.65804 32.5607 4.93934C32.842 5.22064 33 5.60218 33 6V27C33 27.3978 32.842 27.7794 32.5607 28.0607C32.2794 28.342 31.8978 28.5 31.5 28.5H9.6825ZM8.6445 25.5H30V7.5H6V27.5775L8.6445 25.5ZM16.5 15H19.5V18H16.5V15ZM10.5 15H13.5V18H10.5V15ZM22.5 15H25.5V18H22.5V15Z" fill="white"/>
</g>
<defs>
<clipPath id="clip0_2132_2094">
<rect width="36" height="36" fill="white"/>
</clipPath>
</defs>
</svg>
