<svg width="18" height="20" viewBox="0 0 18 20" fill="none" xmlns="http://www.w3.org/2000/svg">
<path d="M1.20801 12C1.20801 13.5823 1.6772 15.129 2.55625 16.4446C3.4353 17.7602 4.68473 18.7855 6.14654 19.391C7.60835 19.9965 9.21688 20.155 10.7687 19.8463C12.3206 19.5376 13.746 18.7757 14.8649 17.6569C15.9837 16.538 16.7456 15.1126 17.0543 13.5607C17.363 12.0089 17.2045 10.4003 16.599 8.93853C15.9935 7.47672 14.9682 6.22729 13.6526 5.34824C12.337 4.46919 10.7903 4 9.20801 4C7.08628 4 5.05144 4.84285 3.55115 6.34315C2.05086 7.84344 1.20801 9.87827 1.20801 12ZM9.20801 6C10.3947 6 11.5547 6.35189 12.5414 7.01118C13.5281 7.67047 14.2972 8.60754 14.7513 9.7039C15.2054 10.8003 15.3242 12.0067 15.0927 13.1705C14.8612 14.3344 14.2898 15.4035 13.4506 16.2426C12.6115 17.0818 11.5424 17.6532 10.3785 17.8847C9.21466 18.1162 8.00826 17.9974 6.91191 17.5433C5.81555 17.0892 4.87848 16.3201 4.21919 15.3334C3.5599 14.3467 3.20801 13.1867 3.20801 12C3.20801 10.4087 3.84015 8.88258 4.96537 7.75736C6.09059 6.63214 7.61671 6 9.20801 6Z" fill="#FFBB00"/>
<path d="M11.208 0H7.20801V2H11.208V0Z" fill="#FFBB00"/>
<path d="M2.99813 1.79093L0 4.78906L1.41421 6.20328L4.41235 3.20514L2.99813 1.79093Z" fill="#FFBB00"/>
<path d="M10.208 8H8.20801V13H10.208V8Z" fill="#FFBB00"/>
</svg>
