<svg width="24" height="20" viewBox="0 0 24 20" fill="none" xmlns="http://www.w3.org/2000/svg">
<path d="M1.49991 19.7501C1.39408 19.7508 1.28931 19.729 1.19248 19.6863C1.09566 19.6435 1.00898 19.5808 0.938141 19.5021C0.8673 19.4235 0.813905 19.3308 0.781463 19.23C0.749022 19.1293 0.73827 19.0228 0.749914 18.9176L1.32741 13.6676C1.34797 13.4998 1.42462 13.3439 1.54491 13.2251L13.8149 0.955127C14.0378 0.731759 14.3026 0.554547 14.5941 0.433636C14.8856 0.312725 15.1981 0.250488 15.5137 0.250488C15.8292 0.250488 16.1417 0.312725 16.4332 0.433636C16.7247 0.554547 16.9895 0.731759 17.2124 0.955127L19.5449 3.28763C19.7683 3.51055 19.9455 3.77534 20.0664 4.06683C20.1873 4.35832 20.2496 4.6708 20.2496 4.98638C20.2496 5.30195 20.1873 5.61443 20.0664 5.90592C19.9455 6.19742 19.7683 6.4622 19.5449 6.68513L7.28241 18.9476C7.16364 19.0679 7.00771 19.1446 6.83991 19.1651L1.58991 19.7426L1.49991 19.7501ZM2.79741 14.0876L2.34741 18.1526L6.41242 17.7026L18.4874 5.62763C18.5713 5.54401 18.6379 5.44466 18.6833 5.33526C18.7287 5.22587 18.7521 5.10858 18.7521 4.99013C18.7521 4.87167 18.7287 4.75439 18.6833 4.64499C18.6379 4.53559 18.5713 4.43624 18.4874 4.35263L16.1474 2.01263C16.0638 1.92872 15.9644 1.86215 15.8551 1.81673C15.7457 1.7713 15.6284 1.74792 15.5099 1.74792C15.3915 1.74792 15.2742 1.7713 15.1648 1.81673C15.0554 1.86215 14.956 1.92872 14.8724 2.01263L2.79741 14.0876Z" fill="#B2B7BB"/>
<path d="M17.2499 8.6575C17.1512 8.65807 17.0534 8.63915 16.962 8.60183C16.8706 8.56451 16.7875 8.50951 16.7174 8.44L12.0599 3.7675C11.99 3.69757 11.9345 3.61456 11.8967 3.52319C11.8588 3.43182 11.8394 3.3339 11.8394 3.235C11.8394 3.13611 11.8588 3.03818 11.8967 2.94682C11.9345 2.85545 11.99 2.77243 12.0599 2.7025C12.1299 2.63257 12.2129 2.5771 12.3042 2.53926C12.3956 2.50141 12.4935 2.48193 12.5924 2.48193C12.6913 2.48193 12.7892 2.50141 12.8806 2.53926C12.972 2.5771 13.055 2.63257 13.1249 2.7025L17.7974 7.375C17.8677 7.44472 17.9235 7.52768 17.9616 7.61907C17.9997 7.71046 18.0193 7.80849 18.0193 7.9075C18.0193 8.00651 17.9997 8.10454 17.9616 8.19594C17.9235 8.28733 17.8677 8.37028 17.7974 8.44C17.7256 8.51133 17.64 8.56738 17.5459 8.60476C17.4518 8.64214 17.3511 8.66008 17.2499 8.6575Z" fill="#B2B7BB"/>
<path d="M12.0638 7.37786L6.22485 13.2168L7.28551 14.2775L13.1244 8.43852L12.0638 7.37786Z" fill="#B2B7BB"/>
<path d="M22.5 19.75H10.5C10.3011 19.75 10.1103 19.671 9.96967 19.5303C9.82902 19.3897 9.75 19.1989 9.75 19C9.75 18.8011 9.82902 18.6103 9.96967 18.4697C10.1103 18.329 10.3011 18.25 10.5 18.25H22.5C22.6989 18.25 22.8897 18.329 23.0303 18.4697C23.171 18.6103 23.25 18.8011 23.25 19C23.25 19.1989 23.171 19.3897 23.0303 19.5303C22.8897 19.671 22.6989 19.75 22.5 19.75Z" fill="#B2B7BB"/>
</svg>
