<svg width="30" height="38" viewBox="0 0 30 38" fill="none" xmlns="http://www.w3.org/2000/svg">
<path fill-rule="evenodd" clip-rule="evenodd" d="M19.2794 3.44865C18.5128 2.68377 17.4547 2.21084 16.2862 2.21084C14.98 2.21084 13.8119 2.80171 13.0345 3.73074C12.5431 3.53145 12.0058 3.42168 11.4428 3.42168C10.2725 3.42168 9.21304 3.89603 8.44612 4.66295C7.67879 5.43047 7.20486 6.49119 7.20486 7.6618V11.0847C6.4476 10.1489 5.99402 8.95722 5.99402 7.65963C5.99402 4.65035 8.43352 2.21084 11.4428 2.21084C11.8722 2.21084 12.2901 2.26052 12.6908 2.35444C13.6503 1.51128 14.9085 1 16.2862 1C19.2954 1 21.735 3.4395 21.735 6.44878C21.735 7.74638 21.2814 8.93804 20.5241 9.87385V6.43825C20.5241 5.27088 20.0486 4.21403 19.2811 3.44902L19.2794 3.44865ZM29 27.0331C29 32.7173 24.392 37.3252 18.7078 37.3252C14.9386 37.3252 10.9607 35.5665 8.22296 30.5787C4.27139 23.3794 -0.782027 18.6579 1.62423 16.2517C3.34562 14.5303 6.04831 16.1817 8.4157 18.3959V7.66981C8.4157 5.98312 9.77098 4.63252 11.4428 4.63252C12.2156 4.63252 12.9168 4.91909 13.4493 5.3914C13.8785 4.23923 14.9867 3.42168 16.2862 3.42168C17.9696 3.42168 19.3133 4.77884 19.3133 6.45297V14.9273C19.8192 14.5461 20.4481 14.3193 21.1295 14.3193C22.813 14.3193 24.1566 15.6732 24.1566 17.3435V17.3598C24.6626 16.9813 25.2914 16.7581 25.9729 16.7581C27.6564 16.7581 29 18.1135 29 19.7854V27.0331ZM18.7078 36.1144C14.1554 36.1138 11.4549 33.6308 9.32065 30.0397C4.58383 22.0695 1.19166 18.4225 2.50805 17.099C3.8528 15.747 7.13415 18.6758 9.62654 21.3401V7.66597C9.62654 6.65115 10.4397 5.84336 11.4428 5.84336C12.4529 5.84336 13.2591 6.65937 13.2591 7.66597V20.3735H14.4699V6.43776C14.4699 5.45132 15.2831 4.63252 16.2862 4.63252C17.2963 4.63252 18.1024 5.44076 18.1024 6.43776V19.1626H19.3133V17.3542C19.3133 16.3432 20.1264 15.5301 21.1295 15.5301C22.1396 15.5301 22.9458 16.3468 22.9458 17.3542V20.3735H24.1566V19.7701C24.1566 18.7645 24.9698 17.9518 25.9729 17.9518C26.983 17.9518 27.7892 18.7659 27.7892 19.7701V22.4914V27.0331C27.7892 32.0486 23.7233 36.1144 18.7078 36.1144Z" fill="#DE9F29" stroke="#DE9F29" stroke-width="0.8"/>
</svg>
