<svg className="hidden tablet:block" width="28" height="36" viewBox="0 0 28 36" fill="none" xmlns="http://www.w3.org/2000/svg">
<path d="M19.4323 11.2498L26.8417 3.84033C27.1564 3.52566 27.3706 3.12476 27.4575 2.68832C27.5443 2.25188 27.4997 1.7995 27.3294 1.38838C27.1591 0.977265 26.8708 0.62587 26.5008 0.378633C26.1308 0.131395 25.6958 -0.000581748 25.2508 -0.000610031H2.75C2.45448 -0.000767767 2.16183 0.0573225 1.88878 0.17034C1.61572 0.283357 1.36762 0.449085 1.15866 0.658048C0.949695 0.867011 0.783967 1.11511 0.67095 1.38817C0.557933 1.66122 0.499843 1.95387 0.5 2.24939V33.7505C0.5 34.3473 0.737053 34.9195 1.15901 35.3415C1.58097 35.7635 2.15326 36.0005 2.75 36.0005C3.34674 36.0005 3.91903 35.7635 4.34099 35.3415C4.76295 34.9195 5 34.3473 5 33.7505V22.5H25.2508C25.6958 22.5 26.1308 22.368 26.5008 22.1208C26.8708 21.8735 27.1591 21.5222 27.3294 21.111C27.4997 20.6999 27.5443 20.2475 27.4575 19.8111C27.3706 19.3747 27.1564 18.9738 26.8417 18.6591L19.4323 11.2498ZM5 18V4.49954H19.819L14.6597 9.6589C14.4507 9.86778 14.2849 10.1158 14.1718 10.3888C14.0587 10.6617 14.0004 10.9543 14.0004 11.2498C14.0004 11.5453 14.0587 11.8378 14.1718 12.1108C14.2849 12.3838 14.4507 12.6318 14.6597 12.8407L19.819 18H5Z" fill="white"/>
</svg>

<svg className="block tablet:hidden" width="28" height="27" viewBox="0 0 28 27" fill="none" xmlns="http://www.w3.org/2000/svg">
<g clip-path="url(#clip0_2180_103)">
<path d="M17.8242 8.43781L23.3813 2.8807C23.6173 2.6447 23.778 2.34403 23.8431 2.0167C23.9082 1.68937 23.8748 1.35009 23.7471 1.04175C23.6194 0.733406 23.4031 0.46986 23.1256 0.284432C22.8481 0.0990041 22.5219 2.14528e-05 22.1881 2.40278e-07H5.3125C5.09086 -0.000118062 4.87137 0.0434497 4.66658 0.128213C4.46179 0.212975 4.27572 0.337271 4.11899 0.493994C3.96227 0.650716 3.83798 0.836792 3.75321 1.04158C3.66845 1.24637 3.62488 1.46586 3.625 1.6875V25.3133C3.625 25.7609 3.80279 26.1901 4.11926 26.5066C4.43573 26.8231 4.86495 27.0008 5.3125 27.0008C5.76005 27.0008 6.18928 26.8231 6.50574 26.5066C6.82221 26.1901 7 25.7609 7 25.3133V16.8755H22.1881C22.5219 16.8755 22.8481 16.7765 23.1256 16.591C23.4031 16.4056 23.6194 16.1421 23.7471 15.8337C23.8748 15.5254 23.9082 15.1861 23.8431 14.8588C23.778 14.5314 23.6173 14.2308 23.3813 13.9948L17.8242 8.43781ZM7 13.5005V3.37511H18.1143L14.2447 7.24463C14.088 7.40129 13.9637 7.5873 13.8788 7.79202C13.794 7.99675 13.7503 8.21619 13.7503 8.4378C13.7503 8.6594 13.794 8.87884 13.8788 9.08357C13.9637 9.28829 14.088 9.4743 14.2447 9.63096L18.1143 13.5005H7Z" fill="white"/>
</g>
<defs>
<clipPath id="clip0_2180_103">
<rect width="27" height="27" fill="white" transform="translate(0.25)"/>
</clipPath>
</defs>
</svg>
