<svg width="28" height="36" viewBox="0 0 28 36" fill="none" xmlns="http://www.w3.org/2000/svg">
<path d="M19.4323 11.2498L26.8417 3.84033C27.1564 3.52566 27.3706 3.12476 27.4575 2.68832C27.5443 2.25188 27.4997 1.7995 27.3294 1.38838C27.1591 0.977265 26.8708 0.62587 26.5008 0.378633C26.1308 0.131395 25.6958 -0.000581748 25.2508 -0.000610031H2.75C2.45448 -0.000767767 2.16183 0.0573225 1.88878 0.17034C1.61572 0.283357 1.36762 0.449085 1.15866 0.658048C0.949695 0.867011 0.783967 1.11511 0.67095 1.38817C0.557933 1.66122 0.499843 1.95387 0.5 2.24939V33.7505C0.5 34.3473 0.737053 34.9195 1.15901 35.3415C1.58097 35.7635 2.15326 36.0005 2.75 36.0005C3.34674 36.0005 3.91903 35.7635 4.34099 35.3415C4.76295 34.9195 5 34.3473 5 33.7505V22.5H25.2508C25.6958 22.5 26.1308 22.368 26.5008 22.1208C26.8708 21.8735 27.1591 21.5222 27.3294 21.111C27.4997 20.6999 27.5443 20.2475 27.4575 19.8111C27.3706 19.3747 27.1564 18.9738 26.8417 18.6591L19.4323 11.2498ZM5 18V4.49954H19.819L14.6597 9.6589C14.4507 9.86778 14.2849 10.1158 14.1718 10.3888C14.0587 10.6617 14.0004 10.9543 14.0004 11.2498C14.0004 11.5453 14.0587 11.8378 14.1718 12.1108C14.2849 12.3838 14.4507 12.6318 14.6597 12.8407L19.819 18H5Z" fill="white"/>
</svg>
