<svg width="26" height="23" viewBox="0 0 26 23" fill="none" xmlns="http://www.w3.org/2000/svg">
<path d="M22.6436 2.80836C22.0705 2.23506 21.3902 1.78027 20.6413 1.46999C19.8925 1.1597 19.0898 1 18.2793 1C17.4687 1 16.666 1.1597 15.9172 1.46999C15.1683 1.78027 14.488 2.23506 13.9149 2.80836L12.7257 3.99762L11.5364 2.80836C10.3789 1.65087 8.80903 1.0006 7.17209 1.0006C5.53515 1.0006 3.96526 1.65087 2.80776 2.80836C1.65027 3.96586 1 5.53575 1 7.17269C1 8.80963 1.65027 10.3795 2.80776 11.537L3.99702 12.7263L12.7257 21.4549L21.4543 12.7263L22.6436 11.537C23.2169 10.964 23.6717 10.2836 23.982 9.53476C24.2922 8.78592 24.4519 7.98328 24.4519 7.17269C24.4519 6.36211 24.2922 5.55947 23.982 4.81062C23.6717 4.06177 23.2169 3.3814 22.6436 2.80836Z" stroke="#E2A229" stroke-width="2" stroke-linecap="round" stroke-linejoin="round"/>
</svg>
