<svg width="18" height="18" viewBox="0 0 18 18" fill="none" xmlns="http://www.w3.org/2000/svg">
<mask id="path-1-inside-1_2132_2231" fill="white">
<path d="M5.53237 0.428223C4.59432 0.472498 3.9536 0.622764 3.39371 0.842149C2.81413 1.06809 2.32283 1.37088 1.83409 1.86163C1.34478 2.35267 1.04427 2.84485 0.820035 3.42501C0.602942 3.98631 0.455833 4.62733 0.414396 5.56598C0.373277 6.50637 0.363843 6.8063 0.368428 9.20037C0.372995 11.5941 0.383557 11.8946 0.428396 12.8353C0.473236 13.7731 0.622937 14.4135 0.842322 14.9737C1.06855 15.5533 1.37104 16.0443 1.86207 16.5334C2.35282 17.0224 2.84527 17.3226 3.42572 17.5471C3.98643 17.764 4.62773 17.9116 5.56609 17.9528C6.50644 17.9942 6.80665 18.0033 9.20012 17.9988C11.5947 17.9942 11.8949 17.9836 12.8353 17.9391C13.7734 17.8942 14.4135 17.744 14.974 17.5252C15.5535 17.2984 16.0448 16.9964 16.5336 16.5054C17.0223 16.0146 17.3228 15.5221 17.5471 14.9417C17.7642 14.381 17.9118 13.7397 17.9527 12.8019C17.9938 11.8609 18.0035 11.5604 17.999 9.16666C17.9944 6.7726 17.9836 6.47267 17.939 5.53257C17.8944 4.59393 17.7442 3.95378 17.5251 3.39333C17.2986 2.81374 16.9964 2.32299 16.5056 1.83367C16.0149 1.34491 15.5224 1.04383 14.942 0.820161C14.3809 0.603068 13.7399 0.455095 12.8016 0.41454C11.8612 0.372821 11.561 0.363687 9.16669 0.368254C6.77295 0.372839 6.47276 0.383118 5.53237 0.42824M5.63523 16.366C4.77571 16.3285 4.30895 16.1857 3.99788 16.066C3.58598 15.9066 3.29204 15.7155 2.98268 15.4085C2.67389 15.1003 2.48223 14.8072 2.3214 14.3961C2.20056 14.085 2.05518 13.6188 2.01491 12.7593C1.97118 11.8301 1.9612 11.5513 1.9569 9.19721C1.95235 6.84373 1.9609 6.56493 2.00147 5.63484C2.03833 4.77588 2.18201 4.30857 2.30141 3.99777C2.4608 3.58528 2.65131 3.29192 2.95896 2.98256C3.26718 2.67319 3.56025 2.48209 3.9716 2.32128C4.28238 2.19986 4.74857 2.05561 5.60779 2.01477C6.53759 1.97078 6.81608 1.96135 9.16955 1.95678C11.5236 1.95219 11.8024 1.96048 12.7325 2.00134C13.5914 2.03875 14.0587 2.18101 14.3692 2.30127C14.7814 2.46067 15.0754 2.65062 15.3844 2.95884C15.6935 3.26706 15.8852 3.55958 16.046 3.97177C16.1674 4.28169 16.3116 4.74847 16.3522 5.60742C16.3965 6.53723 16.4065 6.81601 16.4107 9.16951C16.4153 11.5236 16.4068 11.8024 16.3659 12.7319C16.3285 13.5914 16.186 14.0585 16.066 14.3698C15.9066 14.7815 15.716 15.0754 15.4081 15.3848C15.1002 15.693 14.8071 15.8852 14.3955 16.046C14.0853 16.1671 13.6185 16.3117 12.7599 16.3525C11.8301 16.3962 11.5516 16.4062 9.19726 16.4105C6.8438 16.4151 6.56529 16.4062 5.63523 16.366ZM12.8224 4.47082C12.8236 5.05469 13.2983 5.52744 13.8822 5.52631C14.4664 5.52517 14.9391 5.05069 14.9382 4.4668C14.9371 3.88293 14.4623 3.4099 13.8782 3.41105C13.294 3.41218 12.8213 3.88693 12.8224 4.4708M4.65688 9.19207C4.66173 11.6924 6.69241 13.7148 9.19212 13.71C11.6921 13.7051 13.7157 11.675 13.7108 9.17464C13.7059 6.67518 11.675 4.65161 9.1747 4.65646C6.67497 4.66132 4.65201 6.69232 4.65688 9.19207ZM6.24479 9.18893C6.24193 7.56613 7.55535 6.24784 9.17783 6.24498C10.8006 6.24184 12.1192 7.5547 12.1223 9.17778C12.1255 10.8009 10.812 12.1189 9.18898 12.122C7.56649 12.1251 6.24792 10.812 6.24479 9.18893Z"/>
</mask>
<path d="M3.39371 0.842149L3.75693 1.77386L3.75854 1.77322L3.39371 0.842149ZM1.83409 1.86163L2.54244 2.56749L2.54264 2.56729L1.83409 1.86163ZM0.820035 3.42501L1.75271 3.78574L1.75279 3.78552L0.820035 3.42501ZM0.414396 5.56598L-0.584631 5.52188L-0.584649 5.5223L0.414396 5.56598ZM0.368428 9.20037L1.36843 9.19846V9.19846L0.368428 9.20037ZM0.428396 12.8353L-0.570469 12.8829L-0.570462 12.8831L0.428396 12.8353ZM0.842322 14.9737L1.77387 14.6101L1.77346 14.609L0.842322 14.9737ZM1.86207 16.5334L2.56794 15.825L2.56774 15.8248L1.86207 16.5334ZM3.42572 17.5471L3.06494 18.4798L3.06507 18.4799L3.42572 17.5471ZM5.56609 17.9528L5.61011 16.9537L5.60987 16.9537L5.56609 17.9528ZM9.20012 17.9988L9.20203 18.9988H9.20204L9.20012 17.9988ZM12.8353 17.9391L12.8826 18.9379L12.883 18.9379L12.8353 17.9391ZM14.974 17.5252L15.3376 18.4567L15.3384 18.4564L14.974 17.5252ZM16.5336 16.5054L15.825 15.7997L15.8248 15.7999L16.5336 16.5054ZM17.5471 14.9417L16.6145 14.5807L16.6143 14.5813L17.5471 14.9417ZM17.9527 12.8019L16.9536 12.7582L16.9536 12.7584L17.9527 12.8019ZM17.999 9.16666L16.999 9.16856V9.16857L17.999 9.16666ZM17.939 5.53257L18.9379 5.48523L18.9379 5.48514L17.939 5.53257ZM17.5251 3.39333L16.5937 3.75733L16.5937 3.75743L17.5251 3.39333ZM16.5056 1.83367L17.2117 1.12553L17.2113 1.12512L16.5056 1.83367ZM14.942 0.820161L14.5811 1.75277L14.5824 1.75328L14.942 0.820161ZM12.8016 0.41454L12.7572 1.41356L12.7584 1.41361L12.8016 0.41454ZM9.16669 0.368254L9.16478 -0.631744H9.16477L9.16669 0.368254ZM3.99788 16.066L3.63697 16.9986L3.63882 16.9994L3.99788 16.066ZM2.98268 15.4085L2.27621 16.1162L2.27821 16.1182L2.98268 15.4085ZM2.3214 14.3961L1.38925 14.7582L1.39014 14.7605L2.3214 14.3961ZM2.01491 12.7593L3.01381 12.7125L3.0138 12.7123L2.01491 12.7593ZM1.9569 9.19721L2.9569 9.19539V9.19528L1.9569 9.19721ZM2.00147 5.63484L3.00052 5.67842L3.00056 5.6777L2.00147 5.63484ZM2.30141 3.99777L1.36862 3.63732L1.36791 3.63917L2.30141 3.99777ZM2.95896 2.98256L2.25054 2.27676L2.2499 2.27741L2.95896 2.98256ZM3.9716 2.32128L3.6077 1.38984L3.60751 1.38992L3.9716 2.32128ZM5.60779 2.01477L5.56053 1.01589L5.56032 1.0159L5.60779 2.01477ZM9.16955 1.95678L9.17149 2.95678H9.17149L9.16955 1.95678ZM12.7325 2.00134L12.6886 3.00037L12.6889 3.00039L12.7325 2.00134ZM14.3692 2.30127L14.0081 3.23378L14.0085 3.23395L14.3692 2.30127ZM15.3844 2.95884L16.0906 2.25077L16.0905 2.25075L15.3844 2.95884ZM16.046 3.97177L15.1144 4.33526L15.1149 4.33644L16.046 3.97177ZM16.3522 5.60742L15.3533 5.65458L15.3533 5.65497L16.3522 5.60742ZM16.4107 9.16951L15.4107 9.17133V9.17146L16.4107 9.16951ZM16.3659 12.7319L15.3669 12.688L15.3669 12.6884L16.3659 12.7319ZM16.066 14.3698L16.9985 14.7309L16.9991 14.7294L16.066 14.3698ZM15.4081 15.3848L16.1156 16.0915L16.1169 16.0902L15.4081 15.3848ZM14.3955 16.046L14.7592 16.9775L14.7594 16.9775L14.3955 16.046ZM12.7599 16.3525L12.8068 17.3514L12.8074 17.3514L12.7599 16.3525ZM9.19726 16.4105L9.19545 15.4105H9.19532L9.19726 16.4105ZM13.8822 5.52631L13.8841 6.52631H13.8841L13.8822 5.52631ZM14.9382 4.4668L15.9382 4.46535L15.9382 4.46484L14.9382 4.4668ZM13.8782 3.41105L13.8801 4.41105H13.8802L13.8782 3.41105ZM9.19212 13.71L9.19406 14.71H9.19406L9.19212 13.71ZM13.7108 9.17464L14.7108 9.1727V9.1727L13.7108 9.17464ZM9.1747 4.65646L9.17276 3.65646H9.17275L9.1747 4.65646ZM9.17783 6.24498L9.17959 7.24498L9.17977 7.24498L9.17783 6.24498ZM12.1223 9.17778L11.1223 9.17972V9.17973L12.1223 9.17778ZM9.18898 12.122L9.19091 13.122H9.19092L9.18898 12.122ZM5.48523 -0.570665C4.45225 -0.521909 3.7025 -0.352875 3.02888 -0.0889256L3.75854 1.77322C4.2047 1.5984 4.73639 1.46691 5.57952 1.42711L5.48523 -0.570665ZM3.0305 -0.0895566C2.33027 0.183418 1.71897 0.560101 1.12553 1.15598L2.54264 2.56729C2.92669 2.18166 3.29798 1.95277 3.75693 1.77385L3.0305 -0.0895566ZM1.12574 1.15577C0.53162 1.75199 0.157917 2.36428 -0.112721 3.0645L1.75279 3.78552C1.93062 3.32542 2.15794 2.95335 2.54244 2.56749L1.12574 1.15577ZM-0.112636 3.06429C-0.373816 3.73957 -0.539049 4.48934 -0.584631 5.52188L1.41342 5.61009C1.45071 4.76532 1.5797 4.23305 1.75271 3.78574L-0.112636 3.06429ZM-0.584649 5.5223C-0.62677 6.48559 -0.636164 6.80345 -0.63157 9.20229L1.36843 9.19846C1.36385 6.80915 1.37332 6.52714 1.41344 5.60967L-0.584649 5.5223ZM-0.63157 9.20228C-0.626994 11.6008 -0.616405 11.9193 -0.570469 12.8829L1.42726 12.7877C1.38352 11.87 1.37298 11.5875 1.36843 9.19846L-0.63157 9.20228ZM-0.570462 12.8831C-0.521123 13.915 -0.352823 14.6643 -0.0888143 15.3384L1.77346 14.609C1.5987 14.1628 1.46759 13.6312 1.42726 12.7875L-0.570462 12.8831ZM-0.0892293 15.3373C0.183941 16.0372 0.5602 16.6481 1.1564 17.2419L2.56774 15.8248C2.18187 15.4405 1.95316 15.0694 1.77387 14.6101L-0.0892293 15.3373ZM1.1562 17.2417C1.7525 17.8359 2.36514 18.2091 3.06494 18.4798L3.78649 16.6145C3.3254 16.4361 2.95315 16.2089 2.56794 15.825L1.1562 17.2417ZM3.06507 18.4799C3.73935 18.7406 4.48938 18.9065 5.52231 18.9518L5.60987 16.9537C4.76609 16.9168 4.23351 16.7873 3.78636 16.6144L3.06507 18.4799ZM5.52207 18.9518C6.48567 18.9943 6.80409 19.0033 9.20203 18.9988L9.19821 16.9988C6.80921 17.0033 6.52721 16.9942 5.61011 16.9537L5.52207 18.9518ZM9.20204 18.9988C11.6014 18.9942 11.9195 18.9836 12.8826 18.9379L12.788 16.9402C11.8704 16.9837 11.588 16.9942 9.19821 16.9988L9.20204 18.9988ZM12.883 18.9379C13.9159 18.8885 14.6644 18.7195 15.3376 18.4567L14.6103 16.5936C14.1626 16.7684 13.6308 16.8999 12.7876 16.9402L12.883 18.9379ZM15.3384 18.4564C16.0369 18.183 16.6483 17.8077 17.2423 17.2108L15.8248 15.7999C15.4414 16.1851 15.0701 16.4137 14.6095 16.5939L15.3384 18.4564ZM17.2421 17.211C17.8357 16.615 18.2093 16.0024 18.4799 15.3021L16.6143 14.5813C16.4364 15.0419 16.209 15.4142 15.825 15.7997L17.2421 17.211ZM18.4797 15.3027C18.7408 14.6282 18.9068 13.8779 18.9517 12.8454L16.9536 12.7584C16.9169 13.6014 16.7876 14.1338 16.6145 14.5807L18.4797 15.3027ZM18.9517 12.8455C18.9939 11.8818 19.0036 11.5635 18.999 9.16474L16.999 9.16857C17.0035 11.5573 16.9938 11.84 16.9536 12.7582L18.9517 12.8455ZM18.999 9.16475C18.9944 6.76569 18.9835 6.44801 18.9379 5.48523L16.9401 5.57991C16.9836 6.49733 16.9944 6.77952 16.999 9.16856L18.999 9.16475ZM18.9379 5.48514C18.8888 4.45159 18.7198 3.70283 18.4564 3.02922L16.5937 3.75743C16.7686 4.20473 16.9001 4.73627 16.9401 5.58001L18.9379 5.48514ZM18.4565 3.02932C18.1831 2.32988 17.8074 1.71947 17.2117 1.12553L15.7995 2.5418C16.1854 2.92651 16.414 3.29761 16.5937 3.75733L18.4565 3.02932ZM17.2113 1.12512C16.6156 0.531899 16.003 0.157352 15.3015 -0.112958L14.5824 1.75328C15.0418 1.93031 15.4141 2.15792 15.7999 2.54221L17.2113 1.12512ZM15.3028 -0.112449C14.6283 -0.373456 13.8784 -0.539855 12.8447 -0.584528L12.7584 1.41361C13.6015 1.45004 14.1335 1.57959 14.5811 1.75277L15.3028 -0.112449ZM12.8459 -0.584478C11.8821 -0.627236 11.5635 -0.636319 9.16478 -0.631744L9.1686 1.36825C11.5585 1.36369 11.8403 1.37288 12.7572 1.41356L12.8459 -0.584478ZM9.16477 -0.631744C6.76658 -0.627151 6.44813 -0.61685 5.48445 -0.570611L5.5803 1.42709C6.49738 1.38309 6.77933 1.37283 9.1686 1.36825L9.16477 -0.631744ZM5.67874 15.3669C4.92996 15.3343 4.56962 15.2146 4.35693 15.1327L3.63882 16.9994C4.04828 17.1569 4.62145 17.3228 5.59171 17.365L5.67874 15.3669ZM4.35878 15.1334C4.07518 15.0237 3.89831 14.9083 3.68715 14.6987L2.27821 16.1182C2.68578 16.5228 3.09678 16.7896 3.63697 16.9986L4.35878 15.1334ZM3.68914 14.7007C3.47908 14.491 3.36354 14.3152 3.25266 14.0317L1.39014 14.7605C1.60091 15.2992 1.86871 15.7095 2.27622 16.1162L3.68914 14.7007ZM3.25354 14.034C3.17039 13.8199 3.04884 13.46 3.01381 12.7125L1.01601 12.8061C1.06153 13.7777 1.23074 14.3501 1.38926 14.7582L3.25354 14.034ZM3.0138 12.7123C2.97114 11.8058 2.96119 11.5447 2.9569 9.19539L0.956901 9.19904C0.961212 11.5579 0.97122 11.8544 1.01602 12.8063L3.0138 12.7123ZM2.9569 9.19528C2.95236 6.8462 2.96096 6.58545 3.00052 5.67842L1.00242 5.59126C0.960846 6.5444 0.952343 6.84126 0.956901 9.19915L2.9569 9.19528ZM3.00056 5.6777C3.0326 4.93078 3.15287 4.56991 3.2349 4.35637L1.36791 3.63917C1.21116 4.04723 1.04405 4.62098 1.00239 5.59198L3.00056 5.6777ZM3.23418 4.35822C3.344 4.07403 3.45864 3.89825 3.66803 3.6877L2.2499 2.27741C1.84398 2.68559 1.5776 3.09652 1.36863 3.63733L3.23418 4.35822ZM3.66738 3.68835C3.87616 3.47879 4.05147 3.36376 4.3357 3.25264L3.60751 1.38992C3.06903 1.60042 2.6582 1.8676 2.25054 2.27676L3.66738 3.68835ZM4.33551 3.25272C4.54672 3.1702 4.90614 3.04925 5.65526 3.01364L5.56032 1.0159C4.591 1.06197 4.01803 1.22953 3.6077 1.38984L4.33551 3.25272ZM5.65505 3.01365C6.56182 2.97075 6.82227 2.96133 9.17149 2.95678L9.16761 0.95678C6.8099 0.961355 6.51336 0.970806 5.56053 1.01589L5.65505 3.01365ZM9.17149 2.95678C11.5214 2.9522 11.7819 2.96054 12.6886 3.00037L12.7764 1.0023C11.8229 0.960418 11.5258 0.952188 9.1676 0.95678L9.17149 2.95678ZM12.6889 3.00039C13.4382 3.03303 13.7983 3.15254 14.0081 3.23378L14.7304 1.36876C14.3191 1.20948 13.7446 1.04448 12.776 1.00228L12.6889 3.00039ZM14.0085 3.23395C14.2937 3.34425 14.4694 3.45862 14.6783 3.66694L16.0905 2.25075C15.6813 1.84262 15.2691 1.57709 14.7299 1.36858L14.0085 3.23395ZM14.6783 3.66692C14.8886 3.87668 15.0038 4.0517 15.1144 4.33526L16.9776 3.60827C16.7666 3.06747 16.4984 2.65744 16.0906 2.25077L14.6783 3.66692ZM15.1149 4.33644C15.1969 4.54599 15.3179 4.90558 15.3533 5.65458L17.3511 5.56026C17.3053 4.59135 17.1378 4.0174 16.9771 3.60709L15.1149 4.33644ZM15.3533 5.65497C15.3965 6.56179 15.4065 6.82259 15.4107 9.17133L17.4107 9.1677C17.4065 6.80944 17.3964 6.51266 17.3511 5.55988L15.3533 5.65497ZM15.4107 9.17146C15.4153 11.5211 15.4067 11.7817 15.3669 12.688L17.365 12.7758C17.4068 11.823 17.4153 11.526 17.4107 9.16757L15.4107 9.17146ZM15.3669 12.6884C15.3342 13.4376 15.2146 13.798 15.1329 14.0103L16.9991 14.7294C17.1573 14.3189 17.3228 13.7452 17.365 12.7754L15.3669 12.6884ZM15.1335 14.0087C15.0235 14.2928 14.9086 14.4691 14.6994 14.6793L16.1169 16.0902C16.5235 15.6817 16.7897 15.2701 16.9985 14.7309L15.1335 14.0087ZM14.7006 14.678C14.4907 14.8882 14.3147 15.004 14.0316 15.1146L14.7594 16.9775C15.2996 16.7664 15.7097 16.4978 16.1156 16.0915L14.7006 14.678ZM14.0318 15.1145C13.8208 15.1969 13.4607 15.3181 12.7124 15.3537L12.8074 17.3514C13.7764 17.3053 14.3498 17.1374 14.7592 16.9775L14.0318 15.1145ZM12.7129 15.3536C11.8058 15.3963 11.545 15.4063 9.19545 15.4105L9.19908 17.4105C11.5582 17.4062 11.8544 17.3962 12.8068 17.3514L12.7129 15.3536ZM9.19532 15.4105C6.84658 15.4151 6.58584 15.4062 5.67849 15.3669L5.59197 17.365C6.54475 17.4063 6.84103 17.4151 9.19921 17.4105L9.19532 15.4105ZM11.8224 4.47275C11.8246 5.60911 12.7482 6.5285 13.8841 6.52631L13.8803 4.52631C13.8485 4.52637 13.8225 4.50028 13.8224 4.46889L11.8224 4.47275ZM13.8841 6.52631C15.0204 6.52408 15.9399 5.60134 15.9382 4.46535L13.9382 4.46825C13.9383 4.50004 13.9123 4.52625 13.8802 4.52631L13.8841 6.52631ZM15.9382 4.46484C15.936 3.32869 15.0127 2.40882 13.8762 2.41105L13.8802 4.41105C13.912 4.41098 13.9382 4.43718 13.9382 4.46876L15.9382 4.46484ZM13.8763 2.41105C12.7398 2.41324 11.8202 3.33663 11.8224 4.47277L13.8224 4.46884C13.8224 4.43724 13.8483 4.41111 13.8801 4.41105L13.8763 2.41105ZM3.65688 9.19401C3.6628 12.2466 6.14209 14.7159 9.19406 14.71L9.19018 12.71C7.24273 12.7137 5.66065 11.1381 5.65688 9.19013L3.65688 9.19401ZM9.19406 14.71C12.246 14.704 14.7167 12.2256 14.7108 9.1727L12.7108 9.17658C12.7146 11.1243 11.1382 12.7062 9.19017 12.71L9.19406 14.71ZM14.7108 9.1727C14.7049 6.12098 12.2253 3.65054 9.17276 3.65646L9.17663 5.65646C11.1246 5.65268 12.707 7.22939 12.7108 9.17659L14.7108 9.1727ZM9.17275 3.65646C6.12069 3.6624 3.65094 6.14203 3.65688 9.19401L5.65688 9.19012C5.65309 7.24261 7.22924 5.66025 9.17664 5.65646L9.17275 3.65646ZM7.24478 9.18717C7.2429 8.11647 8.10957 7.24686 9.17959 7.24498L9.17607 5.24498C7.00113 5.24881 5.24096 7.01578 5.24479 9.19069L7.24478 9.18717ZM9.17977 7.24498C10.2505 7.24291 11.1202 8.10912 11.1223 9.17972L13.1223 9.17585C13.1181 7.00028 11.3508 5.24078 9.1759 5.24498L9.17977 7.24498ZM11.1223 9.17973C11.1244 10.2503 10.258 11.1199 9.18703 11.122L9.19092 13.122C11.366 13.1178 13.1265 11.3514 13.1223 9.17584L11.1223 9.17973ZM9.18704 11.122C8.11682 11.1241 7.24685 10.2578 7.24478 9.18699L5.24479 9.19086C5.24899 11.3662 7.01616 13.1262 9.19091 13.122L9.18704 11.122Z" fill="#FFBB00" mask="url(#path-1-inside-1_2132_2231)"/>
</svg>
