<svg width="32" height="41" viewBox="0 0 32 41" fill="none" xmlns="http://www.w3.org/2000/svg">
<path d="M16.7215 8.07461H14.0943C13.6714 8.07461 13.3285 8.41741 13.3285 8.84036C13.3285 9.26329 13.6713 9.6061 14.0943 9.6061H16.7215C17.1443 9.6061 17.4872 9.2633 17.4872 8.84036C17.4872 8.41742 17.1444 8.07461 16.7215 8.07461Z" fill="white" stroke="white" stroke-width="0.3"/>
<path d="M11.4665 8.07461H7.5259C7.10306 8.07461 6.76016 8.41741 6.76016 8.84036C6.76016 9.26329 7.10297 9.6061 7.5259 9.6061H11.4665C11.8894 9.6061 12.2323 9.2633 12.2323 8.84036C12.2323 8.41741 11.8894 8.07461 11.4665 8.07461Z" fill="white" stroke="white" stroke-width="0.3"/>
<path d="M16.7224 5.44741H15.4087C14.9859 5.44741 14.643 5.79021 14.643 6.21316C14.643 6.6361 14.9858 6.97891 15.4087 6.97891H16.7224C17.1452 6.97891 17.4881 6.63611 17.4881 6.21316C17.4881 5.79022 17.1453 5.44741 16.7224 5.44741Z" fill="white" stroke="white" stroke-width="0.3"/>
<path d="M12.7804 5.44741H11.4673C11.0445 5.44741 10.7016 5.79021 10.7016 6.21316C10.7016 6.6361 11.0444 6.97891 11.4673 6.97891H12.7804C13.2033 6.97891 13.5462 6.63611 13.5462 6.21316C13.5462 5.79022 13.2034 5.44741 12.7804 5.44741Z" fill="white" stroke="white" stroke-width="0.3"/>
<path d="M8.84146 5.44741H7.52786C7.10501 5.44741 6.76211 5.79021 6.76211 6.21316C6.76211 6.6361 7.10492 6.97891 7.52786 6.97891H8.84146C9.2643 6.97891 9.6072 6.63611 9.6072 6.21316C9.6072 5.79021 9.2643 5.44741 8.84146 5.44741Z" fill="white" stroke="white" stroke-width="0.3"/>
<path d="M15.9979 0.896121L15.9979 0.896129L17.5424 1.45775L19.0868 0.896234L19.0869 0.896202L19.1382 1.03717C19.3269 0.968434 19.5373 0.99616 19.7018 1.11144C19.8664 1.22673 19.9643 1.4149 19.9643 1.61575L15.9979 0.896121ZM15.9979 0.896121C15.8289 0.834704 15.6436 0.834704 15.4746 0.896121L15.4746 0.896129L13.9302 1.45775L12.3857 0.896129L12.3857 0.896121C12.2167 0.834704 12.0314 0.834704 11.8624 0.896121L11.8624 0.896129L10.3179 1.45775L8.77349 0.896129L8.77347 0.896121C8.6045 0.834704 8.41914 0.834704 8.25017 0.896121L8.25015 0.896129L6.7057 1.45775L5.16123 0.896145C5.16121 0.896139 5.1612 0.896134 5.16118 0.896128C4.92654 0.810733 4.66486 0.845249 4.46023 0.988481L4.46017 0.988526C4.25559 1.13188 4.13381 1.36598 4.13381 1.61567V6.10582C2.3131 6.16355 0.85 7.66248 0.85 9.49688V37.0813C0.85 38.9523 2.37193 40.4741 4.24279 40.4741H20.0054C21.6133 40.4741 22.9621 39.3501 23.3103 37.847H29.8569C30.6415 37.847 31.2794 37.209 31.2794 36.4245V19.3484C31.2794 18.5641 30.6414 17.9261 29.8569 17.9261H23.3981V9.49704C23.3981 7.66255 21.9349 6.1637 20.1143 6.10597L15.9979 0.896121ZM17.8039 2.99213L18.5826 2.70901V10.7016H5.66522V2.709L6.44393 2.99213L6.44394 2.99214C6.61291 3.05355 6.79827 3.05355 6.96724 2.99214L6.96726 2.99213L8.5117 2.43051L10.0561 2.99213L10.0562 2.99214C10.2251 3.05355 10.4105 3.05355 10.5795 2.99214L10.5795 2.99213L12.1239 2.43051L13.6684 2.99213L13.6684 2.99214C13.8374 3.05355 14.0227 3.05355 14.1917 2.99214L14.1917 2.99213L15.7362 2.43051L17.2806 2.99213L17.2806 2.99214C17.4496 3.05355 17.6349 3.05355 17.8039 2.99214L17.7527 2.85116L17.8039 2.99213ZM21.8667 37.0815C21.8667 38.1077 21.0315 38.9428 20.0053 38.9428H4.24272C3.21649 38.9428 2.38134 38.1077 2.38134 37.0815V9.49704C2.38134 8.50739 3.15801 7.69545 4.13373 7.63882V10.7093C3.76249 10.7623 3.47697 11.0815 3.47697 11.4674C3.47697 11.8903 3.81978 12.2331 4.24272 12.2331H20.0053C20.4281 12.2331 20.771 11.8903 20.771 11.4674C20.771 11.0815 20.4856 10.7622 20.1143 10.7093V7.63882C21.09 7.69545 21.8667 8.50739 21.8667 9.49704V37.0815ZM24.4937 36.3157H23.3981V19.4576H24.4937V36.3157ZM29.748 19.4576V36.3157H28.6523V23.9459C28.6523 23.523 28.3095 23.1802 27.8866 23.1802C27.4637 23.1802 27.1208 23.5229 27.1208 23.9459V36.3157H26.0252V19.4576H27.1208V21.3187C27.1208 21.7416 27.4636 22.0845 27.8866 22.0845C28.3094 22.0845 28.6523 21.7417 28.6523 21.3187V19.4576H29.748Z" fill="white" stroke="white" stroke-width="0.3"/>
<path d="M11.7965 25.8076H12.4532C12.7551 25.8076 13.001 25.5617 13.0011 25.2597L11.7965 25.8076ZM11.7965 25.8076C11.4945 25.8076 11.2486 25.5617 11.2486 25.2597M11.7965 25.8076L11.2486 25.2597M11.2486 25.2597C11.2486 24.9578 11.4945 24.7119 11.7965 24.7119M11.2486 25.2597L11.7965 24.7119M11.7965 24.7119H12.4532M11.7965 24.7119H12.4532M12.4532 24.7119C12.7552 24.7119 13.0011 24.9577 13.0011 25.2597L12.4532 24.7119ZM12.4532 23.1804H11.7965C10.6498 23.1804 9.71719 24.113 9.71719 25.2597C9.71719 26.4064 10.6498 27.339 11.7965 27.339H12.4532C13.5999 27.339 14.5325 26.4064 14.5325 25.2597C14.5325 24.1131 13.5999 23.1804 12.4532 23.1804Z" fill="white" stroke="white" stroke-width="0.3"/>
<path d="M11.7965 31.0615H12.4532C12.7551 31.0615 13.001 30.8156 13.0011 30.5136L11.7965 31.0615ZM11.7965 31.0615C11.4945 31.0615 11.2486 30.8156 11.2486 30.5136M11.7965 31.0615L11.2486 30.5136M11.2486 30.5136C11.2486 30.2117 11.4945 29.9658 11.7965 29.9658M11.2486 30.5136L11.7965 29.9658M11.7965 29.9658H12.4532M11.7965 29.9658H12.4532M12.4532 29.9658C12.7552 29.9658 13.0011 30.2117 13.0011 30.5136L12.4532 29.9658ZM12.4532 28.4344H11.7965C10.6498 28.4344 9.71719 29.3669 9.71719 30.5136C9.71719 31.6603 10.6498 32.5929 11.7965 32.5929H12.4532C13.5999 32.5929 14.5325 31.6603 14.5325 30.5136C14.5325 29.367 13.5999 28.4344 12.4532 28.4344Z" fill="white" stroke="white" stroke-width="0.3"/>
<path d="M11.7965 36.3159H12.4532C12.7551 36.3159 13.001 36.0701 13.0011 35.7681L11.7965 36.3159ZM11.7965 36.3159C11.4945 36.3159 11.2486 36.07 11.2486 35.7681M11.7965 36.3159L11.2486 35.7681M11.2486 35.7681C11.2486 35.4661 11.4945 35.2202 11.7965 35.2202M11.2486 35.7681L11.7965 35.2202M11.7965 35.2202H12.4532M11.7965 35.2202H12.4532M12.4532 35.2202C12.7552 35.2202 13.0011 35.4661 13.0011 35.768L12.4532 35.2202ZM12.4532 33.6889H11.7965C10.6498 33.6889 9.71719 34.6215 9.71719 35.7681C9.71719 36.9148 10.6498 37.8474 11.7965 37.8474H12.4532C13.5999 37.8474 14.5325 36.9148 14.5325 35.7681C14.5325 34.6215 13.5999 33.6889 12.4532 33.6889Z" fill="white" stroke="white" stroke-width="0.3"/>
<path d="M18.3634 23.1804H17.7066C16.5599 23.1804 15.6273 24.113 15.6273 25.2597C15.6273 26.4064 16.5599 27.339 17.7066 27.339H18.3634C19.51 27.339 20.4426 26.4064 20.4426 25.2597C20.4426 24.1131 19.51 23.1804 18.3634 23.1804ZM18.3634 25.8076H17.7066C17.4047 25.8076 17.1588 25.5617 17.1588 25.2597C17.1588 24.9578 17.4047 24.7119 17.7066 24.7119H18.3634C18.6653 24.7119 18.9112 24.9578 18.9112 25.2597C18.9112 25.5617 18.6653 25.8076 18.3634 25.8076Z" fill="white" stroke="white" stroke-width="0.3"/>
<path d="M18.3634 28.4344H17.7066C16.5599 28.4344 15.6273 29.3669 15.6273 30.5136C15.6273 31.6603 16.5599 32.5929 17.7066 32.5929H18.3634C19.51 32.5929 20.4426 31.6603 20.4426 30.5136C20.4426 29.367 19.51 28.4344 18.3634 28.4344ZM18.3634 31.0615H17.7066C17.4047 31.0615 17.1588 30.8156 17.1588 30.5136C17.1588 30.2117 17.4047 29.9658 17.7066 29.9658H18.3634C18.6653 29.9658 18.9112 30.2117 18.9112 30.5136C18.9112 30.8156 18.6653 31.0615 18.3634 31.0615Z" fill="white" stroke="white" stroke-width="0.3"/>
<path d="M18.3634 33.6889H17.7066C16.5599 33.6889 15.6273 34.6215 15.6273 35.7681C15.6273 36.9148 16.5599 37.8474 17.7066 37.8474H18.3634C19.51 37.8474 20.4426 36.9148 20.4426 35.7681C20.4426 34.6215 19.51 33.6889 18.3634 33.6889ZM18.3634 36.3159H17.7066C17.4047 36.3159 17.1588 36.07 17.1588 35.7681C17.1588 35.4661 17.4047 35.2202 17.7066 35.2202H18.3634C18.6653 35.2202 18.9112 35.4661 18.9112 35.7681C18.9112 36.0701 18.6653 36.3159 18.3634 36.3159Z" fill="white" stroke="white" stroke-width="0.3"/>
<path d="M6.54111 23.1804H5.88435C4.73768 23.1804 3.80508 24.113 3.80508 25.2597C3.80508 26.4064 4.73768 27.339 5.88435 27.339H6.54111C7.68778 27.339 8.62038 26.4064 8.62038 25.2597C8.62038 24.1131 7.68778 23.1804 6.54111 23.1804ZM6.54111 25.8076H5.88435C5.5824 25.8076 5.3365 25.5617 5.3365 25.2597C5.3365 24.9578 5.5824 24.7119 5.88435 24.7119H6.54111C6.84306 24.7119 7.08896 24.9578 7.08896 25.2597C7.08896 25.5617 6.84306 25.8076 6.54111 25.8076Z" fill="white" stroke="white" stroke-width="0.3"/>
<path d="M6.54111 28.4344H5.88435C4.73768 28.4344 3.80508 29.3669 3.80508 30.5136C3.80508 31.6603 4.73768 32.5929 5.88435 32.5929H6.54111C7.68778 32.5929 8.62038 31.6603 8.62038 30.5136C8.62038 29.367 7.68778 28.4344 6.54111 28.4344ZM6.54111 31.0615H5.88435C5.5824 31.0615 5.3365 30.8156 5.3365 30.5136C5.3365 30.2117 5.5824 29.9658 5.88435 29.9658H6.54111C6.84306 29.9658 7.08896 30.2117 7.08896 30.5136C7.08896 30.8156 6.84306 31.0615 6.54111 31.0615Z" fill="white" stroke="white" stroke-width="0.3"/>
<path d="M6.54111 33.6889H5.88435C4.73768 33.6889 3.80508 34.6215 3.80508 35.7681C3.80508 36.9148 4.73768 37.8474 5.88435 37.8474H6.54111C7.68778 37.8474 8.62038 36.9148 8.62038 35.7681C8.62038 34.6215 7.68778 33.6889 6.54111 33.6889ZM6.54111 36.3159H5.88435C5.5824 36.3159 5.3365 36.07 5.3365 35.7681C5.3365 35.4661 5.5824 35.2202 5.88435 35.2202H6.54111C6.84306 35.2202 7.08896 35.4661 7.08896 35.7681C7.08896 36.0701 6.84307 36.3159 6.54111 36.3159Z" fill="white" stroke="white" stroke-width="0.3"/>
<path d="M19.3484 13.3285H4.89946C4.11493 13.3285 3.47695 13.9665 3.47695 14.751V20.662C3.47695 21.4465 4.11493 22.0845 4.89946 22.0845H19.3484C20.133 22.0845 20.7709 21.4465 20.7709 20.662V14.751C20.7709 13.9665 20.133 13.3285 19.3484 13.3285ZM19.2395 14.86V20.553H5.00845V14.86H19.2395Z" fill="white" stroke="white" stroke-width="0.3"/>
</svg>
