<svg width="33" height="43" viewBox="0 0 33 43" fill="none" xmlns="http://www.w3.org/2000/svg">
<path d="M17.3914 8.53247H14.6522C14.2977 8.53247 14.0103 8.81987 14.0103 9.17446C14.0103 9.52905 14.2977 9.81645 14.6522 9.81645H17.3914C17.7459 9.81645 18.0334 9.52905 18.0334 9.17446C18.0334 8.81987 17.746 8.53247 17.3914 8.53247Z" fill="#DE9F29" stroke="#DE9F29" stroke-width="0.3"/>
<path d="M11.9132 8.53247H7.80459C7.45008 8.53247 7.1626 8.81987 7.1626 9.17446C7.1626 9.52905 7.45 9.81645 7.80459 9.81645H11.9132C12.2677 9.81645 12.5552 9.52905 12.5552 9.17446C12.5552 8.81987 12.2677 8.53247 11.9132 8.53247Z" fill="#DE9F29" stroke="#DE9F29" stroke-width="0.3"/>
<path d="M17.3915 5.79321H16.0219C15.6674 5.79321 15.3799 6.08061 15.3799 6.4352C15.3799 6.78979 15.6673 7.07719 16.0219 7.07719H17.3915C17.746 7.07719 18.0335 6.78979 18.0335 6.4352C18.0335 6.08061 17.7461 5.79321 17.3915 5.79321Z" fill="#DE9F29" stroke="#DE9F29" stroke-width="0.3"/>
<path d="M13.2826 5.79321H11.9135C11.559 5.79321 11.2715 6.08061 11.2715 6.4352C11.2715 6.78979 11.5589 7.07719 11.9135 7.07719H13.2826C13.6371 7.07719 13.9246 6.78979 13.9246 6.4352C13.9246 6.08061 13.6372 5.79321 13.2826 5.79321Z" fill="#DE9F29" stroke="#DE9F29" stroke-width="0.3"/>
<path d="M9.17417 5.79321H7.80459C7.45008 5.79321 7.1626 6.08061 7.1626 6.4352C7.1626 6.78979 7.45 7.07719 7.80459 7.07719H9.17417C9.52868 7.07719 9.81616 6.78979 9.81616 6.4352C9.81616 6.08061 9.52868 5.79321 9.17417 5.79321Z" fill="#DE9F29" stroke="#DE9F29" stroke-width="0.3"/>
<path d="M31.0867 18.8038H24.1962V9.85916C24.1962 7.99485 22.6795 6.47817 20.8152 6.47817H20.7725V1.64199C20.7725 1.43258 20.6704 1.23639 20.4989 1.11619C20.3273 0.995997 20.1079 0.967088 19.9112 1.03876L18.2474 1.64367L16.5837 1.03868C16.442 0.987188 16.2866 0.987188 16.1449 1.03868L14.4812 1.64367L12.8175 1.03868C12.6758 0.987188 12.5204 0.987188 12.3787 1.03868L10.715 1.64367L9.05133 1.03868C8.90967 0.987188 8.75424 0.987188 8.61258 1.03868L6.94887 1.64367L5.28508 1.03868C5.0884 0.967088 4.86899 0.995997 4.69738 1.11611C4.52585 1.23631 4.42375 1.43258 4.42375 1.64191V6.47801H4.38099C2.51669 6.47801 1 7.99477 1 9.859V38.619C1 40.4833 2.51677 42 4.38099 42H20.8153C22.4601 42 23.8336 40.8192 24.1344 39.2609H31.0868C31.8183 39.2609 32.4135 38.6658 32.4135 37.9342V20.1303C32.4134 19.399 31.8183 18.8038 31.0867 18.8038ZM5.70765 2.55857L6.72937 2.93005C6.87103 2.98154 7.02646 2.98154 7.16812 2.93005L8.83183 2.32506L10.4955 2.93005C10.6372 2.98154 10.7926 2.98154 10.9343 2.93005L12.598 2.32506L14.2617 2.93005C14.4034 2.98154 14.5588 2.98154 14.7005 2.93005L16.3642 2.32506L18.0279 2.93005C18.1695 2.98154 18.325 2.98154 18.4666 2.93005L19.4883 2.55857V11.2715H5.70765V2.55857ZM22.9123 38.6192C22.9123 39.7755 21.9716 40.7163 20.8152 40.7163H4.38091C3.22458 40.7163 2.28382 39.7755 2.28382 38.6192V9.85916C2.28382 8.70283 3.22458 7.76206 4.38091 7.76206H4.42367V11.2715H4.38091C4.0264 11.2715 3.73892 11.5589 3.73892 11.9135C3.73892 12.2681 4.02632 12.5555 4.38091 12.5555H20.8152C21.1698 12.5555 21.4572 12.2681 21.4572 11.9135C21.4572 11.5589 21.1698 11.2715 20.8152 11.2715H20.7725V7.76206H20.8152C21.9716 7.76206 22.9123 8.70283 22.9123 9.85916V38.6192ZM25.6513 37.9772H24.1962V20.0878H25.6513V37.9772ZM31.1295 37.9344C31.1295 37.958 31.1104 37.9772 31.0868 37.9772H29.6744V24.9238C29.6744 24.5692 29.387 24.2818 29.0324 24.2818C28.6779 24.2818 28.3904 24.5692 28.3904 24.9238V37.9772H26.9353V20.0878H28.3904V22.1847C28.3904 22.5392 28.6778 22.8267 29.0324 22.8267C29.3869 22.8267 29.6744 22.5393 29.6744 22.1847V20.0878H31.0868C31.1104 20.0878 31.1295 20.107 31.1295 20.1306V37.9344Z" fill="#DE9F29" stroke="#DE9F29" stroke-width="0.3"/>
<path d="M12.9404 24.282H12.2556C11.1465 24.282 10.2441 25.1843 10.2441 26.2935C10.2441 27.4026 11.1465 28.305 12.2556 28.305H12.9404C14.0495 28.305 14.9519 27.4026 14.9519 26.2935C14.9519 25.1844 14.0495 24.282 12.9404 24.282ZM12.9404 27.0211H12.2556C11.8544 27.0211 11.528 26.6947 11.528 26.2935C11.528 25.8923 11.8544 25.5659 12.2556 25.5659H12.9404C13.3416 25.5659 13.668 25.8923 13.668 26.2935C13.6679 26.6947 13.3416 27.0211 12.9404 27.0211Z" fill="#DE9F29" stroke="#DE9F29" stroke-width="0.3"/>
<path d="M12.9404 29.76H12.2556C11.1465 29.76 10.2441 30.6623 10.2441 31.7715C10.2441 32.8807 11.1465 33.783 12.2556 33.783H12.9404C14.0495 33.783 14.9519 32.8807 14.9519 31.7715C14.9519 30.6624 14.0495 29.76 12.9404 29.76ZM12.9404 32.4991H12.2556C11.8544 32.4991 11.528 32.1727 11.528 31.7715C11.528 31.3703 11.8544 31.0439 12.2556 31.0439H12.9404C13.3416 31.0439 13.668 31.3703 13.668 31.7715C13.6679 32.1727 13.3416 32.4991 12.9404 32.4991Z" fill="#DE9F29" stroke="#DE9F29" stroke-width="0.3"/>
<path d="M12.9404 35.238H12.2556C11.1465 35.238 10.2441 36.1404 10.2441 37.2495C10.2441 38.3587 11.1465 39.261 12.2556 39.261H12.9404C14.0495 39.261 14.9519 38.3587 14.9519 37.2495C14.9519 36.1404 14.0495 35.238 12.9404 35.238ZM12.9404 37.977H12.2556C11.8544 37.977 11.528 37.6506 11.528 37.2494C11.528 36.8483 11.8544 36.5219 12.2556 36.5219H12.9404C13.3416 36.5219 13.668 36.8483 13.668 37.2494C13.6679 37.6507 13.3416 37.977 12.9404 37.977Z" fill="#DE9F29" stroke="#DE9F29" stroke-width="0.3"/>
<path d="M19.1035 24.282H18.4187C17.3095 24.282 16.4072 25.1843 16.4072 26.2935C16.4072 27.4026 17.3095 28.305 18.4187 28.305H19.1035C20.2126 28.305 21.115 27.4026 21.115 26.2935C21.115 25.1844 20.2126 24.282 19.1035 24.282ZM19.1035 27.0211H18.4187C18.0175 27.0211 17.6911 26.6947 17.6911 26.2935C17.6911 25.8923 18.0175 25.5659 18.4187 25.5659H19.1035C19.5047 25.5659 19.8311 25.8923 19.8311 26.2935C19.8311 26.6947 19.5047 27.0211 19.1035 27.0211Z" fill="#DE9F29" stroke="#DE9F29" stroke-width="0.3"/>
<path d="M19.1035 29.76H18.4187C17.3095 29.76 16.4072 30.6623 16.4072 31.7715C16.4072 32.8807 17.3095 33.783 18.4187 33.783H19.1035C20.2126 33.783 21.115 32.8807 21.115 31.7715C21.115 30.6624 20.2126 29.76 19.1035 29.76ZM19.1035 32.4991H18.4187C18.0175 32.4991 17.6911 32.1727 17.6911 31.7715C17.6911 31.3703 18.0175 31.0439 18.4187 31.0439H19.1035C19.5047 31.0439 19.8311 31.3703 19.8311 31.7715C19.8311 32.1727 19.5047 32.4991 19.1035 32.4991Z" fill="#DE9F29" stroke="#DE9F29" stroke-width="0.3"/>
<path d="M19.1035 35.238H18.4187C17.3095 35.238 16.4072 36.1404 16.4072 37.2495C16.4072 38.3587 17.3095 39.261 18.4187 39.261H19.1035C20.2126 39.261 21.115 38.3587 21.115 37.2495C21.115 36.1404 20.2126 35.238 19.1035 35.238ZM19.1035 37.977H18.4187C18.0175 37.977 17.6911 37.6506 17.6911 37.2494C17.6911 36.8483 18.0175 36.5219 18.4187 36.5219H19.1035C19.5047 36.5219 19.8311 36.8483 19.8311 37.2494C19.8311 37.6507 19.5047 37.977 19.1035 37.977Z" fill="#DE9F29" stroke="#DE9F29" stroke-width="0.3"/>
<path d="M6.7773 24.282H6.09255C4.98338 24.282 4.08105 25.1843 4.08105 26.2935C4.08105 27.4026 4.98338 28.305 6.09255 28.305H6.7773C7.88646 28.305 8.78879 27.4026 8.78879 26.2935C8.78879 25.1844 7.88646 24.282 6.7773 24.282ZM6.7773 27.0211H6.09255C5.69135 27.0211 5.36495 26.6947 5.36495 26.2935C5.36495 25.8923 5.69135 25.5659 6.09255 25.5659H6.7773C7.17849 25.5659 7.50489 25.8923 7.50489 26.2935C7.50489 26.6947 7.17849 27.0211 6.7773 27.0211Z" fill="#DE9F29" stroke="#DE9F29" stroke-width="0.3"/>
<path d="M6.7773 29.76H6.09255C4.98338 29.76 4.08105 30.6623 4.08105 31.7715C4.08105 32.8807 4.98338 33.783 6.09255 33.783H6.7773C7.88646 33.783 8.78879 32.8807 8.78879 31.7715C8.78879 30.6624 7.88646 29.76 6.7773 29.76ZM6.7773 32.4991H6.09255C5.69135 32.4991 5.36495 32.1727 5.36495 31.7715C5.36495 31.3703 5.69135 31.0439 6.09255 31.0439H6.7773C7.17849 31.0439 7.50489 31.3703 7.50489 31.7715C7.50489 32.1727 7.17849 32.4991 6.7773 32.4991Z" fill="#DE9F29" stroke="#DE9F29" stroke-width="0.3"/>
<path d="M6.7773 35.238H6.09255C4.98338 35.238 4.08105 36.1404 4.08105 37.2495C4.08105 38.3587 4.98338 39.261 6.09255 39.261H6.7773C7.88646 39.261 8.78879 38.3587 8.78879 37.2495C8.78879 36.1404 7.88646 35.238 6.7773 35.238ZM6.7773 37.977H6.09255C5.69135 37.977 5.36495 37.6506 5.36495 37.2494C5.36495 36.8483 5.69135 36.5219 6.09255 36.5219H6.7773C7.17849 36.5219 7.50489 36.8483 7.50489 37.2494C7.50489 37.6507 7.17849 37.977 6.7773 37.977Z" fill="#DE9F29" stroke="#DE9F29" stroke-width="0.3"/>
<path d="M20.1308 14.0105H5.066C4.3344 14.0105 3.73926 14.6056 3.73926 15.3372V21.5001C3.73926 22.2317 4.3344 22.8268 5.066 22.8268H20.1308C20.8624 22.8268 21.4575 22.2317 21.4575 21.5001V15.3372C21.4575 14.6056 20.8624 14.0105 20.1308 14.0105ZM20.1735 21.5001C20.1735 21.5236 20.1544 21.5428 20.1308 21.5428H5.066C5.04237 21.5428 5.02324 21.5236 5.02324 21.5001V15.3372C5.02324 15.3137 5.04237 15.2945 5.066 15.2945H20.1308C20.1544 15.2945 20.1735 15.3137 20.1735 15.3372V21.5001Z" fill="#DE9F29" stroke="#DE9F29" stroke-width="0.3"/>
</svg>
