<svg className="hidden tablet:block" width="38" height="38" viewBox="0 0 38 38" fill="none" xmlns="http://www.w3.org/2000/svg">
<path d="M14.9999 12V30.6822C15.0018 30.883 14.9533 31.081 14.8589 31.2579C14.7645 31.4348 14.6273 31.5848 14.46 31.6941L12.81 32.7966C12.6501 32.9041 12.467 32.9713 12.276 32.9926C12.0849 33.014 11.8916 32.9888 11.7123 32.9192C11.5329 32.8497 11.3728 32.7377 11.2454 32.5929C11.1179 32.448 11.0269 32.2744 10.98 32.0868L9 24.0823" stroke="white" stroke-width="3" stroke-linecap="round" stroke-linejoin="round"/>
<path d="M9.8 24.0651C8.26175 24.0651 6.78649 23.4261 5.69878 22.2887C4.61107 21.1512 4 19.6086 4 18C4 16.3914 4.61107 14.8488 5.69878 13.7113C6.78649 12.5739 8.26175 11.9349 9.8 11.9349H15.6C15.6 11.9349 23.5025 11.9349 31.1005 5.27848C31.2695 5.13224 31.4747 5.03911 31.6922 5.00989C31.9098 4.98066 32.1309 5.01655 32.3297 5.11337C32.5286 5.2102 32.6971 5.36401 32.8157 5.55694C32.9344 5.74987 32.9983 5.97403 33 6.20341V29.7966C32.9983 30.026 32.9344 30.2501 32.8157 30.4431C32.6971 30.636 32.5286 30.7898 32.3297 30.8866C32.1309 30.9835 31.9098 31.0193 31.6922 30.9901C31.4747 30.9609 31.2695 30.8678 31.1005 30.7215C23.5025 24.0651 15.6 24.0651 15.6 24.0651H9.8Z" stroke="white" stroke-width="3" stroke-linecap="round" stroke-linejoin="round"/>
</svg>

<svg className="block tablet:hidden" width="28" height="28" viewBox="0 0 28 28" fill="none" xmlns="http://www.w3.org/2000/svg">
<path d="M11.2002 9.09961V22.1772C11.2014 22.3177 11.1675 22.4563 11.1014 22.5801C11.0353 22.704 10.9393 22.809 10.8222 22.8855L9.66717 23.6572C9.55528 23.7325 9.42708 23.7795 9.29337 23.7945C9.15965 23.8094 9.02433 23.7918 8.89878 23.7431C8.77324 23.6944 8.66115 23.616 8.57194 23.5146C8.48274 23.4132 8.41903 23.2917 8.38618 23.1604L7.0002 17.5572" stroke="white" stroke-width="2" stroke-linecap="round" stroke-linejoin="round"/>
<path d="M7.55981 17.5458C6.48303 17.5458 5.45035 17.0985 4.68895 16.3023C3.92755 15.5061 3.49981 14.4262 3.49981 13.3002C3.49981 12.1742 3.92755 11.0943 4.68895 10.2981C5.45035 9.50193 6.48303 9.05464 7.55981 9.05464H11.6198C11.6198 9.05464 17.1516 9.05464 22.4702 4.39513C22.5885 4.29276 22.7321 4.22757 22.8844 4.20712C23.0367 4.18666 23.1914 4.21178 23.3306 4.27956C23.4698 4.34734 23.5878 4.455 23.6708 4.59005C23.7539 4.72511 23.7986 4.88202 23.7998 5.04258V21.5578C23.7986 21.7184 23.7539 21.8753 23.6708 22.0103C23.5878 22.1454 23.4698 22.2531 23.3306 22.3208C23.1914 22.3886 23.0367 22.4137 22.8844 22.3933C22.7321 22.3728 22.5885 22.3076 22.4702 22.2053C17.1516 17.5458 11.6198 17.5458 11.6198 17.5458H7.55981Z" stroke="white" stroke-width="2" stroke-linecap="round" stroke-linejoin="round"/>
</svg>
