<svg width="18" height="15" viewBox="0 0 18 15" fill="none" xmlns="http://www.w3.org/2000/svg">
<path d="M4.87135 6.05078H1.3265C1.14659 6.05078 1 6.19737 1 6.37728C1 6.55719 1.14659 6.70378 1.3265 6.70378H4.87135C5.05126 6.70378 5.19785 6.55719 5.19785 6.37728C5.19785 6.19737 5.05126 6.05078 4.87135 6.05078Z" fill="currentColor" stroke="currentColor" stroke-width="0.5"/>
<path d="M4.87208 7.97656H3.23959C3.05968 7.97656 2.91309 8.12315 2.91309 8.30306C2.91309 8.48297 3.05968 8.62956 3.23959 8.62956H4.87208C5.05199 8.62956 5.19858 8.48297 5.19858 8.30306C5.19858 8.12315 5.05199 7.97656 4.87208 7.97656Z" fill="currentColor" stroke="currentColor" stroke-width="0.5"/>
<path d="M4.87197 9.90234H2.18001C2.00011 9.90234 1.85352 10.0489 1.85352 10.2288C1.85352 10.4088 2.00011 10.5553 2.18001 10.5553H4.87197C5.05188 10.5553 5.19847 10.4088 5.19847 10.2288C5.19847 10.0489 5.05188 9.90234 4.87197 9.90234Z" fill="currentColor" stroke="currentColor" stroke-width="0.5"/>
<path d="M16.8518 5.89083C16.5853 5.32445 16.2321 4.81138 15.799 4.36494C15.5925 4.14505 15.3592 3.94516 15.1194 3.76525L15.5458 3.19887C15.6524 3.05228 15.6258 2.84572 15.4792 2.73911C15.3326 2.6325 15.126 2.65915 15.0194 2.80574L14.5663 3.40543C14.2665 3.22553 13.9466 3.07893 13.6201 2.959C13.3336 2.85905 13.0404 2.77909 12.7406 2.71912C12.5473 2.6858 12.3474 2.65915 12.1542 2.64582V1.653H12.8139C12.9938 1.653 13.1404 1.50641 13.1404 1.3265C13.1404 1.14659 12.9938 1 12.8139 1H10.8349C10.655 1 10.5084 1.14659 10.5084 1.3265C10.5084 1.50641 10.655 1.653 10.8349 1.653H11.4946V2.61917C10.7349 2.64582 9.982 2.82573 9.28902 3.14557C8.72264 3.4121 8.20957 3.75859 7.75647 4.1917C7.12346 4.79139 6.63705 5.54434 6.3372 6.36392C6.23059 6.65044 6.15063 6.95694 6.09066 7.26345C6.03069 7.56996 6.00404 7.87647 5.99071 8.18298C5.97072 9.06253 6.15729 9.94208 6.5371 10.7417C6.80363 11.3014 7.15012 11.8078 7.58323 12.2542C8.18958 12.8872 8.94253 13.3737 9.76211 13.6668C10.0486 13.7668 10.3418 13.8467 10.6417 13.9067C10.9415 13.96 11.2414 13.9933 11.5479 14C11.5945 14 11.6478 14 11.6945 14C12.5207 14 13.3469 13.8201 14.0932 13.4669C14.6529 13.2071 15.166 12.8606 15.6124 12.4341C16.2521 11.8278 16.7452 11.0748 17.045 10.2486C17.1517 9.96207 17.2316 9.65556 17.2849 9.35571C17.3449 9.0492 17.3782 8.73603 17.3849 8.42952C17.4115 7.55664 17.2249 6.67709 16.8518 5.89083ZM16.6452 9.22911C16.5919 9.50231 16.5253 9.76217 16.432 10.022C16.1655 10.7483 15.7324 11.4213 15.166 11.9544C14.7729 12.3275 14.3198 12.6407 13.82 12.8672C13.1204 13.1937 12.3341 13.3603 11.5745 13.3337C11.308 13.327 11.0415 13.3004 10.7749 13.2471C10.5084 13.2004 10.2485 13.1271 9.99532 13.0405C9.26903 12.7806 8.6027 12.3475 8.06964 11.7878C7.68984 11.3947 7.37667 10.9416 7.14345 10.4485C6.81029 9.74885 6.64371 8.96258 6.6637 8.18965C6.67036 7.91645 6.69701 7.64326 6.75032 7.37673C6.80363 7.10354 6.87692 6.83701 6.96354 6.5838C7.22341 5.85751 7.65652 5.19785 8.21624 4.66479C8.61603 4.28498 9.06913 3.97181 9.57554 3.7386C10.2352 3.43209 10.9682 3.27217 11.6945 3.27217C11.7344 3.27217 11.7811 3.27217 11.8211 3.27217C12.0876 3.27883 12.3541 3.30548 12.6206 3.35879C12.8872 3.40543 13.147 3.47873 13.4002 3.57201C14.1265 3.83188 14.7929 4.25833 15.3259 4.81804C15.7057 5.21784 16.0189 5.67094 16.2588 6.17068C16.5853 6.87032 16.7519 7.64326 16.7319 8.4162C16.7252 8.68273 16.6986 8.96258 16.6452 9.22911Z" fill="currentColor" stroke="currentColor" stroke-width="0.5"/>
<path d="M13.7327 6.02429L12.3268 7.29697C12.2535 7.25032 12.1802 7.21701 12.1002 7.18369C12.0403 7.1637 11.9803 7.14371 11.9203 7.13705C11.8537 7.12372 11.7937 7.11706 11.7338 7.11706C11.5539 7.1104 11.3673 7.15037 11.2007 7.23033C11.0808 7.28364 10.9742 7.35694 10.8809 7.45022C10.7476 7.57682 10.6477 7.73008 10.5877 7.90332C10.5677 7.96329 10.5477 8.02326 10.5344 8.08989C10.5211 8.15652 10.5144 8.21649 10.5144 8.28313C10.5077 8.4697 10.5477 8.64961 10.6277 8.81619C10.681 8.93613 10.7543 9.03607 10.8476 9.12936C10.9742 9.26262 11.1341 9.36257 11.3007 9.42254C11.3606 9.44253 11.4206 9.46252 11.4806 9.46919C11.5405 9.48251 11.6072 9.48917 11.6671 9.48917C11.6805 9.48917 11.6871 9.48917 11.7004 9.48917C11.8737 9.48917 12.0469 9.4492 12.2002 9.3759C12.3135 9.32259 12.4267 9.2493 12.52 9.16268C12.6533 9.03607 12.7532 8.87616 12.8199 8.70957C12.8399 8.64961 12.8599 8.58964 12.8732 8.523C12.8865 8.45637 12.8932 8.3964 12.8932 8.32977C12.8998 8.14986 12.8599 7.96329 12.7799 7.79671C12.7799 7.79005 12.7732 7.79005 12.7732 7.78338L14.1858 6.5107C14.3191 6.39076 14.3324 6.17754 14.2125 6.04427C14.0792 5.91767 13.8727 5.90435 13.7327 6.02429ZM12.2202 8.40307C12.2135 8.42972 12.2069 8.46303 12.2002 8.48969C12.1735 8.56298 12.1269 8.63628 12.0669 8.68958C12.0269 8.72956 11.9803 8.76288 11.927 8.78287C11.8537 8.81619 11.7737 8.82951 11.6938 8.82951C11.6671 8.82951 11.6338 8.82285 11.6072 8.82285C11.5805 8.81619 11.5539 8.80952 11.5272 8.80286C11.4539 8.77621 11.3806 8.72956 11.3273 8.6696C11.2873 8.62962 11.254 8.58297 11.2274 8.52967C11.194 8.45637 11.174 8.37641 11.174 8.29645C11.174 8.2698 11.1807 8.23648 11.1807 8.20983C11.1874 8.18318 11.194 8.14986 11.2007 8.12321C11.2274 8.04991 11.274 7.97662 11.334 7.92331C11.3739 7.88333 11.4206 7.85002 11.4739 7.82336C11.5472 7.79005 11.6205 7.77672 11.6938 7.77672C11.7004 7.77672 11.7004 7.77672 11.7071 7.77672C11.7338 7.77672 11.7604 7.78338 11.7937 7.78338C11.8204 7.79005 11.847 7.79671 11.8737 7.80337C11.9536 7.83003 12.0203 7.87667 12.0736 7.93664C12.1136 7.97662 12.1469 8.02992 12.1735 8.07657C12.2069 8.14986 12.2268 8.22982 12.2202 8.30978C12.2268 8.3431 12.2202 8.37641 12.2202 8.40307Z" fill="currentColor" stroke="currentColor" stroke-width="0.5"/>
</svg>
