<svg width="13" height="12" viewBox="0 0 13 12" fill="none" xmlns="http://www.w3.org/2000/svg">
<path d="M9.93672 1.2V1.25H9.98672H11.1867C11.8218 1.25 12.3367 1.76491 12.3367 2.4V10.8C12.3367 11.4351 11.8218 11.95 11.1867 11.95H1.58672C0.951633 11.95 0.436719 11.4351 0.436719 10.8V2.4C0.436719 1.76491 0.951633 1.25 1.58672 1.25H2.78672H2.83672V1.2V0.05H3.93672V1.2V1.25H3.98672H8.78672H8.83672V1.2V0.05H9.93672V1.2ZM11.1867 10.85H11.2367V10.8V4.8V4.75H11.1867H1.58672H1.53672V4.8V10.8V10.85H1.58672H11.1867ZM11.1867 3.65H11.2367V3.6V2.4V2.35H11.1867H1.58672H1.53672V2.4V3.6V3.65H1.58672H11.1867Z" fill="currentColor" stroke="#FFBB00" stroke-width="0.1"/>
<path d="M8.83711 7.15V6.05H9.93711V7.15H8.83711Z" fill="currentColor" stroke="#FFBB00" stroke-width="0.1"/>
</svg>
