<svg width="32" height="32" viewBox="0 0 32 32" fill="none" xmlns="http://www.w3.org/2000/svg">
<path d="M16 32C7.1769 32 0 24.8223 0 16C0 7.17767 7.1769 0 16 0C24.8231 0 32 7.17767 32 16C32 24.8223 24.8231 32 16 32ZM16 2.32187C8.45779 2.32187 2.32187 8.45779 2.32187 16C2.32187 23.5422 8.45779 29.6781 16 29.6781C23.5422 29.6781 29.6781 23.5422 29.6781 16C29.6781 8.45779 23.5422 2.32187 16 2.32187Z" fill="#DE9F29"/>
<path d="M16 27.3981C9.71318 27.3981 4.59888 22.29 4.59888 16C4.59888 9.71008 9.71318 4.59888 16 4.59888C22.2869 4.59888 27.4012 9.71318 27.4012 16C27.4012 22.2869 22.2861 27.3981 16 27.3981ZM16 6.91765C14.2044 6.91765 12.4492 7.45006 10.9562 8.44757C9.46316 9.44508 8.29944 10.8629 7.61216 12.5217C6.92488 14.1806 6.7449 16.0059 7.09498 17.7671C7.44505 19.5282 8.30946 21.146 9.57891 22.4159C10.8484 23.6857 12.4658 24.5507 14.2269 24.9014C15.9879 25.2521 17.8133 25.0727 19.4724 24.386C21.1315 23.6993 22.5497 22.536 23.5477 21.0434C24.5457 19.5507 25.0787 17.7956 25.0793 16C25.0766 13.5929 24.1192 11.2851 22.4171 9.58295C20.715 7.88083 18.4072 6.92341 16 6.92075V6.91765Z" fill="#DE9F29"/>
<path d="M19.8698 17.1608H16C15.6921 17.1608 15.3969 17.0385 15.1791 16.8208C14.9614 16.6031 14.8391 16.3078 14.8391 15.9999V9.67436C14.8391 9.36646 14.9614 9.07118 15.1791 8.85346C15.3969 8.63574 15.6921 8.51343 16 8.51343C16.3079 8.51343 16.6032 8.63574 16.821 8.85346C17.0387 9.07118 17.161 9.36646 17.161 9.67436V14.839H19.8698C20.1777 14.839 20.473 14.9613 20.6907 15.179C20.9084 15.3967 21.0308 15.692 21.0308 15.9999C21.0308 16.3078 20.9084 16.6031 20.6907 16.8208C20.473 17.0385 20.1777 17.1608 19.8698 17.1608Z" fill="#DE9F29"/>
</svg>
