<svg width="32" height="27" viewBox="0 0 32 27" fill="none" xmlns="http://www.w3.org/2000/svg">
<path d="M12.6718 11.4428L17.2839 17.5215L20.3371 13.4978C20.3919 13.4257 20.4626 13.3673 20.5437 13.3271C20.6248 13.2868 20.7141 13.2659 20.8046 13.2659C20.8951 13.2659 20.9844 13.2868 21.0655 13.3271C21.1466 13.3673 21.2173 13.4257 21.2721 13.4978L30.1532 25.2019H1.29688L11.7369 11.4428C11.7916 11.3708 11.8623 11.3123 11.9434 11.2721C12.0245 11.2319 12.1138 11.2109 12.2043 11.2109C12.2949 11.2109 12.3842 11.2319 12.4653 11.2721C12.5464 11.3123 12.6171 11.3708 12.6718 11.4428Z" stroke="white" stroke-width="2" stroke-linecap="round" stroke-linejoin="round"/>
<path d="M12.2031 11.2092V1.40039" stroke="white" stroke-width="2" stroke-linecap="round" stroke-linejoin="round"/>
<path d="M12.202 7.16016L18.2656 7.16016V2.47394L12.202 2.47394V7.16016Z" stroke="white" stroke-width="2" stroke-linecap="round" stroke-linejoin="round"/>
<path d="M20.3354 21.5396L17.2852 17.5195" stroke="white" stroke-width="2" stroke-linecap="round" stroke-linejoin="round"/>
</svg>
