<svg className="hidden tablet:block" width="27" height="28" viewBox="0 0 27 28" fill="none" xmlns="http://www.w3.org/2000/svg">
<path d="M2.74378 18.218C3.89006 18.218 4.82837 19.1572 4.82837 20.3026V26.3481C4.82837 26.7095 4.53527 27.0026 4.17381 27.0026H1.31374C0.952281 27.0026 0.65918 26.7095 0.65918 26.3481V20.3026C0.65918 19.1543 1.59556 18.218 2.74378 18.218ZM18.4532 2.64137C18.4532 1.78045 19.762 1.78045 19.762 2.64137V3.01637C20.8329 3.31076 21.5861 4.28648 21.5861 5.40761C21.5861 6.26854 20.2773 6.26854 20.2773 5.40761C20.2773 5.02068 20.0806 4.64987 19.762 4.43577V6.6645C22.18 7.32518 22.1797 10.7869 19.762 11.4476V11.822C19.762 12.6829 18.4532 12.6829 18.4532 11.822V11.4476C17.3782 11.1539 16.6288 10.1743 16.6288 9.05574C16.6288 8.19481 17.938 8.19481 17.938 9.05574C17.938 9.4459 18.1311 9.808 18.4532 10.0256V7.79885C15.9791 7.12301 16.0981 3.659 18.4532 3.01573V2.64137ZM19.762 8.08647V10.0256C20.4466 9.56294 20.4466 8.54918 19.762 8.08647ZM18.4532 6.37688V4.4377C17.7761 4.89525 17.7616 5.90966 18.4532 6.37688ZM19.1075 0.297852C22.9368 0.297852 26.0413 3.40234 26.0413 7.23168C26.0413 11.061 22.9368 14.1655 19.1075 14.1655C15.2781 14.1655 12.1736 11.061 12.1736 7.23168C12.1736 3.40234 15.2781 0.297852 19.1075 0.297852ZM19.1075 1.60697C16.001 1.60697 13.4828 4.12526 13.4828 7.23168C13.4828 10.3381 16.001 12.8564 19.1075 12.8564C22.2142 12.8564 24.7322 10.3381 24.7322 7.23168C24.7322 4.12526 22.2142 1.60697 19.1075 1.60697ZM19.2281 17.1239C18.5422 17.6385 17.7596 16.5954 18.4458 16.0808L20.1699 14.7907C20.4143 14.5827 20.7738 14.5831 21.0173 14.7914L22.7411 16.0808C23.4269 16.5954 22.6447 17.6385 21.9585 17.1239L21.1163 16.4939C20.2702 21.927 15.9952 27.0026 10.1874 27.0026H6.14201C5.78055 27.0026 5.48745 26.7095 5.48745 26.3481V18.0861C5.48745 16.9379 6.42415 16.0015 7.57205 16.0015C8.71865 16.0015 9.65697 16.9408 9.65697 18.0861V25.6935C9.87623 25.6935 10.0968 25.6958 10.316 25.6925V15.5797C10.316 14.4318 11.2527 13.4951 12.4006 13.4951C13.545 13.4951 14.4852 14.4357 14.4852 15.5797V24.5146C17.2731 22.8908 19.1449 19.8618 19.7488 16.7344L19.2281 17.1239ZM11.6252 25.5694C12.1598 25.4758 12.6779 25.3314 13.1761 25.1415V15.5797C13.1761 15.1512 12.8295 14.8043 12.4006 14.8043C11.9753 14.8043 11.6252 15.1548 11.6252 15.5797V25.5694ZM7.57237 17.3103C7.14706 17.3103 6.79657 17.6608 6.79657 18.0861V25.6935H8.34784V18.0861C8.34784 17.6589 7.99896 17.3103 7.57237 17.3103ZM2.74378 19.5268C2.31847 19.5268 1.96798 19.8773 1.96798 20.3026V25.6935H3.51925V20.3026C3.51925 19.8753 3.17037 19.5268 2.74378 19.5268Z" fill="#FFBB00" stroke="#FFBB00" stroke-width="0.2"/>
</svg>
