<svg width="14" height="14" viewBox="0 0 14 14" fill="none" xmlns="http://www.w3.org/2000/svg">
<path d="M8.86363 5.4396L4.88559 8.60096C4.80655 8.66682 4.78021 8.79855 4.85924 8.87758C4.89876 8.93027 4.95145 8.95662 5.01731 8.95662C5.05683 8.95662 5.10952 8.94344 5.13586 8.9171L9.11391 5.75574C9.19294 5.68988 9.21929 5.55815 9.14025 5.47912C9.07439 5.38691 8.95584 5.37374 8.86363 5.4396Z" fill="black" fill-opacity="0.3" stroke="currentColor" stroke-width="0.5"/>
<path d="M5.95225 6.43527C6.00494 6.43527 6.05763 6.43527 6.11032 6.4221C6.65039 6.34307 7.03238 5.82935 6.94018 5.27611C6.90066 5.01266 6.75577 4.77556 6.54501 4.61749C6.33425 4.45942 6.0708 4.39356 5.80736 4.43308C5.54391 4.47259 5.30681 4.61749 5.14874 4.82825C4.99067 5.03901 4.92481 5.30245 4.96433 5.5659C5.04336 6.07962 5.47805 6.43527 5.95225 6.43527ZM5.86005 4.84142C5.88639 4.84142 5.92591 4.82825 5.95225 4.82825C6.24204 4.82825 6.50549 5.03901 6.54501 5.34197C6.5977 5.67128 6.37377 5.97424 6.04446 6.02693C5.71515 6.07962 5.41219 5.85569 5.3595 5.52638C5.30681 5.19707 5.54391 4.89411 5.86005 4.84142Z" fill="black" fill-opacity="0.3" stroke="currentColor" stroke-width="0.5"/>
<path d="M8.47375 7.50781C7.92052 7.50781 7.47266 7.95567 7.47266 8.50891C7.47266 9.06215 7.92052 9.51001 8.47375 9.51001C9.02699 9.51001 9.47485 9.06215 9.47485 8.50891C9.46168 7.95567 9.01382 7.50781 8.47375 7.50781ZM8.47375 9.10167C8.14445 9.10167 7.86783 8.82505 7.86783 8.49574C7.86783 8.16643 8.14445 7.88981 8.47375 7.88981C8.80306 7.88981 9.07968 8.16643 9.07968 8.49574C9.06651 8.83822 8.80306 9.10167 8.47375 9.10167Z" fill="black" fill-opacity="0.3" stroke="currentColor" stroke-width="0.5"/>
<path d="M12.9868 7.0461C12.9868 7.03293 13 7.00659 13 6.99341C13 6.427 12.4072 6.13721 11.8935 5.88694C11.5247 5.70252 11.1295 5.50494 11.0241 5.26784C10.9188 5.01756 11.0637 4.60922 11.2086 4.22722C11.4061 3.68716 11.6037 3.13392 11.2349 2.76509C10.8661 2.39627 10.3392 2.52799 9.81229 2.64654C9.44347 2.72558 9.06147 2.81778 8.8112 2.7124C8.56092 2.60703 8.35016 2.27772 8.15258 1.96158C7.86279 1.51372 7.54665 1 6.99341 1C6.44018 1 6.12404 1.51372 5.84742 1.97475C5.64984 2.30406 5.45225 2.63337 5.20198 2.73875C4.9517 2.84413 4.55653 2.75192 4.18771 2.65971C3.66081 2.52799 3.12075 2.39627 2.76509 2.75192C2.39627 3.12075 2.58068 3.67398 2.75192 4.21405C2.88364 4.60922 3.0022 5.00439 2.89682 5.26784C2.79144 5.51811 2.42261 5.70252 2.06696 5.88694C1.56641 6.15038 1 6.44018 1 6.99341C1 7.00659 1 7.03293 1.01317 7.0461C1.01317 7.05927 1 7.08562 1 7.09879C1 7.65203 1.56641 7.95499 2.06696 8.20527C2.42261 8.38968 2.79144 8.57409 2.89682 8.82437C3.0022 9.07464 2.87047 9.48299 2.75192 9.87816C2.58068 10.4182 2.39627 10.9715 2.76509 11.3403C3.13392 11.7091 3.67399 11.5642 4.18771 11.4325C4.55653 11.3403 4.9517 11.2481 5.20198 11.3535C5.45225 11.4588 5.64984 11.7881 5.84742 12.1175C6.12404 12.5785 6.44018 13.0922 6.99341 13.0922C7.54665 13.0922 7.87596 12.5785 8.15258 12.1306C8.35016 11.8145 8.56092 11.4852 8.8112 11.3798C9.07464 11.2744 9.44347 11.3535 9.81229 11.4457C10.326 11.5642 10.8661 11.6959 11.2349 11.3271C11.6037 10.9583 11.4061 10.405 11.2086 9.86498C11.0637 9.46981 10.9188 9.07464 11.0241 8.82437C11.1295 8.57409 11.5115 8.38968 11.8935 8.20527C12.4072 7.94182 13 7.65203 13 7.09879C13 7.07245 12.9868 7.05927 12.9868 7.0461ZM11.7091 7.84962C11.2744 8.07354 10.8134 8.29747 10.6553 8.67947C10.4841 9.07464 10.6685 9.54885 10.8266 10.0099C10.9846 10.4446 11.1427 10.8661 10.9451 11.0505C10.7344 11.2613 10.326 11.169 9.89133 11.0637C9.45664 10.9583 9.02195 10.8661 8.63996 11.0241C8.27113 11.1822 8.03403 11.551 7.8101 11.9199C7.55982 12.315 7.32272 12.697 6.98024 12.697C6.65093 12.697 6.41383 12.315 6.16356 11.9067C5.93963 11.5247 5.70252 11.1427 5.3337 10.9846C4.9517 10.8266 4.50384 10.9319 4.06916 11.0505C3.63447 11.1559 3.22613 11.2613 3.01537 11.0637C2.81778 10.8661 2.94951 10.4446 3.0944 10.0099C3.2393 9.54885 3.39737 9.07464 3.22613 8.69264C3.06806 8.31065 2.63337 8.08672 2.21186 7.87596C1.77717 7.65203 1.36883 7.44127 1.36883 7.11196C1.36883 7.09879 1.36883 7.07245 1.35565 7.05928C1.35565 7.0461 1.36883 7.01976 1.36883 7.00659C1.36883 6.69045 1.77717 6.47969 2.21186 6.24259C2.63337 6.03183 3.06806 5.8079 3.22613 5.42591C3.38419 5.03074 3.2393 4.55653 3.0944 4.10867C2.94951 3.66081 2.81778 3.2393 3.01537 3.05488C3.22613 2.84413 3.63447 2.94951 4.06916 3.06806C4.50384 3.17344 4.9517 3.29199 5.3337 3.13392C5.70252 2.97585 5.93963 2.59385 6.16356 2.21186C6.41383 1.80351 6.63776 1.42151 6.98024 1.42151C7.32272 1.42151 7.55982 1.80351 7.8101 2.19868C8.0472 2.56751 8.2843 2.93633 8.63996 3.0944C9.02195 3.25247 9.45664 3.14709 9.89133 3.05488C10.326 2.94951 10.7344 2.8573 10.9451 3.06806C11.1427 3.25247 10.9846 3.67398 10.8266 4.10867C10.6553 4.5697 10.4841 5.04391 10.6553 5.43908C10.8134 5.82107 11.2744 6.04501 11.7091 6.26894C12.1701 6.49286 12.5917 6.71679 12.5917 7.03293C12.5917 7.0461 12.5917 7.07245 12.6048 7.08562C12.6048 7.09879 12.5917 7.12514 12.5917 7.13831C12.6048 7.40176 12.1701 7.62569 11.7091 7.84962Z" fill="black" fill-opacity="0.3" stroke="currentColor" stroke-width="0.5"/>
</svg>
