<svg width="19" height="18" viewBox="0 0 19 18" fill="none" xmlns="http://www.w3.org/2000/svg">
<path d="M8.33019 0.927051C8.62955 0.00574017 9.93295 0.00573993 10.2323 0.927051L11.6386 5.25532C11.7725 5.66734 12.1565 5.9463 12.5897 5.9463H17.1407C18.1094 5.9463 18.5122 7.18592 17.7285 7.75532L14.0467 10.4303C13.6962 10.685 13.5495 11.1364 13.6834 11.5484L15.0897 15.8766C15.3891 16.798 14.3346 17.5641 13.5509 16.9947L9.86903 14.3197C9.51855 14.065 9.04395 14.065 8.69346 14.3197L5.01162 16.9947C4.2279 17.5641 3.17342 16.798 3.47278 15.8766L4.87912 11.5484C5.01299 11.1364 4.86633 10.685 4.51585 10.4303L0.833999 7.75532C0.0502851 7.18592 0.45306 5.9463 1.42178 5.9463H5.9728C6.40602 5.9463 6.78998 5.66734 6.92385 5.25532L8.33019 0.927051Z" fill="#FFBB00"/>
</svg>
