<svg className="hidden tablet:block" width="44" height="44" viewBox="0 0 44 44" fill="none" xmlns="http://www.w3.org/2000/svg">
<path d="M24.75 38.5H19.25" stroke="#FFBB00" stroke-width="3" stroke-linecap="round" stroke-linejoin="round"/>
<path d="M21.1405 3.40322C17.8749 6.01572 6.96084 16.4657 16.4999 33.0001H27.4999C36.8499 16.4657 26.0905 6.03291 22.8593 3.40322C22.6182 3.20186 22.314 3.09155 21.9999 3.09155C21.6858 3.09155 21.3816 3.20186 21.1405 3.40322Z" stroke="#FFBB00" stroke-width="3" stroke-linecap="round" stroke-linejoin="round"/>
<path d="M12.7016 19.147L7.3047 25.6095C7.16874 25.7681 7.07281 25.957 7.02496 26.1604C6.97711 26.3637 6.97873 26.5756 7.0297 26.7782L9.14376 36.3517C9.19478 36.5792 9.30283 36.7901 9.45776 36.9644C9.6127 37.1387 9.80942 37.2707 10.0294 37.3481C10.2494 37.4254 10.4855 37.4455 10.7154 37.4065C10.9453 37.3675 11.1616 37.2707 11.3438 37.1251L16.5 33.0001" stroke="#FFBB00" stroke-width="3" stroke-linecap="round" stroke-linejoin="round"/>
<path d="M31.1953 19.0093L36.6953 25.6093C36.8313 25.7679 36.9272 25.9568 36.9751 26.1602C37.0229 26.3635 37.0213 26.5754 36.9703 26.778L34.8563 36.3515C34.8052 36.579 34.6972 36.7899 34.5422 36.9642C34.3873 37.1385 34.1906 37.2705 33.9706 37.3479C33.7506 37.4252 33.5145 37.4453 33.2846 37.4063C33.0547 37.3673 32.8384 37.2705 32.6562 37.1249L27.5 32.9999" stroke="#FFBB00" stroke-width="3" stroke-linecap="round" stroke-linejoin="round"/>
<path d="M22 18.5625C23.1391 18.5625 24.0625 17.6391 24.0625 16.5C24.0625 15.3609 23.1391 14.4375 22 14.4375C20.8609 14.4375 19.9375 15.3609 19.9375 16.5C19.9375 17.6391 20.8609 18.5625 22 18.5625Z" fill="#FFBB00"/>
</svg>

<svg className="block tablet:hidden" width="32" height="32" viewBox="0 0 32 32" fill="none" xmlns="http://www.w3.org/2000/svg">
<path d="M17.9242 27.5498H14.0742" stroke="#FFBB00" stroke-width="2" stroke-linecap="round" stroke-linejoin="round"/>
<path d="M15.398 2.98184C13.112 4.81059 5.4722 12.1256 12.1495 23.6997H19.8495C26.3945 12.1256 18.863 4.82262 16.6011 2.98184C16.4323 2.84089 16.2194 2.76367 15.9995 2.76367C15.7797 2.76367 15.5667 2.84089 15.398 2.98184Z" stroke="#FFBB00" stroke-width="2" stroke-linecap="round" stroke-linejoin="round"/>
<path d="M9.49013 14.002L5.71231 18.5257C5.61714 18.6367 5.54999 18.769 5.51649 18.9113C5.483 19.0537 5.48414 19.202 5.51981 19.3438L6.99966 26.0452C7.03537 26.2045 7.111 26.3521 7.21946 26.4741C7.32791 26.5961 7.46561 26.6886 7.61962 26.7427C7.77363 26.7968 7.93887 26.8109 8.09982 26.7836C8.26076 26.7563 8.41212 26.6885 8.53966 26.5866L12.149 23.6991" stroke="#FFBB00" stroke-width="2" stroke-linecap="round" stroke-linejoin="round"/>
<path d="M22.4363 13.9062L26.2863 18.5263C26.3815 18.6373 26.4487 18.7695 26.4821 18.9119C26.5156 19.0542 26.5145 19.2026 26.4788 19.3444L24.999 26.0458C24.9633 26.2051 24.8876 26.3527 24.7792 26.4747C24.6707 26.5967 24.533 26.6891 24.379 26.7433C24.225 26.7974 24.0598 26.8115 23.8988 26.7842C23.7379 26.7569 23.5865 26.6891 23.459 26.5872L19.8496 23.6997" stroke="#FFBB00" stroke-width="2" stroke-linecap="round" stroke-linejoin="round"/>
<path d="M15.9994 13.5936C16.7968 13.5936 17.4432 12.9472 17.4432 12.1498C17.4432 11.3524 16.7968 10.7061 15.9994 10.7061C15.2021 10.7061 14.5557 11.3524 14.5557 12.1498C14.5557 12.9472 15.2021 13.5936 15.9994 13.5936Z" fill="#FFBB00"/>
</svg>
