<svg width="44" height="44" viewBox="0 0 44 44" fill="none" xmlns="http://www.w3.org/2000/svg">
<path d="M24.75 38.5H19.25" stroke="#FFBB00" stroke-width="3" stroke-linecap="round" stroke-linejoin="round"/>
<path d="M21.1405 3.40322C17.8749 6.01572 6.96084 16.4657 16.4999 33.0001H27.4999C36.8499 16.4657 26.0905 6.03291 22.8593 3.40322C22.6182 3.20186 22.314 3.09155 21.9999 3.09155C21.6858 3.09155 21.3816 3.20186 21.1405 3.40322Z" stroke="#FFBB00" stroke-width="3" stroke-linecap="round" stroke-linejoin="round"/>
<path d="M12.7016 19.147L7.3047 25.6095C7.16874 25.7681 7.07281 25.957 7.02496 26.1604C6.97711 26.3637 6.97873 26.5756 7.0297 26.7782L9.14376 36.3517C9.19478 36.5792 9.30283 36.7901 9.45776 36.9644C9.6127 37.1387 9.80942 37.2707 10.0294 37.3481C10.2494 37.4254 10.4855 37.4455 10.7154 37.4065C10.9453 37.3675 11.1616 37.2707 11.3438 37.1251L16.5 33.0001" stroke="#FFBB00" stroke-width="3" stroke-linecap="round" stroke-linejoin="round"/>
<path d="M31.1953 19.0093L36.6953 25.6093C36.8313 25.7679 36.9272 25.9568 36.9751 26.1602C37.0229 26.3635 37.0213 26.5754 36.9703 26.778L34.8563 36.3515C34.8052 36.579 34.6972 36.7899 34.5422 36.9642C34.3873 37.1385 34.1906 37.2705 33.9706 37.3479C33.7506 37.4252 33.5145 37.4453 33.2846 37.4063C33.0547 37.3673 32.8384 37.2705 32.6562 37.1249L27.5 32.9999" stroke="#FFBB00" stroke-width="3" stroke-linecap="round" stroke-linejoin="round"/>
<path d="M22 18.5625C23.1391 18.5625 24.0625 17.6391 24.0625 16.5C24.0625 15.3609 23.1391 14.4375 22 14.4375C20.8609 14.4375 19.9375 15.3609 19.9375 16.5C19.9375 17.6391 20.8609 18.5625 22 18.5625Z" fill="#FFBB00"/>
</svg>
