<svg className="hidden tablet:block" width="32" height="36" viewBox="0 0 32 36" fill="none" xmlns="http://www.w3.org/2000/svg">
<path d="M22.6539 35.0044H5.04573C3.97315 35.003 2.94488 34.5763 2.18645 33.8179C1.42802 33.0595 1.00134 32.0312 1 30.9586V5.0467C1.00134 3.97412 1.42802 2.94586 2.18645 2.18743C2.94488 1.429 3.97315 1.00232 5.04573 1.00098H22.6539C23.7265 1.00232 24.7548 1.429 25.5132 2.18743C26.2716 2.94586 26.6983 3.97412 26.6996 5.0467V30.9586C26.6983 32.0312 26.2716 33.0595 25.5132 33.8179C24.7548 34.5763 23.7265 35.003 22.6539 35.0044ZM5.04573 3.53854C4.84745 3.53832 4.65107 3.57715 4.4678 3.65283C4.28453 3.7285 4.11796 3.83953 3.97761 3.97957C3.83725 4.11962 3.72584 4.28594 3.64976 4.46904C3.57368 4.65213 3.53441 4.84843 3.53418 5.0467V30.9586C3.53441 31.1569 3.57368 31.3532 3.64976 31.5363C3.72584 31.7194 3.83725 31.8857 3.97761 32.0258C4.11796 32.1658 4.28453 32.2768 4.4678 32.3525C4.65107 32.4282 4.84745 32.467 5.04573 32.4668H22.6539C23.0538 32.4664 23.4371 32.3073 23.7198 32.0246C24.0026 31.7418 24.1616 31.3585 24.1621 30.9586V5.0467C24.1616 4.64685 24.0026 4.26351 23.7198 3.98077C23.4371 3.69803 23.0538 3.53899 22.6539 3.53854H5.04573Z" fill="white" stroke="#1F678D" stroke-width="0.5"/>
<path d="M29.6601 14.1963C29.3236 14.1963 29.0009 14.0626 28.763 13.8246C28.525 13.5867 28.3914 13.264 28.3914 12.9275V10.7283C28.3914 10.3918 28.525 10.069 28.763 9.83109C29.0009 9.59315 29.3236 9.45947 29.6601 9.45947C29.9966 9.45947 30.3194 9.59315 30.5573 9.83109C30.7952 10.069 30.9289 10.3918 30.9289 10.7283V12.9275C30.9289 13.264 30.7952 13.5867 30.5573 13.8246C30.3194 14.0626 29.9966 14.1963 29.6601 14.1963Z" fill="white" stroke="#1F678D" stroke-width="0.5"/>
<path d="M29.6601 20.2866C29.3236 20.2866 29.0009 20.1529 28.763 19.915C28.525 19.677 28.3914 19.3543 28.3914 19.0178V16.8186C28.3914 16.4821 28.525 16.1594 28.763 15.9214C29.0009 15.6835 29.3236 15.5498 29.6601 15.5498C29.9966 15.5498 30.3194 15.6835 30.5573 15.9214C30.7952 16.1594 30.9289 16.4821 30.9289 16.8186V19.0178C30.9289 19.3543 30.7952 19.677 30.5573 19.915C30.3194 20.1529 29.9966 20.2866 29.6601 20.2866Z" fill="white" stroke="#1F678D" stroke-width="0.5"/>
<path d="M21.4612 14.6194H6.23582C5.89932 14.6194 5.5766 14.4857 5.33866 14.2477C5.10072 14.0098 4.96704 13.6871 4.96704 13.3506V6.58372C4.96704 6.24722 5.10072 5.9245 5.33866 5.68656C5.5766 5.44862 5.89932 5.31494 6.23582 5.31494H21.4612C21.7977 5.31494 22.1204 5.44862 22.3584 5.68656C22.5963 5.9245 22.73 6.24722 22.73 6.58372V13.3506C22.73 13.6871 22.5963 14.0098 22.3584 14.2477C22.1204 14.4857 21.7977 14.6194 21.4612 14.6194ZM7.50461 12.0818H20.1924V7.85251H7.50461V12.0818Z" fill="white" stroke="#1F678D" stroke-width="0.5"/>
<path d="M8.25996 19.7563H6.23582C6.06921 19.7563 5.90422 19.7235 5.75028 19.6597C5.59635 19.596 5.45648 19.5025 5.33866 19.3847C5.22084 19.2669 5.12738 19.127 5.06362 18.9731C4.99986 18.8191 4.96704 18.6542 4.96704 18.4875C4.96704 18.3209 4.99986 18.1559 5.06362 18.002C5.12738 17.8481 5.22084 17.7082 5.33866 17.5904C5.45648 17.4726 5.59635 17.3791 5.75028 17.3153C5.90422 17.2516 6.06921 17.2187 6.23582 17.2188H8.25996C8.59646 17.2188 8.91918 17.3524 9.15712 17.5904C9.39506 17.8283 9.52874 18.151 9.52874 18.4875C9.52874 18.824 9.39506 19.1468 9.15712 19.3847C8.91918 19.6226 8.59646 19.7563 8.25996 19.7563Z" fill="white" stroke="#1F678D" stroke-width="0.5"/>
<path d="M21.4612 19.7563H19.4363C19.2696 19.7563 19.1047 19.7235 18.9507 19.6597C18.7968 19.596 18.6569 19.5025 18.5391 19.3847C18.4213 19.2669 18.3278 19.127 18.2641 18.9731C18.2003 18.8191 18.1675 18.6542 18.1675 18.4875C18.1675 18.3209 18.2003 18.1559 18.2641 18.002C18.3278 17.8481 18.4213 17.7082 18.5391 17.5904C18.6569 17.4726 18.7968 17.3791 18.9507 17.3153C19.1047 17.2516 19.2696 17.2187 19.4363 17.2188H21.4612C21.7977 17.2188 22.1205 17.3524 22.3584 17.5904C22.5964 17.8283 22.73 18.151 22.73 18.4875C22.73 18.824 22.5964 19.1468 22.3584 19.3847C22.1205 19.6226 21.7977 19.7563 21.4612 19.7563Z" fill="white" stroke="#1F678D" stroke-width="0.5"/>
<path d="M14.8575 19.7563H12.8359C12.6693 19.7563 12.5043 19.7235 12.3504 19.6597C12.1964 19.596 12.0566 19.5025 11.9388 19.3847C11.8209 19.2669 11.7275 19.127 11.6637 18.9731C11.6 18.8191 11.5671 18.6542 11.5671 18.4875C11.5671 18.3209 11.6 18.1559 11.6637 18.002C11.7275 17.8481 11.8209 17.7082 11.9388 17.5904C12.0566 17.4726 12.1964 17.3791 12.3504 17.3153C12.5043 17.2516 12.6693 17.2187 12.8359 17.2188H14.8575C15.194 17.2188 15.5167 17.3524 15.7547 17.5904C15.9926 17.8283 16.1263 18.151 16.1263 18.4875C16.1263 18.824 15.9926 19.1468 15.7547 19.3847C15.5167 19.6226 15.194 19.7563 14.8575 19.7563Z" fill="white" stroke="#1F678D" stroke-width="0.5"/>
<path d="M8.25996 28.5986H6.23582C5.89932 28.5986 5.5766 28.4649 5.33866 28.227C5.10072 27.989 4.96704 27.6663 4.96704 27.3298C4.96704 26.9933 5.10072 26.6706 5.33866 26.4327C5.5766 26.1947 5.89932 26.061 6.23582 26.061H8.25996C8.59646 26.061 8.91918 26.1947 9.15712 26.4327C9.39506 26.6706 9.52874 26.9933 9.52874 27.3298C9.52874 27.6663 9.39506 27.989 9.15712 28.227C8.91918 28.4649 8.59646 28.5986 8.25996 28.5986Z" fill="white" stroke="#1F678D" stroke-width="0.5"/>
<path d="M21.4612 28.5986H19.4363C19.0998 28.5986 18.777 28.4649 18.5391 28.227C18.3012 27.989 18.1675 27.6663 18.1675 27.3298C18.1675 26.9933 18.3012 26.6706 18.5391 26.4327C18.777 26.1947 19.0998 26.061 19.4363 26.061H21.4612C21.7977 26.061 22.1205 26.1947 22.3584 26.4327C22.5964 26.6706 22.73 26.9933 22.73 27.3298C22.73 27.6663 22.5964 27.989 22.3584 28.227C22.1205 28.4649 21.7977 28.5986 21.4612 28.5986Z" fill="white" stroke="#1F678D" stroke-width="0.5"/>
<path d="M14.8575 28.5986H12.8359C12.4994 28.5986 12.1767 28.4649 11.9388 28.227C11.7008 27.989 11.5671 27.6663 11.5671 27.3298C11.5671 26.9933 11.7008 26.6706 11.9388 26.4327C12.1767 26.1947 12.4994 26.061 12.8359 26.061H14.8575C15.194 26.061 15.5167 26.1947 15.7547 26.4327C15.9926 26.6706 16.1263 26.9933 16.1263 27.3298C16.1263 27.6663 15.9926 27.989 15.7547 28.227C15.5167 28.4649 15.194 28.5986 14.8575 28.5986Z" fill="white" stroke="#1F678D" stroke-width="0.5"/>
<path d="M8.25996 24.1777H6.23582C5.89932 24.1777 5.5766 24.044 5.33866 23.8061C5.10072 23.5681 4.96704 23.2454 4.96704 22.9089C4.96704 22.5724 5.10072 22.2497 5.33866 22.0118C5.5766 21.7738 5.89932 21.6401 6.23582 21.6401H8.25996C8.59646 21.6401 8.91918 21.7738 9.15712 22.0118C9.39506 22.2497 9.52874 22.5724 9.52874 22.9089C9.52874 23.2454 9.39506 23.5681 9.15712 23.8061C8.91918 24.044 8.59646 24.1777 8.25996 24.1777Z" fill="white" stroke="#1F678D" stroke-width="0.5"/>
<path d="M21.4612 24.1777H19.4363C19.0998 24.1777 18.777 24.044 18.5391 23.8061C18.3012 23.5681 18.1675 23.2454 18.1675 22.9089C18.1675 22.5724 18.3012 22.2497 18.5391 22.0118C18.777 21.7738 19.0998 21.6401 19.4363 21.6401H21.4612C21.7977 21.6401 22.1205 21.7738 22.3584 22.0118C22.5964 22.2497 22.73 22.5724 22.73 22.9089C22.73 23.2454 22.5964 23.5681 22.3584 23.8061C22.1205 24.044 21.7977 24.1777 21.4612 24.1777Z" fill="white" stroke="#1F678D" stroke-width="0.5"/>
<path d="M14.8575 24.1777H12.8359C12.4994 24.1777 12.1767 24.044 11.9388 23.8061C11.7008 23.5681 11.5671 23.2454 11.5671 22.9089C11.5671 22.5724 11.7008 22.2497 11.9388 22.0118C12.1767 21.7738 12.4994 21.6401 12.8359 21.6401H14.8575C15.194 21.6401 15.5167 21.7738 15.7547 22.0118C15.9926 22.2497 16.1263 22.5724 16.1263 22.9089C16.1263 23.2454 15.9926 23.5681 15.7547 23.8061C15.5167 24.044 15.194 24.1777 14.8575 24.1777Z" fill="white" stroke="#1F678D" stroke-width="0.5"/>
</svg>

<svg className="block tablet:hidden" width="23" height="25" viewBox="0 0 23 25" fill="none" xmlns="http://www.w3.org/2000/svg">
<path d="M16.0581 24.3034H3.7324C2.98159 24.3024 2.26181 24.0037 1.73091 23.4728C1.2 22.9419 0.901331 22.2222 0.900391 21.4713V3.33299C0.901331 2.58218 1.2 1.86239 1.73091 1.33149C2.26181 0.80059 2.98159 0.501917 3.7324 0.500977H16.0581C16.8089 0.501917 17.5287 0.80059 18.0596 1.33149C18.5905 1.86239 18.8892 2.58218 18.8901 3.33299V21.4713C18.8892 22.2222 18.5905 22.9419 18.0596 23.4728C17.5287 24.0037 16.8089 24.3024 16.0581 24.3034ZM3.7324 2.27727C3.59361 2.27712 3.45614 2.3043 3.32785 2.35727C3.19956 2.41024 3.08297 2.48796 2.98471 2.58599C2.88646 2.68403 2.80848 2.80045 2.75522 2.92862C2.70197 3.05679 2.67447 3.19419 2.67432 3.33299V21.4713C2.67447 21.6101 2.70197 21.7475 2.75522 21.8757C2.80848 22.0039 2.88646 22.1203 2.98471 22.2183C3.08297 22.3164 3.19956 22.3941 3.32785 22.4471C3.45614 22.5 3.59361 22.5272 3.7324 22.5271H16.0581C16.338 22.5267 16.6064 22.4154 16.8043 22.2175C17.0022 22.0196 17.1135 21.7512 17.1138 21.4713V3.33299C17.1135 3.05309 17.0022 2.78475 16.8043 2.58683C16.6064 2.38891 16.338 2.27759 16.0581 2.27727H3.7324Z" fill="white" stroke="#1F678D" stroke-width="0.5"/>
<path d="M20.9624 9.73763C20.7268 9.73763 20.5009 9.64406 20.3344 9.4775C20.1678 9.31094 20.0742 9.08503 20.0742 8.84948V7.31002C20.0742 7.07447 20.1678 6.84857 20.3344 6.68201C20.5009 6.51545 20.7268 6.42188 20.9624 6.42188C21.1979 6.42188 21.4238 6.51545 21.5904 6.68201C21.7569 6.84857 21.8505 7.07447 21.8505 7.31002V8.84948C21.8505 9.08503 21.7569 9.31094 21.5904 9.4775C21.4238 9.64406 21.1979 9.73763 20.9624 9.73763Z" fill="white" stroke="#1F678D" stroke-width="0.5"/>
<path d="M20.9624 14.0013C20.7268 14.0013 20.5009 13.9077 20.3344 13.7412C20.1678 13.5746 20.0742 13.3487 20.0742 13.1132V11.5737C20.0742 11.3381 20.1678 11.1122 20.3344 10.9457C20.5009 10.7791 20.7268 10.6855 20.9624 10.6855C21.1979 10.6855 21.4238 10.7791 21.5904 10.9457C21.7569 11.1122 21.8505 11.3381 21.8505 11.5737V13.1132C21.8505 13.3487 21.7569 13.5746 21.5904 13.7412C21.4238 13.9077 21.1979 14.0013 20.9624 14.0013Z" fill="white" stroke="#1F678D" stroke-width="0.5"/>
<path d="M15.2237 10.0336H4.56588C4.33033 10.0336 4.10443 9.94002 3.93787 9.77346C3.77131 9.6069 3.67773 9.381 3.67773 9.14545V4.40866C3.67773 4.1731 3.77131 3.9472 3.93787 3.78064C4.10443 3.61408 4.33033 3.52051 4.56588 3.52051H15.2237C15.4592 3.52051 15.6851 3.61408 15.8517 3.78064C16.0182 3.9472 16.1118 4.1731 16.1118 4.40866V9.14545C16.1118 9.381 16.0182 9.6069 15.8517 9.77346C15.6851 9.94002 15.4592 10.0336 15.2237 10.0336ZM5.45403 8.2573H14.3355V5.2968H5.45403V8.2573Z" fill="white" stroke="#1F678D" stroke-width="0.5"/>
<path d="M5.98278 13.6298H4.56588C4.44925 13.6298 4.33376 13.6068 4.226 13.5622C4.11825 13.5176 4.02034 13.4522 3.93787 13.3697C3.85539 13.2872 3.78997 13.1893 3.74534 13.0815C3.70071 12.9738 3.67773 12.8583 3.67773 12.7417C3.67773 12.625 3.70071 12.5095 3.74534 12.4018C3.78997 12.294 3.85539 12.1961 3.93787 12.1136C4.02034 12.0312 4.11825 11.9658 4.226 11.9211C4.33376 11.8765 4.44925 11.8535 4.56588 11.8535H5.98278C6.21833 11.8535 6.44423 11.9471 6.61079 12.1136C6.77735 12.2802 6.87092 12.5061 6.87092 12.7417C6.87092 12.9772 6.77735 13.2031 6.61079 13.3697C6.44423 13.5362 6.21833 13.6298 5.98278 13.6298Z" fill="white" stroke="#1F678D" stroke-width="0.5"/>
<path d="M15.2236 13.6298H13.8061C13.6895 13.6298 13.574 13.6068 13.4662 13.5622C13.3585 13.5176 13.2606 13.4522 13.1781 13.3697C13.0956 13.2872 13.0302 13.1893 12.9856 13.0815C12.9409 12.9738 12.918 12.8583 12.918 12.7417C12.918 12.625 12.9409 12.5095 12.9856 12.4018C13.0302 12.294 13.0956 12.1961 13.1781 12.1136C13.2606 12.0312 13.3585 11.9658 13.4662 11.9211C13.574 11.8765 13.6895 11.8535 13.8061 11.8535H15.2236C15.4592 11.8535 15.6851 11.9471 15.8516 12.1136C16.0182 12.2802 16.1118 12.5061 16.1118 12.7417C16.1118 12.9772 16.0182 13.2031 15.8516 13.3697C15.6851 13.5362 15.4592 13.6298 15.2236 13.6298Z" fill="white" stroke="#1F678D" stroke-width="0.5"/>
<path d="M10.6011 13.6298H9.186C9.06937 13.6298 8.95387 13.6068 8.84612 13.5622C8.73836 13.5176 8.64046 13.4522 8.55798 13.3697C8.47551 13.2872 8.41009 13.1893 8.36546 13.0815C8.32082 12.9738 8.29785 12.8583 8.29785 12.7417C8.29785 12.625 8.32082 12.5095 8.36546 12.4018C8.41009 12.294 8.47551 12.1961 8.55798 12.1136C8.64046 12.0312 8.73836 11.9658 8.84612 11.9211C8.95387 11.8765 9.06937 11.8535 9.186 11.8535H10.6011C10.8367 11.8535 11.0626 11.9471 11.2291 12.1136C11.3957 12.2802 11.4893 12.5061 11.4893 12.7417C11.4893 12.9772 11.3957 13.2031 11.2291 13.3697C11.0626 13.5362 10.8367 13.6298 10.6011 13.6298Z" fill="white" stroke="#1F678D" stroke-width="0.5"/>
<path d="M5.98278 19.8193H4.56588C4.33033 19.8193 4.10443 19.7257 3.93787 19.5591C3.77131 19.3926 3.67773 19.1667 3.67773 18.9311C3.67773 18.6956 3.77131 18.4697 3.93787 18.3031C4.10443 18.1365 4.33033 18.043 4.56588 18.043H5.98278C6.21833 18.043 6.44423 18.1365 6.61079 18.3031C6.77735 18.4697 6.87092 18.6956 6.87092 18.9311C6.87092 19.1667 6.77735 19.3926 6.61079 19.5591C6.44423 19.7257 6.21833 19.8193 5.98278 19.8193Z" fill="white" stroke="#1F678D" stroke-width="0.5"/>
<path d="M15.2236 19.8193H13.8061C13.5706 19.8193 13.3447 19.7257 13.1781 19.5591C13.0115 19.3926 12.918 19.1667 12.918 18.9311C12.918 18.6956 13.0115 18.4697 13.1781 18.3031C13.3447 18.1365 13.5706 18.043 13.8061 18.043H15.2236C15.4592 18.043 15.6851 18.1365 15.8516 18.3031C16.0182 18.4697 16.1118 18.6956 16.1118 18.9311C16.1118 19.1667 16.0182 19.3926 15.8516 19.5591C15.6851 19.7257 15.4592 19.8193 15.2236 19.8193Z" fill="white" stroke="#1F678D" stroke-width="0.5"/>
<path d="M10.6001 19.8193H9.18502C8.94947 19.8193 8.72357 19.7257 8.55701 19.5591C8.39045 19.3926 8.29688 19.1667 8.29688 18.9311C8.29688 18.6956 8.39045 18.4697 8.55701 18.3031C8.72357 18.1365 8.94947 18.043 9.18502 18.043H10.6001C10.8357 18.043 11.0616 18.1365 11.2282 18.3031C11.3947 18.4697 11.4883 18.6956 11.4883 18.9311C11.4883 19.1667 11.3947 19.3926 11.2282 19.5591C11.0616 19.7257 10.8357 19.8193 10.6001 19.8193Z" fill="white" stroke="#1F678D" stroke-width="0.5"/>
<path d="M5.98278 16.7245H4.56588C4.33033 16.7245 4.10443 16.631 3.93787 16.4644C3.77131 16.2978 3.67773 16.0719 3.67773 15.8364C3.67773 15.6008 3.77131 15.3749 3.93787 15.2084C4.10443 15.0418 4.33033 14.9482 4.56588 14.9482H5.98278C6.21833 14.9482 6.44423 15.0418 6.61079 15.2084C6.77735 15.3749 6.87092 15.6008 6.87092 15.8364C6.87092 16.0719 6.77735 16.2978 6.61079 16.4644C6.44423 16.631 6.21833 16.7245 5.98278 16.7245Z" fill="white" stroke="#1F678D" stroke-width="0.5"/>
<path d="M15.2236 16.7245H13.8061C13.5706 16.7245 13.3447 16.631 13.1781 16.4644C13.0115 16.2978 12.918 16.0719 12.918 15.8364C12.918 15.6008 13.0115 15.3749 13.1781 15.2084C13.3447 15.0418 13.5706 14.9482 13.8061 14.9482H15.2236C15.4592 14.9482 15.6851 15.0418 15.8516 15.2084C16.0182 15.3749 16.1118 15.6008 16.1118 15.8364C16.1118 16.0719 16.0182 16.2978 15.8516 16.4644C15.6851 16.631 15.4592 16.7245 15.2236 16.7245Z" fill="white" stroke="#1F678D" stroke-width="0.5"/>
<path d="M10.6001 16.7245H9.18502C8.94947 16.7245 8.72357 16.631 8.55701 16.4644C8.39045 16.2978 8.29688 16.0719 8.29688 15.8364C8.29688 15.6008 8.39045 15.3749 8.55701 15.2084C8.72357 15.0418 8.94947 14.9482 9.18502 14.9482H10.6001C10.8357 14.9482 11.0616 15.0418 11.2282 15.2084C11.3947 15.3749 11.4883 15.6008 11.4883 15.8364C11.4883 16.0719 11.3947 16.2978 11.2282 16.4644C11.0616 16.631 10.8357 16.7245 10.6001 16.7245Z" fill="white" stroke="#1F678D" stroke-width="0.5"/>
</svg>
