<svg width="28" height="28" viewBox="0 0 28 28" fill="none" xmlns="http://www.w3.org/2000/svg">
<path d="M12.8333 9.4499C13.4167 9.33324 13.8833 8.63324 13.65 8.0499C13.5333 7.46657 12.8333 6.9999 12.25 7.23324C9.1 7.93324 7 10.7332 7 13.9999C7 17.8499 10.15 20.9999 14 20.9999C17.6167 20.9999 20.65 18.1999 21 14.5832C21.1167 13.9999 20.5333 13.4166 19.95 13.2999C19.3667 13.1832 18.7833 13.7666 18.6667 14.3499C18.4333 16.6832 16.3333 18.6666 14 18.6666C11.4333 18.6666 9.33333 16.5666 9.33333 13.9999C9.33333 11.7832 10.7333 9.91657 12.8333 9.4499Z" fill="white"/>
<path d="M24.4997 12.8333C23.7997 12.8333 23.333 13.3 23.333 14C23.333 19.1333 19.133 23.3333 13.9997 23.3333C8.86634 23.3333 4.66634 19.1333 4.66634 14C4.66634 9.09996 8.51634 5.01663 13.4163 4.66663C14.1163 4.66663 14.583 4.0833 14.4663 3.3833C14.4663 2.6833 13.883 2.21663 13.183 2.3333C7.11634 2.79996 2.33301 7.81663 2.33301 14C2.33301 20.4166 7.58301 25.6666 13.9997 25.6666C20.4163 25.6666 25.6663 20.4166 25.6663 14C25.6663 13.3 25.083 12.8333 24.4997 12.8333Z" fill="white"/>
<path d="M16.2163 10.1499L13.183 13.1832C12.7163 13.6499 12.7163 14.3499 13.183 14.8165C13.4163 15.0499 13.7663 15.1665 13.9997 15.1665C14.233 15.1665 14.583 15.0499 14.8163 14.8165L17.8497 11.7832L19.833 12.3665C19.9497 12.3665 20.0663 12.3665 20.183 12.3665C20.533 12.3665 20.7663 12.2499 20.9997 12.0165L25.5497 7.34987C25.783 7.11654 25.8997 6.64987 25.8997 6.29987C25.8997 5.94987 25.5497 5.59987 25.1997 5.4832L23.0997 4.7832L22.3997 2.6832C22.283 2.3332 21.933 1.9832 21.583 1.9832C21.233 1.86654 20.7663 1.9832 20.533 2.3332L15.983 6.99987C15.633 7.34987 15.5163 7.81654 15.7497 8.16654L16.2163 10.1499ZM20.7663 5.36654L21.1163 6.1832C21.233 6.5332 21.4663 6.76654 21.8163 6.8832L22.633 7.2332L19.833 10.0332L18.433 9.56654L17.9663 8.16654L20.7663 5.36654Z" fill="white"/>
</svg>
