<svg width="22" height="26" viewBox="0 0 22 26" fill="none" xmlns="http://www.w3.org/2000/svg">
<path d="M15.5678 25H3.1397C2.38266 24.9991 1.6569 24.6979 1.12159 24.1626C0.586281 23.6273 0.285128 22.9015 0.28418 22.1445V3.85552C0.285128 3.09848 0.586281 2.37272 1.12159 1.83741C1.6569 1.3021 2.38266 1.00095 3.1397 1H15.5678C16.3248 1.00095 17.0506 1.3021 17.5859 1.83741C18.1212 2.37272 18.4223 3.09848 18.4233 3.85552V22.1445C18.4223 22.9015 18.1212 23.6273 17.5859 24.1626C17.0506 24.6979 16.3248 24.9991 15.5678 25ZM3.1397 2.79104C2.99976 2.79089 2.86115 2.8183 2.7318 2.87171C2.60244 2.92512 2.48488 3.00348 2.38581 3.10233C2.28674 3.20117 2.20811 3.31856 2.15441 3.4478C2.10071 3.57703 2.07299 3.71558 2.07284 3.85552V22.1445C2.07299 22.2844 2.10071 22.423 2.15441 22.5522C2.20811 22.6814 2.28674 22.7988 2.38581 22.8977C2.48488 22.9965 2.60244 23.0749 2.7318 23.1283C2.86115 23.1817 2.99976 23.2091 3.1397 23.209H15.5678C15.85 23.2086 16.1206 23.0964 16.3201 22.8968C16.5197 22.6973 16.6319 22.4267 16.6322 22.1445V3.85552C16.6319 3.5733 16.5197 3.30273 16.3201 3.10317C16.1206 2.90361 15.85 2.79136 15.5678 2.79104H3.1397Z" fill="currentColor" stroke="white" stroke-width="0.3"/>
<path d="M20.5132 10.312C20.2757 10.312 20.0479 10.2177 19.88 10.0497C19.712 9.8818 19.6177 9.65402 19.6177 9.41651V7.86427C19.6177 7.62677 19.712 7.39899 19.88 7.23104C20.0479 7.0631 20.2757 6.96875 20.5132 6.96875C20.7507 6.96875 20.9785 7.0631 21.1464 7.23104C21.3144 7.39899 21.4087 7.62677 21.4087 7.86427V9.41651C21.4087 9.65402 21.3144 9.8818 21.1464 10.0497C20.9785 10.2177 20.7507 10.312 20.5132 10.312Z" fill="currentColor" stroke="white" stroke-width="0.3"/>
<path d="M20.5132 14.6128C20.2757 14.6128 20.0479 14.5185 19.88 14.3505C19.712 14.1826 19.6177 13.9548 19.6177 13.7173V12.1651C19.6177 11.9275 19.712 11.6998 19.88 11.5318C20.0479 11.3639 20.2757 11.2695 20.5132 11.2695C20.7507 11.2695 20.9785 11.3639 21.1464 11.5318C21.3144 11.6998 21.4087 11.9275 21.4087 12.1651V13.7173C21.4087 13.9548 21.3144 14.1826 21.1464 14.3505C20.9785 14.5185 20.7507 14.6128 20.5132 14.6128Z" fill="currentColor" stroke="white" stroke-width="0.3"/>
<path d="M14.7265 10.6101H3.98024C3.74273 10.6101 3.51495 10.5158 3.34701 10.3478C3.17907 10.1799 3.08472 9.95212 3.08472 9.71461V4.93849C3.08472 4.70098 3.17907 4.4732 3.34701 4.30526C3.51495 4.13732 3.74273 4.04297 3.98024 4.04297H14.7265C14.964 4.04297 15.1918 4.13732 15.3597 4.30526C15.5277 4.4732 15.622 4.70098 15.622 4.93849V9.71461C15.622 9.95212 15.5277 10.1799 15.3597 10.3478C15.1918 10.5158 14.964 10.6101 14.7265 10.6101ZM4.87576 8.81909H13.831V5.83401H4.87576V8.81909Z" fill="currentColor" stroke="white" stroke-width="0.3"/>
<path d="M5.4089 14.2364H3.98024C3.86264 14.2364 3.74619 14.2132 3.63754 14.1682C3.52889 14.1232 3.43017 14.0572 3.34701 13.9741C3.26385 13.8909 3.19789 13.7922 3.15288 13.6835C3.10788 13.5749 3.08472 13.4584 3.08472 13.3408C3.08472 13.2232 3.10788 13.1068 3.15288 12.9981C3.19789 12.8895 3.26385 12.7908 3.34701 12.7076C3.43017 12.6244 3.52889 12.5585 3.63754 12.5135C3.74619 12.4685 3.86264 12.4453 3.98024 12.4453H5.4089C5.6464 12.4453 5.87418 12.5397 6.04213 12.7076C6.21007 12.8755 6.30442 13.1033 6.30442 13.3408C6.30442 13.5783 6.21007 13.8061 6.04213 13.9741C5.87418 14.142 5.6464 14.2364 5.4089 14.2364Z" fill="currentColor" stroke="white" stroke-width="0.3"/>
<path d="M14.7261 14.2364H13.2969C13.1793 14.2364 13.0628 14.2132 12.9542 14.1682C12.8455 14.1232 12.7468 14.0572 12.6637 13.9741C12.5805 13.8909 12.5145 13.7922 12.4695 13.6835C12.4245 13.5749 12.4014 13.4584 12.4014 13.3408C12.4014 13.2232 12.4245 13.1068 12.4695 12.9981C12.5145 12.8895 12.5805 12.7908 12.6637 12.7076C12.7468 12.6244 12.8455 12.5585 12.9542 12.5135C13.0628 12.4685 13.1793 12.4453 13.2969 12.4453H14.7261C14.9637 12.4453 15.1914 12.5397 15.3594 12.7076C15.5273 12.8755 15.6217 13.1033 15.6217 13.3408C15.6217 13.5783 15.5273 13.8061 15.3594 13.9741C15.1914 14.142 14.9637 14.2364 14.7261 14.2364Z" fill="currentColor" stroke="white" stroke-width="0.3"/>
<path d="M10.0653 14.2364H8.63844C8.52084 14.2364 8.40439 14.2132 8.29574 14.1682C8.18709 14.1232 8.08837 14.0572 8.00521 13.9741C7.92205 13.8909 7.85609 13.7922 7.81109 13.6835C7.76608 13.5749 7.74292 13.4584 7.74292 13.3408C7.74292 13.2232 7.76608 13.1068 7.81109 12.9981C7.85609 12.8895 7.92205 12.7908 8.00521 12.7076C8.08837 12.6244 8.18709 12.5585 8.29574 12.5135C8.40439 12.4685 8.52084 12.4453 8.63844 12.4453H10.0653C10.3028 12.4453 10.5306 12.5397 10.6985 12.7076C10.8665 12.8755 10.9608 13.1033 10.9608 13.3408C10.9608 13.5783 10.8665 13.8061 10.6985 13.9741C10.5306 14.142 10.3028 14.2364 10.0653 14.2364Z" fill="currentColor" stroke="white" stroke-width="0.3"/>
<path d="M5.4089 20.4785H3.98024C3.74273 20.4785 3.51495 20.3842 3.34701 20.2163C3.17907 20.0483 3.08472 19.8205 3.08472 19.583C3.08472 19.3455 3.17907 19.1177 3.34701 18.9498C3.51495 18.7818 3.74273 18.6875 3.98024 18.6875H5.4089C5.6464 18.6875 5.87418 18.7818 6.04213 18.9498C6.21007 19.1177 6.30442 19.3455 6.30442 19.583C6.30442 19.8205 6.21007 20.0483 6.04213 20.2163C5.87418 20.3842 5.6464 20.4785 5.4089 20.4785Z" fill="currentColor" stroke="white" stroke-width="0.3"/>
<path d="M14.7261 20.4785H13.2969C13.0594 20.4785 12.8316 20.3842 12.6637 20.2163C12.4957 20.0483 12.4014 19.8205 12.4014 19.583C12.4014 19.3455 12.4957 19.1177 12.6637 18.9498C12.8316 18.7818 13.0594 18.6875 13.2969 18.6875H14.7261C14.9637 18.6875 15.1914 18.7818 15.3594 18.9498C15.5273 19.1177 15.6217 19.3455 15.6217 19.583C15.6217 19.8205 15.5273 20.0483 15.3594 20.2163C15.1914 20.3842 14.9637 20.4785 14.7261 20.4785Z" fill="currentColor" stroke="white" stroke-width="0.3"/>
<path d="M10.0653 20.4785H8.63844C8.40094 20.4785 8.17315 20.3842 8.00521 20.2163C7.83727 20.0483 7.74292 19.8205 7.74292 19.583C7.74292 19.3455 7.83727 19.1177 8.00521 18.9498C8.17315 18.7818 8.40094 18.6875 8.63844 18.6875H10.0653C10.3028 18.6875 10.5306 18.7818 10.6985 18.9498C10.8665 19.1177 10.9608 19.3455 10.9608 19.583C10.9608 19.8205 10.8665 20.0483 10.6985 20.2163C10.5306 20.3842 10.3028 20.4785 10.0653 20.4785Z" fill="currentColor" stroke="white" stroke-width="0.3"/>
<path d="M5.4089 17.3575H3.98024C3.74273 17.3575 3.51495 17.2631 3.34701 17.0952C3.17907 16.9272 3.08472 16.6994 3.08472 16.4619C3.08472 16.2244 3.17907 15.9966 3.34701 15.8287C3.51495 15.6608 3.74273 15.5664 3.98024 15.5664H5.4089C5.6464 15.5664 5.87418 15.6608 6.04213 15.8287C6.21007 15.9966 6.30442 16.2244 6.30442 16.4619C6.30442 16.6994 6.21007 16.9272 6.04213 17.0952C5.87418 17.2631 5.6464 17.3575 5.4089 17.3575Z" fill="currentColor" stroke="white" stroke-width="0.3"/>
<path d="M14.7261 17.3575H13.2969C13.0594 17.3575 12.8316 17.2631 12.6637 17.0952C12.4957 16.9272 12.4014 16.6994 12.4014 16.4619C12.4014 16.2244 12.4957 15.9966 12.6637 15.8287C12.8316 15.6608 13.0594 15.5664 13.2969 15.5664H14.7261C14.9637 15.5664 15.1914 15.6608 15.3594 15.8287C15.5273 15.9966 15.6217 16.2244 15.6217 16.4619C15.6217 16.6994 15.5273 16.9272 15.3594 17.0952C15.1914 17.2631 14.9637 17.3575 14.7261 17.3575Z" fill="currentColor" stroke="white" stroke-width="0.3"/>
<path d="M10.0653 17.3575H8.63844C8.40094 17.3575 8.17315 17.2631 8.00521 17.0952C7.83727 16.9272 7.74292 16.6994 7.74292 16.4619C7.74292 16.2244 7.83727 15.9966 8.00521 15.8287C8.17315 15.6608 8.40094 15.5664 8.63844 15.5664H10.0653C10.3028 15.5664 10.5306 15.6608 10.6985 15.8287C10.8665 15.9966 10.9608 16.2244 10.9608 16.4619C10.9608 16.6994 10.8665 16.9272 10.6985 17.0952C10.5306 17.2631 10.3028 17.3575 10.0653 17.3575Z" fill="currentColor" stroke="white" stroke-width="0.3"/>
</svg>
