<svg width="20" height="20" viewBox="0 0 20 20" fill="none" xmlns="http://www.w3.org/2000/svg">
<path fill-rule="evenodd" clip-rule="evenodd" d="M16.362 3.77918C14.7212 2.13647 12.5392 1.23142 10.2143 1.23047C5.42415 1.23047 1.52544 5.12887 1.52357 9.92054C1.5229 11.4523 1.92309 12.9474 2.68364 14.2653L1.45068 18.7688L6.05778 17.5602C7.32714 18.2526 8.75635 18.6176 10.2109 18.618H10.2144C10.2141 18.618 10.2147 18.618 10.2144 18.618C15.0041 18.618 18.9031 14.7193 18.9051 9.92749C18.906 7.60529 18.0029 5.42182 16.362 3.77918ZM10.2144 17.1503H10.2114C8.91534 17.1498 7.64404 16.8016 6.53498 16.1435L6.27124 15.9869L3.53733 16.7041L4.26708 14.0385L4.09531 13.7652C3.37226 12.6152 2.99038 11.2859 2.99094 9.92103C2.9925 5.93839 6.23297 2.69827 10.2173 2.69827C12.1466 2.69887 13.9603 3.45124 15.3241 4.81659C16.6879 6.18194 17.4385 7.99681 17.4377 9.92689C17.4361 13.9098 14.1957 17.1503 10.2144 17.1503Z" fill="currentColor"/>
<path fill-rule="evenodd" clip-rule="evenodd" d="M14.1765 11.7404C13.9593 11.6317 12.8917 11.1065 12.6927 11.0339C12.4936 10.9615 12.3488 10.9252 12.2041 11.1426C12.0594 11.36 11.6432 11.8491 11.5165 11.9941C11.3899 12.1389 11.2631 12.1572 11.046 12.0484C10.8289 11.9397 10.1292 11.7104 9.29979 10.9706C8.65421 10.3948 8.21843 9.68371 8.09171 9.46626C7.96506 9.24891 8.07823 9.1314 8.18696 9.0231C8.28464 8.92576 8.40413 8.76948 8.51271 8.64266C8.62126 8.51591 8.65746 8.42524 8.72985 8.28043C8.80224 8.13547 8.76608 8.00865 8.71175 7.89999C8.65746 7.7913 8.22319 6.72246 8.04225 6.28759C7.86593 5.86422 7.68693 5.92158 7.55362 5.91485C7.42715 5.90853 7.28219 5.90723 7.13745 5.90723C6.9927 5.90723 6.7574 5.96159 6.5584 6.17894C6.35936 6.39635 5.79834 6.92174 5.79834 7.99048C5.79834 9.05936 6.57646 10.0919 6.68504 10.2368C6.79359 10.3818 8.21627 12.5751 10.3946 13.5157C10.9127 13.7395 11.3172 13.8731 11.6325 13.9731C12.1527 14.1384 12.6261 14.1151 13.0003 14.0592C13.4175 13.9968 14.2851 13.5339 14.466 13.0267C14.647 12.5194 14.647 12.0846 14.5927 11.994C14.5384 11.9035 14.3936 11.8491 14.1765 11.7404Z" fill="currentColor"/>
</svg>
