<svg width="20" height="20" viewBox="0 0 20 20" fill="none" xmlns="http://www.w3.org/2000/svg">
<g opacity="0.3" clip-path="url(#clip0_2219_1087)">
<path d="M10 0C4.47656 0 0 4.47656 0 10C0 15.5234 4.47656 20 10 20C15.5234 20 20 15.5234 20 10C20 4.47656 15.5234 0 10 0ZM10 18.125C5.51953 18.125 1.875 14.4801 1.875 10C1.875 5.51992 5.51953 1.875 10 1.875C14.4805 1.875 18.125 5.51992 18.125 10C18.125 14.4801 14.4805 18.125 10 18.125Z" fill="black"/>
<path d="M6 9C5.55817 9 5.2 9.3582 5.2 9.8V10.2C5.2 10.6418 5.55817 11 6 11H14.4C14.8418 11 15.2 10.6418 15.2 10.2V9.8C15.2 9.3582 14.8418 9 14.4 9H6Z" fill="black"/>
</g>
<defs>
<clipPath id="clip0_2219_1087">
<rect width="20" height="20" fill="white"/>
</clipPath>
</defs>
</svg>
