<svg width="21" height="21" viewBox="0 0 21 21" fill="none" xmlns="http://www.w3.org/2000/svg">
<path fill-rule="evenodd" clip-rule="evenodd" d="M17.1996 3.76115C15.422 1.98152 13.0581 1.00103 10.5395 1C5.35007 1 1.12639 5.22333 1.12437 10.4144C1.12364 12.0738 1.55719 13.6935 2.38113 15.1213L1.04541 20.0001L6.03651 18.6909C7.41167 19.4409 8.96 19.8363 10.5358 19.8368H10.5396C10.5393 19.8368 10.5399 19.8368 10.5396 19.8368C15.7285 19.8368 19.9525 15.6131 19.9547 10.4219C19.9556 7.90617 18.9772 5.5407 17.1996 3.76115ZM10.5396 18.2468H10.5364C9.13225 18.2462 7.75498 17.8689 6.55348 17.156L6.26776 16.9864L3.30597 17.7633L4.09655 14.8756L3.91047 14.5795C3.12715 13.3336 2.71344 11.8935 2.71405 10.4149C2.71573 6.10032 6.2263 2.59014 10.5427 2.59014C12.6329 2.59079 14.5977 3.40587 16.0752 4.88503C17.5526 6.36418 18.3658 8.33031 18.365 10.4213C18.3632 14.7362 14.8528 18.2468 10.5396 18.2468Z" fill="white"/>
<path d="M10.5396 19.8368H10.5358C8.96 19.8363 7.41167 19.4409 6.03651 18.6909L1.04541 20.0001L2.38113 15.1213C1.55719 13.6935 1.12364 12.0738 1.12437 10.4144C1.12639 5.22333 5.35007 1 10.5395 1C13.0581 1.00103 15.422 1.98152 17.1996 3.76115C18.9772 5.5407 19.9556 7.90617 19.9547 10.4219C19.9525 15.6131 15.7285 19.8368 10.5396 19.8368ZM10.5396 19.8368C10.5399 19.8368 10.5393 19.8368 10.5396 19.8368ZM10.5396 18.2468H10.5364C9.13225 18.2462 7.75498 17.8689 6.55348 17.156L6.26776 16.9864L3.30597 17.7633L4.09655 14.8756L3.91047 14.5795C3.12715 13.3336 2.71344 11.8935 2.71405 10.4149C2.71573 6.10032 6.2263 2.59014 10.5427 2.59014C12.6329 2.59079 14.5977 3.40587 16.0752 4.88503C17.5526 6.36418 18.3658 8.33031 18.365 10.4213C18.3632 14.7362 14.8528 18.2468 10.5396 18.2468Z" stroke="white" stroke-width="0.3"/>
<path fill-rule="evenodd" clip-rule="evenodd" d="M14.8321 12.3859C14.5968 12.2681 13.4402 11.6991 13.2246 11.6205C13.009 11.542 12.8521 11.5028 12.6953 11.7383C12.5385 11.9738 12.0876 12.5037 11.9504 12.6607C11.8132 12.8176 11.6759 12.8374 11.4407 12.7195C11.2055 12.6018 10.4475 12.3534 9.54892 11.5519C8.84953 10.9281 8.37742 10.1578 8.24014 9.9222C8.10293 9.68674 8.22554 9.55944 8.34333 9.44211C8.44915 9.33666 8.5786 9.16736 8.69623 9.02996C8.81383 8.89264 8.85304 8.79442 8.93146 8.63754C9.00989 8.4805 8.97072 8.34311 8.91186 8.22539C8.85304 8.10764 8.38258 6.94971 8.18656 6.4786C7.99554 6.01994 7.80162 6.08208 7.6572 6.07478C7.52018 6.06794 7.36315 6.06653 7.20634 6.06653C7.04953 6.06653 6.79461 6.12542 6.57902 6.36088C6.3634 6.59642 5.75562 7.16561 5.75562 8.32342C5.75562 9.48139 6.59859 10.6 6.71623 10.757C6.83382 10.9141 8.37509 13.2902 10.735 14.3092C11.2962 14.5516 11.7345 14.6963 12.0761 14.8047C12.6397 14.9838 13.1525 14.9585 13.5578 14.8979C14.0099 14.8304 14.9497 14.3289 15.1457 13.7794C15.3418 13.2298 15.3418 12.7588 15.2829 12.6607C15.2242 12.5626 15.0673 12.5037 14.8321 12.3859Z" fill="white" stroke="white" stroke-width="0.3"/>
</svg>
