<svg width="78" height="18" viewBox="0 0 78 18" fill="none" xmlns="http://www.w3.org/2000/svg">
<path d="M24.3417 2.72283C24.0551 1.65827 23.2157 0.818898 22.1512 0.532283C20.2063 0 12.4268 0 12.4268 0C12.4268 0 4.64724 0 2.70236 0.511811C1.65827 0.798425 0.798425 1.65827 0.511811 2.72283C0 4.66772 0 8.70079 0 8.70079C0 8.70079 0 12.7543 0.511811 14.6787C0.798425 15.7433 1.6378 16.5827 2.70236 16.8693C4.66772 17.4016 12.4268 17.4016 12.4268 17.4016C12.4268 17.4016 20.2063 17.4016 22.1512 16.8898C23.2157 16.6032 24.0551 15.7638 24.3417 14.6992C24.8535 12.7543 24.8535 8.72126 24.8535 8.72126C24.8535 8.72126 24.874 4.66772 24.3417 2.72283Z" fill="#FF0000"/>
<path d="M9.94958 4.97461V12.4266L16.4189 8.70059L9.94958 4.97461Z" fill="white"/>
<path d="M36.0929 15.8456C35.6016 15.5181 35.2536 15.0062 35.0488 14.2897C34.8441 13.5936 34.7418 12.6519 34.7418 11.5055V9.92908C34.7418 8.76215 34.8646 7.82042 35.0898 7.10388C35.3355 6.38735 35.704 5.87554 36.1953 5.54798C36.7071 5.22042 37.3622 5.05664 38.1811 5.05664C38.9796 5.05664 39.6347 5.22042 40.126 5.54798C40.6174 5.87554 40.9654 6.40782 41.1906 7.10388C41.4158 7.79995 41.5386 8.74168 41.5386 9.92908V11.5055C41.5386 12.6724 41.4362 13.5936 41.2111 14.3102C40.9859 15.0062 40.6378 15.5385 40.1465 15.8661C39.6551 16.1936 38.9796 16.3574 38.1402 16.3574C37.2803 16.337 36.5843 16.1732 36.0929 15.8456ZM38.8567 14.1259C39 13.7779 39.0614 13.1842 39.0614 12.3858V8.98735C39.0614 8.2094 39 7.63617 38.8567 7.26766C38.7134 6.89916 38.4882 6.73538 38.1402 6.73538C37.8126 6.73538 37.567 6.91963 37.4441 7.26766C37.3008 7.63617 37.2394 8.2094 37.2394 8.98735V12.3858C37.2394 13.1842 37.3008 13.7779 37.4441 14.1259C37.567 14.474 37.8126 14.6582 38.1607 14.6582C38.4882 14.6582 38.7134 14.4944 38.8567 14.1259Z" fill="#282828"/>
<path d="M73.8851 11.5259V12.0786C73.8851 12.7747 73.9055 13.307 73.9465 13.655C73.9874 14.003 74.0693 14.2692 74.2126 14.4125C74.3355 14.5763 74.5402 14.6581 74.8268 14.6581C75.1953 14.6581 75.441 14.5148 75.5843 14.2282C75.7276 13.9416 75.789 13.4707 75.8095 12.7952L77.9181 12.918C77.9386 13.0203 77.9386 13.1432 77.9386 13.307C77.9386 14.3101 77.6725 15.0676 77.1197 15.5589C76.567 16.0503 75.789 16.2959 74.7858 16.2959C73.578 16.2959 72.7386 15.907 72.2473 15.1495C71.7559 14.392 71.5103 13.2251 71.5103 11.6282V9.72429C71.5103 8.08649 71.7559 6.89909 72.2677 6.14161C72.7795 5.38413 73.6394 5.01562 74.8473 5.01562C75.6866 5.01562 76.3418 5.1794 76.7921 5.48649C77.2425 5.79358 77.5496 6.28492 77.7339 6.91956C77.9181 7.57468 78 8.47547 78 9.62192V11.4849H73.8851V11.5259ZM74.1921 6.94003C74.0693 7.10381 73.9874 7.34948 73.9465 7.69751C73.9055 8.04555 73.8851 8.57783 73.8851 9.29437V10.0723H75.6866V9.29437C75.6866 8.5983 75.6662 8.06602 75.6252 7.69751C75.5843 7.32901 75.4819 7.08334 75.3591 6.94003C75.2362 6.79673 75.0315 6.71484 74.7858 6.71484C74.4992 6.69436 74.315 6.77626 74.1921 6.94003Z" fill="#282828"/>
<path d="M30.1149 11.3214L27.3307 1.22852H29.7669L30.7496 5.79387C30.9953 6.91985 31.1795 7.88206 31.3023 8.68048H31.3638C31.4456 8.10726 31.6299 7.16552 31.9165 5.81434L32.9401 1.22852H35.3764L32.5512 11.3214V16.1529H30.1354V11.3214H30.1149Z" fill="#282828"/>
<path d="M49.4614 5.26172V16.1735H47.537L47.3323 14.8428H47.2709C46.759 15.846 45.9606 16.3578 44.9165 16.3578C44.2 16.3578 43.6677 16.1121 43.3197 15.6412C42.9716 15.1704 42.8079 14.4334 42.8079 13.4098V5.26172H45.2646V13.2664C45.2646 13.7578 45.326 14.1058 45.4283 14.3105C45.5307 14.5153 45.7149 14.6176 45.9606 14.6176C46.1653 14.6176 46.3701 14.5562 46.5748 14.4129C46.7795 14.2901 46.9228 14.1263 47.0047 13.9216V5.26172H49.4614Z" fill="#282828"/>
<path d="M62.052 5.26172V16.1735H60.1276L59.9228 14.8428H59.8614C59.3496 15.846 58.5512 16.3578 57.5071 16.3578C56.7906 16.3578 56.2583 16.1121 55.9102 15.6412C55.5622 15.1704 55.3984 14.4334 55.3984 13.4098V5.26172H57.8551V13.2664C57.8551 13.7578 57.9165 14.1058 58.0189 14.3105C58.1213 14.5153 58.3055 14.6176 58.5512 14.6176C58.7559 14.6176 58.9606 14.5562 59.1654 14.4129C59.3701 14.2901 59.5134 14.1263 59.5953 13.9216V5.26172H62.052Z" fill="#282828"/>
<path d="M56.1355 3.21434H53.6992V16.1529H51.304V3.21434H48.8677V1.22852H56.1355V3.21434Z" fill="#282828"/>
<path d="M70.1795 7.00177C70.0362 6.3057 69.7905 5.81436 69.4629 5.50728C69.1354 5.20019 68.6645 5.03641 68.0913 5.03641C67.6409 5.03641 67.211 5.15925 66.822 5.42539C66.433 5.67106 66.1259 6.01909 65.9212 6.42854H65.9007V0.675781H63.5259V16.1529H65.5527L65.7984 15.1293H65.8598C66.0441 15.4978 66.3307 15.7844 66.7196 16.0096C67.1086 16.2144 67.5181 16.3372 67.9889 16.3372C68.8283 16.3372 69.422 15.9482 69.811 15.1907C70.2 14.4333 70.4047 13.2254 70.4047 11.6081V9.88838C70.3842 8.63956 70.3228 7.67736 70.1795 7.00177ZM67.9275 11.4443C67.9275 12.2427 67.8866 12.8569 67.8252 13.3073C67.7637 13.7577 67.6409 14.0852 67.4976 14.2695C67.3338 14.4537 67.1291 14.5561 66.8834 14.5561C66.6787 14.5561 66.4944 14.5152 66.3307 14.4128C66.1669 14.3104 66.0236 14.1671 65.9212 13.9829V7.80019C66.0031 7.51358 66.1464 7.26791 66.3511 7.06318C66.5559 6.87893 66.7811 6.77657 67.0063 6.77657C67.2519 6.77657 67.4567 6.87893 67.5795 7.06318C67.7228 7.26791 67.8047 7.59547 67.8661 8.04586C67.9275 8.51673 67.948 9.17185 67.948 10.0112V11.4443H67.9275Z" fill="#282828"/>
</svg>
