<svg width="25" height="18" viewBox="0 0 25 18" fill="none" xmlns="http://www.w3.org/2000/svg">
<path d="M24.3417 2.72283C24.0551 1.65827 23.2157 0.818898 22.1512 0.532283C20.2063 0 12.4268 0 12.4268 0C12.4268 0 4.64724 0 2.70236 0.511811C1.65827 0.798425 0.798425 1.65827 0.511811 2.72283C0 4.66772 0 8.70079 0 8.70079C0 8.70079 0 12.7543 0.511811 14.6787C0.798425 15.7433 1.6378 16.5827 2.70236 16.8693C4.66772 17.4016 12.4268 17.4016 12.4268 17.4016C12.4268 17.4016 20.2063 17.4016 22.1512 16.8898C23.2157 16.6031 24.0551 15.7638 24.3417 14.6992C24.8535 12.7543 24.8535 8.72126 24.8535 8.72126C24.8535 8.72126 24.874 4.66772 24.3417 2.72283Z" fill="#FFBB00"/>
<path d="M9.94958 4.97461V12.4266L16.4189 8.70059L9.94958 4.97461Z" fill="white"/>
</svg>
