<svg width="71" height="47" viewBox="0 0 71 47" fill="none" xmlns="http://www.w3.org/2000/svg">
<path d="M47.6884 2.63708e-06C43.0697 -0.00219843 38.5553 1.3735 34.7228 3.95113C34.459 4.13148 32.6354 5.43405 32.5552 5.49751C29.5259 7.77533 27.4919 8.16945 24.7064 7.4714C24.5361 7.42798 23.7378 7.15411 23.4873 7.05725C20.8857 6.07771 18.087 5.73698 15.3263 6.06371C12.5657 6.39045 9.9238 7.37509 7.62272 8.93488C5.32165 10.4947 3.42861 12.584 2.10272 15.0274C0.776835 17.4707 0.056832 20.1966 0.00322945 22.976C-0.0503731 25.7554 0.563991 28.5071 1.79469 30.9997C3.02538 33.4924 4.83645 35.6532 7.07567 37.3005C9.31489 38.9479 11.9168 40.0337 14.6628 40.4666C17.4088 40.8995 20.2186 40.667 22.8561 39.7885C27.0109 38.546 29.2654 38.8867 31.8739 40.727C32.3949 41.0944 33.6507 41.8993 33.9112 42.0897C36.8801 44.2683 40.323 45.7122 43.9577 46.3032C47.5924 46.8942 51.3154 46.6153 54.8216 45.4895C58.3277 44.3637 61.5171 42.423 64.1283 39.8264C66.7395 37.2299 68.6982 34.0515 69.8438 30.5518C70.9893 27.052 71.2892 23.3306 70.7187 19.6927C70.1482 16.0547 68.7237 12.6037 66.5619 9.62257C64.4 6.64147 61.5625 4.21515 58.2818 2.54253C55.0012 0.869896 51.3708 -0.00142183 47.6884 2.63708e-06Z" fill="#007858"/>
<path d="M39.2818 26.9064C38.6184 27.5593 37.7534 27.9682 36.8279 28.0664C35.9023 28.1647 34.9708 27.9465 34.1851 27.4474L32.6387 29.9023C33.9785 30.7489 35.5648 31.1185 37.1409 30.9512C38.7169 30.7839 40.1903 30.0895 41.3225 28.9805L39.2818 26.9064ZM36.4963 16.9066C35.2191 16.8863 33.9604 17.2139 32.8552 17.8542C31.7499 18.4945 30.8396 19.4235 30.2219 20.5416C29.6042 21.6596 29.3023 22.9247 29.3485 24.2012C29.3948 25.4778 29.7874 26.7177 30.4845 27.7881L43.2363 22.3374C42.8774 20.8112 42.0197 19.4483 40.7988 18.4646C39.578 17.4809 38.0639 16.9327 36.4963 16.9066ZM32.2713 24.3814C32.1749 23.4993 32.3646 22.6095 32.8123 21.8434C33.2601 21.0774 33.9423 20.4755 34.7582 20.1267C35.5742 19.7778 36.4806 19.7005 37.3438 19.9061C38.207 20.1118 38.9813 20.5894 39.5523 21.2686L32.2713 24.3814ZM47.2408 13.7371V27.3272L49.5988 28.3058L48.4866 30.9777L46.1487 30.0091C45.6779 29.8077 45.2779 29.4705 44.9997 29.0406C44.6891 28.5401 44.5323 27.9594 44.5489 27.3706V13.7371H47.2408ZM26.707 13.7371V27.3272L29.045 28.3058L27.9328 30.9777L25.5948 30.0091C25.1398 29.8061 24.7535 29.4755 24.4826 29.0573C24.1708 28.5572 24.0128 27.9765 24.0284 27.3873V13.7371H26.707Z" fill="white"/>
<path d="M58.8437 20.2099C59.3337 20.4462 59.7724 20.7767 60.1346 21.1826C60.4968 21.5885 60.7755 22.0618 60.9548 22.5754C61.134 23.089 61.2104 23.6329 61.1794 24.1761C61.1484 24.7192 61.0107 25.2509 60.7742 25.7408L63.3827 26.9932C64.0887 25.5207 64.2609 23.8485 63.8698 22.263C63.4787 20.6774 62.5485 19.2772 61.2386 18.3019C59.9287 17.3267 58.3205 16.8372 56.6894 16.9171C55.0583 16.9971 53.5057 17.6416 52.2975 18.7403L54.248 20.8812C54.859 20.3224 55.6235 19.9597 56.4428 19.84C57.2621 19.7203 58.0984 19.8492 58.8437 20.2099Z" fill="#C7D540"/>
<path d="M55.2533 27.6814C54.2632 27.2045 53.5027 26.3543 53.1389 25.3173C52.7751 24.2804 52.8376 23.1414 53.3128 22.1505L50.7043 20.8947C50.0052 22.3653 49.8375 24.0327 50.2297 25.6131C50.6219 27.1935 51.5497 28.5891 52.8553 29.5622C54.1608 30.5354 55.7633 31.0259 57.3899 30.9503C59.0164 30.8747 60.5665 30.2377 61.7761 29.1476L59.8256 27.0101C59.2163 27.5633 58.456 27.9225 57.6417 28.0421C56.8274 28.1617 55.9959 28.0361 55.2533 27.6814ZM21.3631 27.8784V23.944C21.3631 22.5568 20.9518 21.2008 20.1811 20.0473C19.4104 18.8939 18.315 17.9949 17.0334 17.4641C15.7517 16.9332 14.3415 16.7943 12.981 17.0649C11.6204 17.3356 10.3707 18.0036 9.38976 18.9845C8.40885 19.9654 7.74085 21.2151 7.47022 22.5757C7.19959 23.9362 7.33849 25.3465 7.86935 26.6281C8.40021 27.9097 9.29919 29.0051 10.4526 29.7758C11.606 30.5465 12.9621 30.9578 14.3493 30.9578C15.4367 30.958 16.5092 30.7053 17.4821 30.2197L16.3532 27.5812C15.7212 27.9307 15.0088 28.1091 14.2866 28.0988C13.5645 28.0884 12.8575 27.8897 12.2357 27.5223C11.6139 27.1549 11.0988 26.6315 10.7414 26.0039C10.3839 25.3763 10.1965 24.6663 10.1978 23.944C10.194 23.2655 10.3581 22.5966 10.6754 21.9968C10.9547 21.4735 11.3426 21.0158 11.8132 20.6547C12.2839 20.2935 12.8263 20.0371 13.4041 19.9027C13.7105 19.8301 14.0243 19.7931 14.3393 19.7925C15.4415 19.7916 16.499 20.2284 17.2794 21.0069C18.0597 21.7853 18.499 22.8418 18.5008 23.944V27.845C18.4842 28.4338 18.641 29.0145 18.9517 29.515C19.2318 29.9432 19.6312 30.2799 20.1006 30.4836L21.4166 31.0046L22.5321 28.3327L21.3631 27.8784Z" fill="white"/>
</svg>
