<svg width="55" height="55" viewBox="0 0 55 55" fill="none" xmlns="http://www.w3.org/2000/svg">
<path fill-rule="evenodd" clip-rule="evenodd" d="M5.69019 5.68848H49.3109V49.3092H5.69019V5.68848Z" fill="#016FD0"/>
<path fill-rule="evenodd" clip-rule="evenodd" d="M21.4917 42.4065V26.7756L49.3097 26.8V31.1185L46.0939 34.5548L49.3097 38.0226V42.4308H44.1769L41.4482 39.421L38.7389 42.443L21.4917 42.4065Z" fill="white"/>
<path fill-rule="evenodd" clip-rule="evenodd" d="M23.3472 40.6912V28.4944H33.6902V31.3031H26.6963V33.2102H33.5228V35.9729H26.6963V37.8461H33.6902V40.6912H23.3472Z" fill="#016FD0"/>
<path fill-rule="evenodd" clip-rule="evenodd" d="M33.6377 40.6912L39.3617 34.5844L33.6377 28.4944H38.0677L41.5647 32.3597L45.071 28.4944H49.3097V28.5914L43.7092 34.5844L49.3097 40.5165V40.6912H45.0277L41.47 36.7871L37.9465 40.6912H33.6377Z" fill="#016FD0"/>
<path fill-rule="evenodd" clip-rule="evenodd" d="M22.7896 12.9036H29.4953L31.8508 18.2521V12.9036H40.1289L41.5564 16.9119L42.9884 12.9036H49.3113V28.5342H15.9026L22.7896 12.9036Z" fill="white"/>
<path fill-rule="evenodd" clip-rule="evenodd" d="M24.0588 14.6028L18.6475 26.7898H22.3601L23.3805 24.3494H28.9128L29.9331 26.7898H33.738L28.3456 14.6028H24.0588ZM24.5241 21.6134L26.148 17.7336L27.769 21.6134H24.5241Z" fill="#016FD0"/>
<path fill-rule="evenodd" clip-rule="evenodd" d="M33.6855 26.7883V14.6013L38.9032 14.6207L41.5882 22.1114L44.2904 14.6013H49.3114V26.7883L46.0812 26.8176V18.4448L43.03 26.7883H40.081L36.9669 18.4181V26.7883H33.6855Z" fill="#016FD0"/>
</svg>
