<svg width="50" height="17" viewBox="0 0 50 17" fill="none" xmlns="http://www.w3.org/2000/svg">
<path d="M0 6.74287H3.69198C4.35813 3.00419 7.41507 0 11.3124 0C15.2098 0 18.8519 3.35486 18.8519 8.41701C18.8519 8.88585 18.8021 9.38971 18.7524 9.77355H6.82981C7.39013 12.0763 9.17074 13.4262 11.3124 13.4262C13.4541 13.4262 14.5249 12.6652 15.6145 11.3418L17.806 13.4791C16.3554 15.2393 14.1888 16.4568 11.3124 16.4568C8.43608 16.4568 4.35813 13.5056 3.69817 9.76688H0V6.7362V6.74287ZM15.6893 6.74287C15.5336 5.79657 15.1289 4.92977 14.5437 4.30773C13.7779 3.49383 12.6572 2.98436 11.3062 2.98436C9.95517 2.98436 8.85946 3.474 8.04381 4.34081C7.22826 5.20771 7.0228 5.75025 6.79869 6.74945H15.6893V6.74287ZM21.0684 0.105877H24.2747V13.1019H30.0834V16.3509H24.3245C22.2077 16.3509 21.0622 15.1334 21.0622 12.8835V0.105877H21.0684ZM30.6936 8.23171C30.6936 3.81809 34.0805 0 38.5631 0C43.0457 0 45.6419 2.97769 46.308 6.74287H50V9.77355H46.308C45.6232 13.5122 42.5102 16.4634 38.5631 16.4634C34.0555 16.4634 30.6936 12.6718 30.6936 8.23171ZM38.5693 13.2674C41.2465 13.2674 43.2325 11.1036 43.2325 8.25821C43.2325 5.41283 41.1966 3.19606 38.5693 3.19606C35.8922 3.19606 33.9061 5.35983 33.9061 8.23171C33.9061 11.1036 35.942 13.2674 38.5693 13.2674Z" fill="#003933"/>
</svg>
