<svg width="91" height="29" viewBox="0 0 91 29" fill="none" xmlns="http://www.w3.org/2000/svg">
<mask id="mask0_2132_1597" style="mask-type:luminance" maskUnits="userSpaceOnUse" x="0" y="0" width="91" height="29">
<path d="M90.2043 0.312988H0.796143V28.6857H90.2043V0.312988Z" fill="white"/>
</mask>
<g mask="url(#mask0_2132_1597)">
<path d="M4 11.0583H10.0549C11.1473 4.92687 16.1607 0 22.5523 0C28.9441 0 34.9172 5.50196 34.9172 13.8039C34.9172 14.5728 34.8355 15.3991 34.7539 16.0286H15.2009C16.1198 19.8051 19.04 22.0189 22.5523 22.0189C26.0648 22.0189 27.8209 20.7709 29.6077 18.6005L33.2018 22.1057C30.8229 24.9924 27.2696 26.9892 22.5523 26.9892C17.8352 26.9892 11.1473 22.1491 10.065 16.0177H4V11.0474V11.0583ZM29.7304 11.0583C29.475 9.50638 28.8114 8.08482 27.8516 7.06468C26.5957 5.72988 24.7579 4.89435 22.5422 4.89435C20.3265 4.89435 18.5295 5.69736 17.1919 7.11892C15.8543 8.54064 15.5174 9.43041 15.1499 11.0691H29.7304V11.0583ZM38.5521 0.173639H43.8105V21.4871H53.3368V26.8155H43.8922C40.4206 26.8155 38.542 24.8187 38.542 21.129V0.173639H38.5521ZM54.3375 13.5C54.3375 6.26167 59.892 0 67.2434 0C74.595 0 78.8527 4.88341 79.9452 11.0583H86V16.0286H79.9452C78.8221 22.1601 73.7168 27 67.2434 27C59.8511 27 54.3375 20.7818 54.3375 13.5ZM67.2537 21.7585C71.6442 21.7585 74.9014 18.2099 74.9014 13.5435C74.9014 8.87704 71.5624 5.24154 67.2537 5.24154C62.8632 5.24154 59.606 8.79012 59.606 13.5C59.606 18.2099 62.9448 21.7585 67.2537 21.7585Z" fill="#003933"/>
</g>
</svg>
