<svg width="82" height="33" viewBox="0 0 82 33" fill="none" xmlns="http://www.w3.org/2000/svg">
<path d="M7.98022 7.66772H74.8033V25.3704H7.98022V7.66772Z" fill="white"/>
<path d="M34.7121 32.2617L0.908813 32.2723V32.2003C0.908813 32.1605 0.96267 31.9022 1.02792 31.6267C1.09421 31.3512 1.19674 30.9127 1.25578 30.6523C1.31534 30.3922 1.41632 29.9498 1.48158 29.6698L1.71979 28.6327C1.78712 28.3423 1.89069 27.8838 1.95181 27.6135C2.01292 27.3437 2.11442 26.9013 2.17812 26.631C2.33881 25.9462 2.49625 25.2607 2.65042 24.5747C2.70946 24.3145 2.8032 23.9133 2.85861 23.6832C2.91402 23.453 2.98497 23.1418 3.01605 22.9917C3.04711 22.8415 3.14706 22.3997 3.23872 22.009C3.3304 21.619 3.43137 21.1767 3.46349 21.0265C3.4956 20.8762 3.59702 20.4343 3.68934 20.0438C3.78149 19.6538 3.8829 19.2118 3.91461 19.0612C3.94565 18.911 4.04772 18.4692 4.14086 18.0787C4.23351 17.6885 4.33359 17.2545 4.36349 17.1145C4.42178 16.8472 4.48173 16.5802 4.54383 16.3135C4.6132 16.0132 4.74515 15.4483 4.83632 15.0582C4.92748 14.6677 5.08388 13.9883 5.1833 13.5478C5.33177 12.8925 5.48156 12.2375 5.63235 11.5827L5.85613 10.6185C6.01566 9.93317 6.17388 9.2475 6.33044 8.56167C6.3894 8.302 6.48998 7.868 6.55422 7.59767C6.6183 7.32767 6.72928 6.8525 6.79964 6.54243C6.88122 6.18932 6.96908 5.8374 7.06322 5.4868C7.13737 5.21642 7.24191 4.8892 7.29625 4.75887C7.35009 4.62898 7.49872 4.34705 7.62721 4.13213L7.86024 3.74205L8.07213 3.49523C8.18807 3.35982 8.39632 3.14537 8.53406 3.01918C8.69838 2.87088 8.87064 2.72975 9.05032 2.59628C9.19631 2.49045 9.40771 2.34717 9.52051 2.2783C9.63298 2.20943 9.85411 2.0888 10.0115 2.01023C10.1689 1.93167 10.3895 1.82905 10.5025 1.78192C10.6148 1.73477 10.8454 1.6488 11.0141 1.59103C11.1829 1.5328 11.5051 1.43573 11.7297 1.37473C12.0396 1.29562 12.3529 1.22777 12.6688 1.17137C12.9598 1.12007 13.4196 1.0512 13.6916 1.01885L14.1846 0.96015L48.0086 0.9486L81.8331 0.9375V1.0096C81.8331 1.04935 81.7786 1.30725 81.7124 1.58272C81.6461 1.85863 81.5353 2.33007 81.4658 2.63003C81.3969 2.93045 81.296 3.36445 81.2417 3.59462C81.1879 3.82478 81.0848 4.26663 81.0138 4.57722L80.7703 5.6324C80.7078 5.90277 80.6062 6.34462 80.5446 6.615C80.4835 6.88533 80.3814 7.32717 80.3178 7.59767C80.2546 7.868 80.1562 8.29367 80.0992 8.54367L79.8708 9.54483C79.8019 9.84517 79.6916 10.3198 79.6253 10.6C79.5585 10.88 79.4576 11.3145 79.4006 11.5645L79.1722 12.5652C79.1033 12.8657 78.993 13.3403 78.9268 13.6208C78.8523 13.936 78.7791 14.2513 78.7071 14.567L78.4799 15.5675C78.3311 16.2168 78.1814 16.8658 78.0308 17.5148C77.9651 17.7948 77.8531 18.2778 77.7818 18.5883C77.7107 18.898 77.6087 19.3408 77.5548 19.571L77.3327 20.5352C77.2638 20.8355 77.1545 21.3102 77.0893 21.5908L76.863 22.5733L76.6325 23.574L76.3892 24.6297L76.1669 25.5938L75.9412 26.5763C75.8728 26.8768 75.7615 27.3497 75.6936 27.6278L75.5704 28.1335L75.4232 28.4828C75.343 28.6757 75.2214 28.9312 75.154 29.051C74.9772 29.3555 74.7704 29.6455 74.5362 29.9175C74.4652 29.9962 74.2518 30.199 74.0624 30.3687L73.7174 30.6765L73.3849 30.8863C73.2026 31.0018 73.0059 31.1192 72.9479 31.1473C72.8903 31.1752 72.6703 31.2755 72.4589 31.3693C72.2422 31.4658 72.0213 31.5547 71.7967 31.6355C71.574 31.7078 71.3488 31.7737 71.1214 31.8328C70.9034 31.8892 70.6697 31.9452 70.6025 31.9562C70.5351 31.9678 70.3006 32.0112 70.0819 32.0523C69.8629 32.0935 69.4211 32.155 69.1001 32.1892L68.5159 32.2512L34.7121 32.2617ZM22.6854 24.484H23.5653L23.5903 24.4263C23.6036 24.3943 23.615 24.32 23.615 24.2608C23.615 24.2017 23.6441 23.9858 23.6793 23.7815C23.7145 23.5773 23.7979 23.1072 23.8641 22.737C23.9305 22.3668 24.0299 21.8098 24.0842 21.4997C24.1392 21.1897 24.2064 20.7925 24.2334 20.617C24.2603 20.4418 24.2935 20.2985 24.3069 20.2985C24.3199 20.2985 24.3769 20.3762 24.4334 20.4708L24.5353 20.6428L24.7622 20.8462L24.9889 21.0495L25.2687 21.1485L25.5473 21.2478L25.8803 21.2862L26.2127 21.3245L26.6353 21.3018L27.0573 21.2788L27.5146 21.1735L27.9719 21.068L28.2175 20.9682C28.3521 20.9137 28.5919 20.794 28.7493 20.703L29.0356 20.5365L29.3029 20.2995C29.4495 20.1692 29.6566 19.9597 29.7628 19.8345C29.8695 19.7088 29.9564 19.5973 29.9564 19.5863C29.9564 19.5747 30.0082 19.4975 30.0725 19.4133C30.1362 19.3302 30.2667 19.0977 30.3625 18.8977C30.4583 18.6975 30.6079 18.337 30.6954 18.0972L30.854 17.6603L30.9357 17.2818C30.9808 17.0738 31.0393 16.73 31.0647 16.5178L31.1113 16.1318L31.0843 15.8042L31.0574 15.4765L30.972 15.1493L30.8865 14.8217L30.7483 14.5767L30.6105 14.3312L30.3433 14.0793L30.0766 13.8278L29.7607 13.6828L29.4447 13.5372L29.0972 13.4632L28.7493 13.3893L28.4018 13.3662L28.0538 13.344L27.6664 13.3833L27.2791 13.423L26.9632 13.4947L26.6467 13.5668L26.3722 13.6795C26.2044 13.7497 26.0413 13.828 25.8834 13.9143C25.7894 13.9658 25.6994 14.023 25.614 14.0853C25.583 14.113 25.51 14.163 25.4509 14.1977L25.3432 14.26L25.4183 13.9402C25.4598 13.7645 25.4945 13.6 25.4955 13.575L25.4969 13.5298H23.9967L23.8652 14.2665C23.7108 15.1315 23.5511 15.9958 23.3861 16.8593L23.1614 18.0425C23.0941 18.3925 22.9838 18.9493 22.9155 19.2798C22.6836 20.402 22.4507 21.5242 22.2169 22.646C22.1495 22.9662 22.0392 23.4742 21.9723 23.7742C21.9265 23.9837 21.8785 24.193 21.8284 24.4018L21.8056 24.484H22.6854ZM26.4727 20.2763L26.131 20.2948L25.9077 20.2592L25.6845 20.2242L25.4576 20.1322L25.2309 20.0402L25.0723 19.9057L24.914 19.7712L24.8228 19.589C24.764 19.4667 24.7161 19.3405 24.6793 19.2115L24.6269 19.0155L24.6477 18.7017L24.6684 18.3883L24.7741 17.897C24.832 17.6267 24.9361 17.1192 25.0056 16.7688C25.0745 16.4185 25.1795 15.905 25.2386 15.6282L25.3453 15.1243L25.5798 14.951C25.7234 14.8463 25.8751 14.7512 26.034 14.6663L26.2537 14.5553L26.54 14.4768L26.8264 14.3982L27.1945 14.3788L27.5628 14.3593L27.8627 14.4163L28.1625 14.4732L28.3744 14.56L28.5856 14.6465L28.7633 14.8053L28.9403 14.964L29.0361 15.1317C29.089 15.2242 29.163 15.4053 29.2003 15.5338L29.2692 15.7677L29.2485 16.4592L29.2272 17.1505L29.1222 17.5597C29.0642 17.7842 28.9544 18.128 28.8778 18.3235L28.7379 18.6795L28.5674 18.967C28.4738 19.1255 28.3293 19.3395 28.2459 19.4425C28.163 19.5457 28.0305 19.6792 27.9517 19.7393C27.8725 19.7993 27.741 19.8937 27.6586 19.9482L27.5085 20.048L27.1615 20.1528L26.8145 20.2578L26.4727 20.2763ZM34.9679 21.2765L35.4184 21.2812L35.868 21.2447C36.1155 21.2247 36.5205 21.1827 36.768 21.1517C37.0866 21.1092 37.4035 21.0577 37.7183 20.9973L38.2186 20.8998L38.2435 20.7357C38.2569 20.6457 38.3134 20.377 38.3677 20.139L38.4683 19.7065L38.446 19.6865L38.4242 19.6672L38.2709 19.7328C38.0802 19.8043 37.8859 19.8682 37.6888 19.9242L37.26 20.0498L36.8095 20.1275L36.359 20.2052L35.6432 20.2065L34.9269 20.2075L34.6815 20.1382C34.5311 20.0942 34.3836 20.042 34.2402 19.9818L34.0445 19.896L33.883 19.766L33.7213 19.6362L33.595 19.4402L33.4691 19.2443L33.39 18.9983L33.3112 18.752L33.3108 18.2972L33.3098 17.842L33.3801 17.4362L33.45 17.0303L34.0663 17.005L34.6815 16.979L36.9576 16.992L39.2331 17.005L39.3019 16.7462C39.3545 16.5293 39.3972 16.3107 39.4304 16.0908L39.4901 15.6952L39.4911 15.3623L39.4925 15.0295L39.4278 14.7805L39.3626 14.5323L39.2559 14.3677C39.1875 14.2653 39.1104 14.1678 39.025 14.076C38.9436 13.9952 38.8534 13.9218 38.7556 13.857C38.6423 13.789 38.5251 13.7262 38.4045 13.6688L38.1999 13.5718L37.8427 13.4955L37.4853 13.4188L37.0452 13.3813L36.6049 13.344L36.1958 13.3672L35.7867 13.3912L35.2952 13.4752L34.8042 13.5588L34.4977 13.668C34.3289 13.728 34.0709 13.8377 33.9249 13.9115C33.7783 13.985 33.5758 14.1052 33.4744 14.1782C33.3397 14.2783 33.2097 14.3835 33.085 14.4935C32.9494 14.6182 32.8254 14.7523 32.7136 14.8947C32.6224 15.0148 32.4822 15.2273 32.4029 15.3675C32.3226 15.5075 32.2184 15.7038 32.1714 15.8042C32.1243 15.9045 32.0383 16.1092 31.9808 16.259C31.9228 16.4092 31.8321 16.6958 31.7788 16.8958C31.7164 17.1383 31.6625 17.3825 31.6173 17.628L31.552 17.9963V18.538L31.553 19.0797L31.6151 19.3158C31.6493 19.4462 31.7146 19.6427 31.7601 19.7527C31.8062 19.8632 31.8908 20.0267 31.9483 20.1168C32.0062 20.207 32.1294 20.3517 32.2216 20.439C32.3149 20.5263 32.4827 20.6585 32.595 20.733C32.7074 20.8073 32.9078 20.9123 33.0404 20.9658L33.2807 21.063L33.6163 21.1355C33.8006 21.1748 34.0787 21.222 34.2346 21.24C34.3905 21.2575 34.7203 21.2742 34.9679 21.2765ZM35.7385 16.1498C34.6059 16.1498 33.6794 16.1425 33.6794 16.1337C33.6794 16.125 33.7276 15.9983 33.7867 15.8518C33.8457 15.7058 33.9492 15.4877 34.0171 15.3678L34.1403 15.1502L34.4112 14.9103L34.6815 14.6713L34.9477 14.5582C35.0937 14.4957 35.287 14.4283 35.3776 14.4075C35.4671 14.3872 35.7246 14.3598 35.9499 14.347L36.359 14.3238L36.6732 14.3593L36.9872 14.3955L37.2154 14.4883L37.4438 14.5813L37.5692 14.7015C37.6381 14.7675 37.7205 14.865 37.7515 14.9177L37.8085 15.0138L37.8468 15.227L37.8841 15.4405L37.841 15.795L37.7981 16.1498H35.7385ZM47.9785 21.277L48.4286 21.2812L48.9397 21.2275C49.218 21.1983 49.4954 21.1618 49.7714 21.1185C49.9475 21.0878 50.2328 21.0273 50.4053 20.9843C50.5782 20.941 50.7341 20.8938 50.7522 20.88C50.7704 20.866 50.8196 20.701 50.8604 20.513C50.9019 20.3253 50.9542 20.073 50.9765 19.9528C50.9988 19.8327 51.0102 19.7282 51.0018 19.7203C50.9935 19.7125 50.9635 19.7227 50.9351 19.743C50.906 19.7633 50.7057 19.8382 50.4887 19.9098L50.0951 20.0402L49.5337 20.1367L48.9729 20.2338L48.4959 20.219L48.0188 20.2047L47.748 20.121L47.4771 20.0373L47.268 19.8742L47.0583 19.7115L46.9194 19.4865L46.7807 19.2613L46.7144 18.961L46.6486 18.6597V18.269L46.6491 17.8785L46.7293 17.4057L46.8102 16.9323L46.8951 16.6777C46.9417 16.5377 46.9945 16.3737 47.0127 16.3135C47.0302 16.2535 47.1054 16.0815 47.1794 15.9318C47.253 15.7815 47.385 15.5495 47.472 15.416L47.6301 15.1733L47.8248 14.994L48.0195 14.8147L48.2251 14.701L48.4312 14.5877L48.6958 14.5152C48.8834 14.4667 49.0741 14.428 49.267 14.3997L49.5741 14.3575L50.0241 14.3775L50.4741 14.3978L51.0061 14.4925L51.5379 14.5873L51.7539 14.6588C51.873 14.6982 51.9755 14.7305 51.9816 14.7305C51.9884 14.7305 52.017 14.5955 52.0454 14.4302C52.0807 14.2285 52.1184 14.0273 52.1583 13.8265C52.1914 13.6602 52.211 13.5158 52.2013 13.5077C52.1914 13.4983 52.0313 13.4757 51.846 13.4568C51.473 13.4255 51.0994 13.4008 50.7253 13.3828L49.9423 13.3427L49.3897 13.3805L48.8376 13.418L48.4286 13.4947L48.0195 13.5708L47.7559 13.6647C47.6109 13.7165 47.3985 13.8093 47.2841 13.8713C47.1696 13.9337 47.0241 14.0173 46.9604 14.0572C46.8966 14.0973 46.7035 14.2535 46.531 14.4042L46.2177 14.6788L46.0426 14.9067C45.9463 15.0318 45.7802 15.2935 45.6728 15.4877L45.4781 15.8407L45.3285 16.2225C45.2467 16.4328 45.1318 16.7772 45.0737 16.987L44.9681 17.3692L44.9298 17.7148L44.8915 18.0607L44.892 18.5153V18.9702L44.9308 19.235L44.9696 19.4998L45.0923 19.772L45.2145 20.0443L45.3566 20.2407L45.4979 20.4377L45.7227 20.635L45.948 20.8318L46.1861 20.9437L46.4243 21.0555L46.7366 21.1328C46.9092 21.1753 47.1577 21.2243 47.2892 21.2413C47.4208 21.2585 47.731 21.2747 47.9785 21.277ZM54.7083 21.2635L55.2604 21.2492L55.6084 21.1702L55.9558 21.0912L56.1811 20.9963C56.305 20.9442 56.5074 20.8415 56.6311 20.7682C56.755 20.6942 56.9461 20.5545 57.0569 20.4575C57.1672 20.3605 57.3309 20.194 57.4204 20.0887C57.5101 19.9828 57.5887 19.901 57.5955 19.907C57.6022 19.913 57.5814 20.0813 57.5494 20.2813C57.518 20.4772 57.4985 20.6743 57.4909 20.872L57.4903 21.0995H58.9916L59.0149 20.5808L59.0377 20.0623L59.1449 19.389C59.204 19.0187 59.2993 18.4702 59.3563 18.1697C59.5005 17.4228 59.6503 16.6768 59.8052 15.9318L59.915 15.404L59.9191 14.9482L59.9228 14.492L59.8068 14.2818L59.6907 14.071L59.5338 13.937L59.3764 13.803L59.1185 13.6865L58.8607 13.57L58.4764 13.4942L58.0916 13.418L57.5623 13.3818L57.0331 13.3463L56.3515 13.3837C55.9766 13.4045 55.4488 13.4452 55.1785 13.4743L54.6876 13.5275L54.353 13.5283L54.0184 13.5298L53.9699 13.7392C53.9428 13.8538 53.8688 14.1273 53.8046 14.3465C53.7403 14.5655 53.6937 14.7503 53.701 14.7568C53.7083 14.7633 53.8875 14.7268 54.0987 14.6765C54.3101 14.6257 54.759 14.5425 55.0967 14.4917L55.7104 14.3982L56.263 14.3783L56.815 14.358L57.1709 14.4135L57.5266 14.469L57.7642 14.573L58.0014 14.6773L58.1345 14.8535L58.2676 15.03L58.2656 15.3078L58.2635 15.586L58.1931 15.8912L58.1226 16.1962L56.6508 16.2008L55.1785 16.2053L54.6969 16.3228C54.4318 16.3875 54.1387 16.4735 54.0449 16.5137C53.9512 16.5538 53.8574 16.5867 53.8368 16.5867C53.816 16.5867 53.6581 16.6643 53.4862 16.7595L53.1739 16.9323L52.9278 17.1505C52.7927 17.2707 52.6198 17.451 52.5436 17.5513C52.4391 17.6997 52.3476 17.855 52.2696 18.0158L52.1334 18.2982L52.0708 18.6162L52.0081 18.9342V19.6007L52.0677 19.8783L52.1278 20.1557L52.2386 20.3368C52.2992 20.4367 52.411 20.5827 52.4867 20.6613L52.6244 20.8047L52.8693 20.9368L53.1137 21.069L53.394 21.1392C53.5483 21.178 53.7823 21.2252 53.9149 21.2437L54.1562 21.2773L54.7083 21.2635ZM55.2194 20.2458L54.8921 20.261L54.6757 20.212C54.5372 20.1787 54.4024 20.1338 54.2733 20.078L54.0885 19.9935L53.9869 19.8862C53.9156 19.806 53.8525 19.7202 53.7985 19.6297L53.7103 19.48L53.6933 19.1302L53.6762 18.7802L53.7456 18.5677C53.7839 18.4512 53.8729 18.2487 53.9445 18.1178L54.0739 17.8798L54.322 17.6608L54.57 17.4417L54.8336 17.329L55.0967 17.2162L55.424 17.1468L55.7512 17.0775H57.7969L57.8617 17.1015L57.9264 17.1257L57.8719 17.4112C57.842 17.5683 57.7705 17.8522 57.713 18.0422C57.6561 18.2325 57.5545 18.5122 57.4883 18.6633C57.443 18.7608 57.4027 18.8602 57.3675 18.961C57.3675 18.9733 57.3003 19.0838 57.2179 19.2063L57.0688 19.4297L56.8234 19.6458C56.6881 19.7647 56.5628 19.8622 56.5446 19.8622C56.5266 19.8622 56.4442 19.9028 56.3608 19.9532L56.2102 20.0438L55.8787 20.1372L55.5468 20.2305L55.2194 20.2458ZM68.5366 21.2765L68.925 21.2807L69.2931 21.2275C69.4958 21.1983 69.7536 21.1512 69.8661 21.123C69.9784 21.0943 70.1808 21.0213 70.3161 20.9595L70.5615 20.8475L70.7727 20.6825L70.9841 20.5172L71.2063 20.2532C71.3285 20.108 71.4393 19.9648 71.4522 19.9348L71.4761 19.8802L71.4553 20.0623C71.4439 20.1622 71.4186 20.3258 71.3988 20.426C71.3792 20.5263 71.3508 20.7187 71.3357 20.8537L71.3088 21.0995H72.9143V20.6082L73.0365 19.6802C73.1037 19.1693 73.2031 18.49 73.2571 18.1697C73.3114 17.8493 73.3953 17.3908 73.4434 17.1505C73.4916 16.9102 73.577 16.4767 73.633 16.1865C73.689 15.8962 73.7904 15.3882 73.8578 15.0582C73.9256 14.7278 74.0338 14.2037 74.0986 13.8935L74.3223 12.8198C74.3803 12.5398 74.4848 12.0485 74.5544 11.7282C74.6232 11.4078 74.7246 10.9577 74.7791 10.7275C74.8335 10.4973 74.8779 10.2968 74.8774 10.2815V10.2543H73.1265L73.1007 10.4817C73.0867 10.6065 73.0193 11.0205 72.9514 11.401C72.8842 11.7808 72.7739 12.3868 72.7065 12.7473L72.5626 13.5238L72.5408 13.6448L72.4715 13.619C72.3205 13.5762 72.1678 13.5383 72.0137 13.5057L71.6252 13.4188L71.0933 13.3818L70.5615 13.3448L70.1115 13.3828L69.6614 13.4198L69.2523 13.5122L68.8433 13.6037L68.4543 13.7725L68.0659 13.9412L67.7795 14.1297L67.4931 14.3183L67.2456 14.554C67.0899 14.7053 66.9442 14.8647 66.8089 15.031L66.6195 15.2722L66.3972 15.6835C66.275 15.91 66.1259 16.21 66.0664 16.35C65.9772 16.5768 65.8993 16.8072 65.8327 17.0402L65.7074 17.476L65.6458 18.0412L65.5842 18.6065L65.6307 19.0612L65.6768 19.516L65.7318 19.6802C65.7619 19.7702 65.8255 19.9307 65.8727 20.0365L65.9591 20.2297L66.1166 20.4192L66.274 20.6087L66.4542 20.7398L66.6339 20.8707L66.8795 20.9793C67.0145 21.039 67.2408 21.1162 67.3828 21.1503C67.5247 21.185 67.7546 21.2265 67.894 21.2428C68.0337 21.259 68.3232 21.2742 68.5366 21.2765ZM69.2342 20.244L68.925 20.2583L68.7163 20.225C68.5769 20.2 68.4405 20.1635 68.3087 20.116L68.1093 20.0397L67.9415 19.9177L67.7742 19.7952L67.6496 19.5825L67.5247 19.3708L67.4682 19.1343L67.4112 18.8977L67.4159 18.4243L67.4212 17.9515L67.4869 17.5328L67.5526 17.1145L67.6552 16.8233C67.7117 16.663 67.7582 16.5118 67.7582 16.4873C67.7587 16.4628 67.8147 16.332 67.8821 16.1962C67.9498 16.0607 68.0628 15.8513 68.1338 15.7312C68.2041 15.611 68.3356 15.4243 68.4263 15.3152C68.5169 15.2067 68.6785 15.0425 68.7851 14.9515C68.8918 14.86 69.0618 14.7402 69.1622 14.6848L69.3455 14.585L69.6672 14.4855L69.9888 14.3867H71.3389L71.7278 14.4823C71.9412 14.535 72.1684 14.596 72.2322 14.6182L72.3476 14.6585L72.3248 14.7583C72.2873 14.9367 72.2515 15.1155 72.2171 15.2943C72.0792 15.993 71.9352 16.6907 71.7853 17.3872C71.7306 17.6435 71.6684 17.8983 71.5983 18.1517C71.5532 18.3018 71.49 18.5093 71.4579 18.6138C71.4114 18.7507 71.3539 18.8845 71.286 19.0142C71.2157 19.1437 71.1352 19.2688 71.0452 19.3885C70.9661 19.4877 70.8774 19.5805 70.78 19.6658C70.6657 19.7552 70.545 19.8375 70.4185 19.9125L70.1932 20.0457L69.868 20.1377L69.5428 20.2292L69.2342 20.244ZM9.02125 21.099H10.0156L10.0866 20.708C10.126 20.493 10.2026 20.0795 10.2569 19.7892L10.4822 18.5883C10.5517 18.2182 10.6553 17.6695 10.7132 17.3692C10.7707 17.0687 10.8624 16.6033 10.9167 16.3338C10.9712 16.0653 11.026 15.8357 11.0384 15.8245L11.0617 15.8042H16.4073L16.4372 15.8305L16.4668 15.8568L16.4202 16.0672C16.3948 16.1827 16.3198 16.5395 16.2529 16.8598L16.0039 18.0607C15.9333 18.4008 15.8319 18.8837 15.7781 19.1343C15.7236 19.3843 15.6149 19.9085 15.5352 20.299C15.4559 20.689 15.3907 21.0292 15.3911 21.0537V21.0995H17.3877L17.4321 20.872C17.4565 20.7468 17.4953 20.5217 17.5186 20.3715C17.5574 20.1347 17.5994 19.8982 17.6445 19.662C17.6901 19.4217 17.7817 18.9467 17.8474 18.6065C17.9132 18.2663 18.0235 17.6848 18.0924 17.3147C18.1612 16.9443 18.2633 16.4042 18.3198 16.1133C18.3758 15.8232 18.4757 15.3323 18.5414 15.0217C18.7023 14.2642 18.8597 13.506 19.0137 12.7473L19.2436 11.6192C19.3135 11.279 19.4017 10.8815 19.4393 10.7363L19.5089 10.4728H17.4876L17.4595 10.6457C17.4446 10.7405 17.3959 11.0067 17.3513 11.2373C17.3067 11.467 17.226 11.8765 17.1712 12.1468C17.1168 12.4168 17.0174 12.9327 16.95 13.2932C16.8826 13.6537 16.7973 14.1302 16.7594 14.353L16.6916 14.7578L15.2078 14.7847L13.7241 14.811L12.4812 14.785C11.7976 14.7708 11.2353 14.756 11.2307 14.7527C11.2259 14.749 11.2491 14.6077 11.2823 14.4385C11.3155 14.2688 11.3776 13.9743 11.4212 13.7845C11.4647 13.594 11.5471 13.2178 11.6046 12.9475C11.6615 12.677 11.7261 12.3415 11.7479 12.2015C11.7702 12.0613 11.8163 11.828 11.8505 11.6828C11.8847 11.5378 11.9499 11.2318 11.9955 11.0035C12.0406 10.7752 12.0888 10.562 12.1022 10.5302L12.1276 10.4728H10.1218L10.0576 10.7913C10.0224 10.9665 9.97517 11.216 9.95304 11.346C9.93074 11.4763 9.8561 11.8937 9.78723 12.274C9.71786 12.6543 9.61629 13.2197 9.56047 13.5298L9.3362 14.785C9.26783 15.1655 9.15552 15.7552 9.08665 16.0953C9.01713 16.4355 8.91721 16.9185 8.86387 17.169L8.6386 18.2242C8.56758 18.5547 8.46453 19.0215 8.4092 19.2613C8.35371 19.5017 8.29211 19.78 8.27295 19.8802C8.2533 19.9805 8.19021 20.269 8.13208 20.5217C8.07411 20.7742 8.02704 21.008 8.02704 21.0403V21.0995L9.02125 21.099ZM20.0261 21.099H20.9061L20.9308 21.0417C20.9487 20.9813 20.9571 20.9192 20.9558 20.8568C20.9558 20.7875 21.0106 20.4242 21.0785 20.0503C21.2332 19.1985 21.3913 18.3472 21.553 17.4963C21.6088 17.2065 21.7072 16.723 21.7724 16.423C21.8377 16.1227 21.9376 15.6558 21.9951 15.3855C22.052 15.1155 22.164 14.6017 22.2438 14.2433C22.324 13.8852 22.3995 13.5778 22.4121 13.5603L22.4344 13.528L21.544 13.5382L20.6544 13.5478L20.5804 14.021C20.5394 14.2813 20.4509 14.7972 20.382 15.1673L20.1531 16.423C20.095 16.7428 19.9946 17.2592 19.9289 17.5693L19.7061 18.6245C19.5663 19.2802 19.4227 19.9353 19.2747 20.5897C19.2313 20.7802 19.1842 20.9723 19.1711 21.0177L19.1457 21.0995L20.0261 21.099ZM40.6076 21.099H41.4813L41.5071 20.7708C41.5216 20.5897 41.5713 20.2255 41.6174 19.9607C41.663 19.6963 41.7573 19.1688 41.8266 18.7885C41.8955 18.4082 42.024 17.775 42.1115 17.3817C42.1995 16.9888 42.299 16.5973 42.3326 16.5127C42.3663 16.4282 42.3938 16.3372 42.3938 16.3093C42.3938 16.2817 42.459 16.1323 42.5393 15.977C42.6367 15.7947 42.7478 15.6183 42.8717 15.4492L43.0582 15.2028L43.3077 14.9977L43.5574 14.792L43.8656 14.6612L44.1731 14.5303L44.6439 14.5327L45.1141 14.535L45.3457 14.5965C45.4725 14.6302 45.588 14.658 45.601 14.658C45.6144 14.658 45.6258 14.6192 45.6258 14.572C45.6258 14.5243 45.6714 14.285 45.7278 14.0392C45.7843 13.7932 45.8304 13.582 45.8304 13.5695C45.8304 13.5565 45.6968 13.5103 45.5336 13.466C45.3693 13.4215 45.2018 13.3873 45.0324 13.3633L44.8278 13.3407L44.562 13.3828C44.4155 13.4058 44.198 13.4568 44.0785 13.4955C43.9592 13.5348 43.7614 13.6232 43.6398 13.6925C43.4902 13.7817 43.3495 13.8822 43.2192 13.9928C43.0722 14.1275 42.9351 14.2707 42.8091 14.4213L42.5397 14.749L42.4818 14.8217L42.517 14.676C42.5366 14.596 42.5911 14.334 42.6382 14.0937C42.6848 13.8533 42.7335 13.6282 42.7454 13.5935L42.7672 13.5298H41.2073V13.6177C41.2073 13.6657 41.1607 13.9563 41.1047 14.2633C41.0483 14.5702 40.9556 15.0837 40.8986 15.404C40.8417 15.7242 40.7401 16.2812 40.6734 16.6412C40.606 17.0017 40.5051 17.5175 40.4476 17.7875C40.2357 18.7878 40.0172 19.7872 39.792 20.7852C39.7688 20.8785 39.7497 20.9725 39.7345 21.0672V21.0995L40.6076 21.099ZM61.3427 21.099H62.2362V20.6137L62.3386 20.0105C62.3956 19.6787 62.4889 19.1537 62.5464 18.8435C62.6038 18.5333 62.6758 18.1402 62.7059 17.97C62.736 17.8 62.8156 17.4315 62.8829 17.151C62.9503 16.871 63.0347 16.5682 63.0704 16.478C63.1056 16.388 63.1351 16.2932 63.1351 16.2678C63.1356 16.2423 63.2118 16.0787 63.3046 15.9045L63.4734 15.5875L63.6955 15.3245L63.9181 15.0615L64.1615 14.8988C64.2952 14.8095 64.5107 14.6908 64.6397 14.6353L64.8747 14.5337L65.3863 14.5368L65.8975 14.5402L66.0989 14.5975L66.3004 14.6547L66.3341 14.6363L66.3683 14.6178L66.3698 14.5018C66.3708 14.4375 66.4144 14.2 66.4672 13.9735L66.5625 13.5612L66.4553 13.5242C66.3521 13.4902 66.2479 13.4583 66.143 13.429L65.9384 13.3717L65.5701 13.3727L65.202 13.3735L64.9021 13.4673L64.6018 13.5612L64.3766 13.6823L64.1513 13.803L63.8582 14.0757L63.5655 14.3488L63.4081 14.561C63.3216 14.677 63.2455 14.767 63.2387 14.761C63.2321 14.7545 63.2791 14.5115 63.3434 14.2217C63.4076 13.9315 63.4603 13.6568 63.4615 13.612L63.4635 13.5302H61.9497V13.5533C61.9497 13.5663 61.9119 13.7992 61.8658 14.072C61.8197 14.3447 61.7271 14.8702 61.6597 15.2408C61.5929 15.6105 61.4826 16.2087 61.4152 16.5692C61.348 16.9297 61.2465 17.445 61.1895 17.7153C61.1153 18.0672 61.0407 18.4188 60.9652 18.7705C60.899 19.0812 60.7897 19.5803 60.7224 19.8807L60.5251 20.7635L60.4494 21.1L61.3427 21.099ZM21.7564 12.2185L22.005 12.2195L22.2018 12.1593L22.3995 12.0998L22.5741 11.9422L22.7491 11.7845L22.8413 11.5743L22.933 11.3645L22.9366 11.0548L22.9397 10.7455L22.858 10.625L22.7761 10.5043L22.6337 10.4257L22.4913 10.3472H21.876L21.6667 10.4303L21.457 10.5135L21.3359 10.6295L21.2142 10.7455L21.1189 10.9457L21.0231 11.1458L21.005 11.4578L20.9873 11.7698L21.0758 11.9247L21.165 12.0795L21.3364 12.1488L21.5079 12.2182L21.7564 12.2185Z" fill="#B3131B"/>
</svg>
