<svg width="48" height="39" viewBox="0 0 48 39" fill="none" xmlns="http://www.w3.org/2000/svg">
<mask id="mask0_2132_1586" style="mask-type:luminance" maskUnits="userSpaceOnUse" x="0" y="0" width="48" height="39">
<path d="M47.2093 0H0V38.3333H47.2093V0Z" fill="white"/>
</mask>
<g mask="url(#mask0_2132_1586)">
<path fill-rule="evenodd" clip-rule="evenodd" d="M6.3174 37.7972H44.8176C44.9763 37.613 45.0987 37.572 45.317 37.355C45.841 36.8435 46.2262 36.2085 46.4365 35.5094C46.7961 34.4079 46.8751 33.2349 46.6664 32.0957C46.2579 29.9952 45.6427 27.8044 45.1301 25.6955L40.5028 6.5268C39.9687 4.33595 38.6968 2.91427 37.0861 2.00702C34.8584 0.749703 33.0276 1.05047 30.5188 1.65037C28.3541 2.1681 26.2537 2.68417 24.0956 3.18382C22.9579 3.44842 6.35713 7.27792 4.91666 7.86302C3.1587 8.57469 1.6521 10.0079 1.01373 11.9012C0.2563 14.1512 1.13612 16.5065 1.6488 18.6365L4.76121 31.3889C5.25734 33.5025 5.88585 35.6704 6.31578 37.7987L6.3174 37.7972Z" fill="#ED6B06"/>
<path fill-rule="evenodd" clip-rule="evenodd" d="M39.7335 21.9771L39.6524 20.6064L37.5042 20.5621L37.5703 28.4511L40.056 28.4889C40.0527 27.1444 40.0229 25.7903 40.056 24.4869C40.0924 23.0241 40.9705 22.5474 42.4672 22.7578L42.4638 20.4108C40.1569 20.3056 40.1255 21.6829 39.7335 21.9771ZM36.254 28.1833L35.9479 26.5396C35.5279 26.4739 34.5356 26.9506 33.216 26.7631C32.4287 26.6514 31.4761 26.1731 31.5423 25.3383L36.6278 25.3268C36.8311 23.0143 36.2307 21.2046 34.4447 20.5883C32.6967 19.9851 30.5483 20.6508 29.6222 22.4636C28.448 24.7646 29.2006 28.5383 33.0952 28.6533C34.5009 28.6944 35.0698 28.4758 36.254 28.1833ZM5.94334 28.4724H8.45715V23.9494H12.5354V28.4724H15.049V17.5066H12.5354V21.7059H8.45553V17.5066H5.94171V28.4724H5.94334ZM22.5242 21.7289C22.463 20.2548 23.0204 20.6869 20.313 20.6064L20.3941 26.7271C19.7822 26.7008 19.4084 26.3819 19.1852 25.9414C18.7172 25.0243 18.8627 22.9568 18.8627 21.8834L18.8611 20.5851H16.3838C16.2348 21.7519 16.3059 25.3891 16.6582 26.3704C17.3727 28.3656 18.9008 28.4561 20.3793 28.7174V31.7086C20.9481 31.7086 22.3935 31.7908 22.85 31.6544V28.6911C25.2975 28.6878 27.5103 28.6894 28.3075 26.2011C28.5434 25.4123 28.6121 24.5834 28.5092 23.7669C28.3043 21.9591 27.1962 20.7198 25.7441 20.4684C24.3467 20.2268 23.6488 20.6869 22.7044 21.5713C22.6471 21.6268 22.5869 21.6794 22.5242 21.7289Z" fill="white"/>
<path fill-rule="evenodd" clip-rule="evenodd" d="M23.9128 22.4537C22.8578 22.8367 22.8511 23.8672 22.8511 25.1311C22.8511 25.4532 22.8527 25.7737 22.8478 26.0959C22.843 26.4904 22.7404 26.7221 23.0562 26.7762C23.3771 26.8306 24.5728 26.7961 24.8687 26.7007C26.7905 26.0811 26.2546 21.6041 23.9128 22.4537ZM31.4954 23.6289H34.3895C34.3168 21.4627 31.7733 21.5087 31.4954 23.6289Z" fill="#ED6B06"/>
<path fill-rule="evenodd" clip-rule="evenodd" d="M17.6245 17.0654C17.7984 17.0656 17.9706 17.0998 18.1313 17.1659C18.292 17.2323 18.438 17.3293 18.5609 17.4516C18.6838 17.5739 18.7813 17.7191 18.8479 17.8789C18.9143 18.0386 18.9485 18.2099 18.9483 18.3828C18.9482 18.5556 18.9138 18.7268 18.8472 18.8864C18.7805 19.0461 18.6828 19.1913 18.5597 19.3134C18.4367 19.4356 18.2907 19.5324 18.1298 19.5984C17.969 19.6646 17.7967 19.6984 17.6229 19.6984C17.2714 19.6984 16.9346 19.5598 16.6862 19.3128C16.4378 19.0659 16.2981 18.7311 16.2981 18.3819C16.2981 18.0328 16.4378 17.6979 16.6862 17.4511C16.9346 17.2041 17.2714 17.0654 17.6229 17.0654H17.6245Z" fill="#FFED00"/>
</g>
</svg>
