<svg width="55" height="35" viewBox="0 0 55 35" fill="none" xmlns="http://www.w3.org/2000/svg">
<path d="M34.5159 4.47876H20.0532V30.5203H34.5159V4.47876Z" fill="#FF5D11"/>
<path d="M20.9714 17.5028C20.9687 14.9944 21.5357 12.5183 22.6294 10.2622C23.7232 8.00589 25.3151 6.02846 27.2844 4.47976C24.846 2.55976 21.9178 1.36582 18.8341 1.03442C15.7505 0.703001 12.636 1.24748 9.84677 2.60562C7.05739 3.96378 4.70558 6.08079 3.06031 8.71476C1.415 11.3487 0.54248 14.3932 0.54248 17.5005C0.54248 20.6078 1.415 23.6523 3.06031 26.2862C4.70558 28.9202 7.05739 31.0372 9.84677 32.3955C12.636 33.7536 15.7505 34.298 18.8341 33.9666C21.9178 33.6352 24.846 32.4412 27.2844 30.5213C25.3156 28.973 23.7242 26.9965 22.6304 24.741C21.5367 22.4855 20.9694 20.0104 20.9714 17.5028Z" fill="#EC0021"/>
<path d="M54.0295 17.5023C54.0294 20.6098 53.1567 23.6546 51.5111 26.2886C49.8655 28.9227 47.5135 31.0397 44.7238 32.3976C41.9341 33.7556 38.8192 34.2997 35.7356 33.9678C32.6518 33.6358 29.7234 32.4414 27.2852 30.5208C29.2531 28.9712 30.8442 26.994 31.9382 24.7385C33.0322 22.4828 33.6007 20.0077 33.6007 17.5C33.6007 14.9923 33.0322 12.5172 31.9382 10.2615C30.8442 8.00604 29.2531 6.02884 27.2852 4.47924C29.7234 2.55863 32.6518 1.36411 35.7356 1.03224C38.8192 0.700339 41.9341 1.24447 44.7238 2.60243C47.5135 3.96039 49.8655 6.07737 51.5111 8.71144C53.1567 11.3454 54.0294 14.3902 54.0295 17.4977V17.5023Z" fill="#F89E26"/>
<path d="M52.4506 27.7604V27.2268H52.6665V27.1165H52.1201V27.2268H52.3542V27.7604H52.4506ZM53.5112 27.7604V27.1165H53.3459L53.1531 27.5764L52.9602 27.1165H52.8134V27.7604H52.9328V27.2774L53.1118 27.696H53.2358L53.4148 27.2774V27.765L53.5112 27.7604Z" fill="#F89E26"/>
</svg>
