<svg width="65" height="23" viewBox="0 0 65 23" fill="none" xmlns="http://www.w3.org/2000/svg">
<path d="M26.416 21.244V8.19456C26.416 7.04169 26.874 5.93604 27.6892 5.12083C28.5044 4.30563 29.61 3.84766 30.7629 3.84766L34.6154 3.85303C35.7653 3.85534 36.8673 4.3138 37.6795 5.12776C38.4917 5.94172 38.9477 7.04469 38.9475 8.19456V10.9716C38.9475 12.1245 38.4896 13.2302 37.6744 14.0455C36.8592 14.8608 35.7536 15.319 34.6006 15.3191H29.1554" stroke="#939598" stroke-linecap="round" stroke-linejoin="round"/>
<path d="M40.0234 3.84766H41.6948C42.1679 3.84766 42.6218 4.03563 42.9564 4.37023C43.291 4.70482 43.4789 5.15864 43.4789 5.63183V15.3789" stroke="#939598" stroke-linecap="round" stroke-linejoin="round"/>
<path d="M43.1214 2.33776L42.3637 1.57935C42.319 1.53468 42.2835 1.48164 42.2593 1.42326C42.2351 1.36488 42.2227 1.3023 42.2227 1.23911C42.2227 1.17591 42.2351 1.11334 42.2593 1.05496C42.2835 0.996575 42.319 0.943534 42.3637 0.898867L43.1214 0.141131C43.2119 0.0507626 43.3345 0 43.4623 0C43.5902 0 43.7128 0.0507626 43.8032 0.141131L44.5603 0.898867C44.605 0.943534 44.6405 0.996575 44.6647 1.05496C44.6889 1.11334 44.7013 1.17591 44.7013 1.23911C44.7013 1.3023 44.6889 1.36488 44.6647 1.42326C44.6405 1.48164 44.605 1.53468 44.5603 1.57935L43.7999 2.33776C43.7552 2.38248 43.7021 2.41796 43.6436 2.44217C43.5852 2.46637 43.5226 2.47883 43.4593 2.47883C43.396 2.47883 43.3334 2.46637 43.275 2.44217C43.2165 2.41796 43.1634 2.38248 43.1187 2.33776" fill="#32BCAD"/>
<path d="M46.6895 3.83984H48.3467C49.1991 3.83949 50.0168 4.17778 50.6199 4.7803L54.4965 8.65697C54.6159 8.77646 54.7576 8.87126 54.9136 8.93593C55.0696 9.00061 55.2369 9.0339 55.4058 9.0339C55.5746 9.0339 55.7419 9.00061 55.8979 8.93593C56.0539 8.87126 56.1956 8.77646 56.315 8.65697L60.1775 4.79507C60.476 4.4967 60.8303 4.26006 61.2202 4.0987C61.6102 3.93733 62.0281 3.85439 62.4501 3.85462H63.7976" stroke="#939598" stroke-linecap="round" stroke-linejoin="round"/>
<path d="M46.6895 15.2951H48.3467C49.1991 15.2953 50.0168 14.9571 50.6199 14.3546L54.4965 10.4779C54.7378 10.2369 55.0648 10.1016 55.4058 10.1016C55.7467 10.1016 56.0738 10.2369 56.315 10.4779L60.1775 14.3405C60.7804 14.9429 61.5978 15.2812 62.4501 15.281H63.7976" stroke="#939598" stroke-linecap="round" stroke-linejoin="round"/>
<path d="M16.5334 17.771C16.1246 17.7725 15.7194 17.6929 15.3415 17.5369C14.9635 17.3809 14.6202 17.1515 14.3314 16.8621L11.1507 13.6793C11.0382 13.5718 10.8885 13.5117 10.7329 13.5117C10.5772 13.5117 10.4275 13.5718 10.315 13.6793L7.12354 16.8708C6.83492 17.1607 6.49172 17.3905 6.11376 17.547C5.73581 17.7034 5.3306 17.7835 4.92154 17.7824H4.29883L8.32934 21.8129C8.93383 22.4161 9.75293 22.7549 10.6069 22.7549C11.4609 22.7549 12.28 22.4161 12.8845 21.8129L16.923 17.7737L16.5334 17.771Z" fill="#32BCAD"/>
<path d="M4.92221 6.52158C5.33128 6.52049 5.7365 6.60048 6.11446 6.75695C6.49242 6.91341 6.83561 7.14324 7.12421 7.43315L10.3157 10.6253C10.4266 10.7359 10.5769 10.798 10.7335 10.798C10.8902 10.798 11.0404 10.7359 11.1514 10.6253L14.3314 7.44524C14.6198 7.15497 14.9629 6.92486 15.3409 6.76826C15.7189 6.61167 16.1243 6.5317 16.5334 6.533H16.9163L12.8778 2.49443C12.5787 2.19526 12.2236 1.95795 11.8329 1.79603C11.4421 1.63412 11.0232 1.55078 10.6002 1.55078C10.1772 1.55078 9.75832 1.63412 9.36753 1.79603C8.97674 1.95795 8.62167 2.19526 8.32262 2.49443L4.29883 6.52158H4.92221Z" fill="#32BCAD"/>
<path d="M20.2589 9.8731L17.8184 7.43262C17.7633 7.45512 17.7045 7.46697 17.6451 7.46755H16.5353C15.9579 7.469 15.4043 7.69834 14.995 8.10572L11.8149 11.2838C11.5286 11.5696 11.1404 11.7302 10.7358 11.7302C10.3311 11.7302 9.943 11.5696 9.65661 11.2838L6.46445 8.09363C6.05526 7.686 5.50169 7.45641 4.92412 7.45479H3.56181C3.50567 7.45353 3.45018 7.44238 3.3979 7.42188L0.941982 9.8731C0.338772 10.4776 0 11.2967 0 12.1507C0 13.0046 0.338772 13.8237 0.941982 14.4282L3.39253 16.8788C3.4447 16.8579 3.50025 16.8467 3.55644 16.8459H4.92412C5.50168 16.8442 6.05522 16.6146 6.46445 16.207L9.65594 13.0155C10.233 12.4392 11.2386 12.4392 11.8149 13.0155L14.995 16.1949C15.4043 16.6023 15.9579 16.8317 16.5353 16.8331H17.6451C17.7046 16.8335 17.7634 16.8454 17.8184 16.868L20.2589 14.4276C20.558 14.1285 20.7953 13.7734 20.9573 13.3827C21.1192 12.9919 21.2025 12.573 21.2025 12.15C21.2025 11.727 21.1192 11.3081 20.9573 10.9173C20.7953 10.5265 20.558 10.1715 20.2589 9.87242" fill="#32BCAD"/>
<path d="M29.7296 20.1344C29.5279 20.1432 29.3277 20.1736 29.1324 20.2251V21.0204C29.2818 21.0728 29.439 21.0992 29.5972 21.0984C29.9963 21.0984 30.185 20.964 30.185 20.6127C30.185 20.2822 30.0305 20.1344 29.7296 20.1344ZM28.998 21.6122V20.0383H29.1075L29.119 20.1055C29.3224 20.0514 29.5308 20.0179 29.741 20.0054C29.8866 19.9952 30.0312 20.0371 30.1488 20.1236C30.2831 20.2352 30.3288 20.4152 30.3288 20.6113C30.3288 20.8075 30.2616 21.0104 30.0735 21.1172C29.93 21.1888 29.771 21.2241 29.6107 21.2199C29.4485 21.2189 29.2874 21.1943 29.1324 21.1467V21.6096L28.998 21.6122Z" fill="#939598"/>
<path d="M31.3295 20.1307C30.9311 20.1307 30.7531 20.2557 30.7531 20.607C30.7531 20.9462 30.9285 21.0994 31.3295 21.0994C31.7305 21.0994 31.9038 20.9758 31.9038 20.6252C31.9038 20.2859 31.7285 20.1307 31.3295 20.1307ZM31.8427 21.0994C31.7084 21.1948 31.5324 21.2223 31.3295 21.2223C31.1266 21.2223 30.9446 21.1928 30.8149 21.0994C30.6692 20.9966 30.6094 20.8307 30.6094 20.6164C30.6094 20.4021 30.6692 20.2355 30.8149 20.1307C30.9446 20.0374 31.1226 20.0078 31.3295 20.0078C31.5364 20.0078 31.7104 20.0374 31.8427 20.1307C31.9905 20.2355 32.0476 20.4062 32.0476 20.6137C32.0476 20.8213 31.9885 20.9966 31.8427 21.0994Z" fill="#939598"/>
<path d="M33.7287 21.1898L33.284 20.2352H33.2753L32.8373 21.1898H32.7144L32.2441 20.0391H32.3919L32.7862 21.005H32.7956L33.2242 20.0391H33.3472L33.7865 21.005H33.7959L34.1808 20.0391H34.3266L33.8523 21.1898H33.7287Z" fill="#939598"/>
<path d="M35.1845 20.1295C34.815 20.1295 34.6901 20.2941 34.6673 20.5326H35.7018C35.6903 20.2706 35.556 20.1295 35.1845 20.1295ZM35.1798 21.2238C34.9588 21.2238 34.815 21.1916 34.7008 21.0962C34.5665 20.98 34.5215 20.8113 34.5215 20.6179C34.5215 20.4244 34.5826 20.237 34.7358 20.1255C34.8697 20.0412 35.0265 20.0006 35.1845 20.0093C35.3456 19.9996 35.5059 20.0384 35.6447 20.1208C35.8106 20.2323 35.8428 20.4285 35.8428 20.6515H34.6639C34.6686 20.8886 34.7458 21.0982 35.1926 21.0982C35.3923 21.0929 35.5912 21.0704 35.7871 21.031V21.1519C35.588 21.1929 35.3857 21.2165 35.1825 21.2225" fill="#939598"/>
<path d="M36.2305 21.1914V20.0407H36.3393L36.3507 20.1079C36.5946 20.0461 36.7088 20.0078 36.923 20.0078H36.9392V20.1354H36.9069C36.7269 20.1354 36.6174 20.1603 36.3648 20.2261V21.1901L36.2305 21.1914Z" fill="#939598"/>
<path d="M37.7177 20.1295C37.3489 20.1295 37.2233 20.2941 37.2005 20.5326H38.235C38.2235 20.2706 38.0892 20.1295 37.7177 20.1295ZM37.713 21.2238C37.492 21.2238 37.3489 21.1916 37.2347 21.0962C37.1004 20.98 37.0547 20.8113 37.0547 20.6179C37.0547 20.4244 37.1165 20.237 37.269 20.1255C37.403 20.0414 37.5597 20.0008 37.7177 20.0093C37.8788 19.9996 38.0391 20.0384 38.1779 20.1208C38.3445 20.2323 38.3794 20.4285 38.3794 20.6515H37.1958C37.2005 20.8886 37.2777 21.0982 37.7244 21.0982C37.9244 21.093 38.1235 21.0705 38.3196 21.031V21.1519C38.1205 21.1928 37.9182 21.2164 37.715 21.2225" fill="#939598"/>
<path d="M39.8507 20.2083C39.7013 20.1562 39.5441 20.13 39.3858 20.131C38.9868 20.131 38.7981 20.2654 38.7981 20.6167C38.7981 20.9492 38.9532 21.095 39.2535 21.095C39.4551 21.0857 39.6552 21.0557 39.8507 21.0057V20.2083ZM39.8762 21.1904L39.8641 21.1232C39.6607 21.1779 39.4523 21.2117 39.2421 21.224C39.0963 21.235 38.9514 21.1927 38.8343 21.1051C38.7 20.9936 38.6543 20.8135 38.6543 20.6181C38.6543 20.4125 38.7215 20.219 38.9096 20.1143C39.0533 20.041 39.2131 20.0049 39.3744 20.0095C39.5357 20.0117 39.696 20.0361 39.8507 20.082V19.5547H39.985V21.1904H39.8762Z" fill="#939598"/>
<path d="M41.9561 20.1358C41.7544 20.1446 41.5542 20.175 41.359 20.2264V21.0198C41.508 21.0736 41.6654 21.1007 41.8238 21.0997C42.2228 21.0997 42.4116 20.9654 42.4116 20.614C42.4116 20.2835 42.2571 20.1358 41.9561 20.1358ZM42.3001 21.1199C42.1568 21.1914 41.9981 21.2267 41.8379 21.2226C41.6626 21.2216 41.4887 21.1923 41.3227 21.136L41.316 21.1904H41.2246V19.5547H41.359V20.1035C41.5583 20.0525 41.7621 20.0206 41.9676 20.0081C42.1132 19.9979 42.2577 20.0398 42.3753 20.1263C42.5097 20.2379 42.5553 20.4179 42.5553 20.614C42.5553 20.8102 42.4882 21.0131 42.3001 21.1199Z" fill="#939598"/>
<path d="M42.7334 21.6318V21.5068C42.8005 21.5136 42.861 21.5183 42.904 21.5183C43.0706 21.5183 43.1727 21.4699 43.264 21.2811L43.3077 21.1898L42.7031 20.0391H42.859L43.3742 21.0326H43.3829L43.8726 20.0391H44.0258L43.3782 21.3315C43.26 21.566 43.1324 21.6432 42.8973 21.6432C42.8418 21.6429 42.7863 21.6391 42.7313 21.6318" fill="#939598"/>
<path d="M45.8807 20.5331H45.4346V20.9361H45.8807C46.1883 20.9361 46.3046 20.9019 46.3046 20.7346C46.3046 20.5546 46.1447 20.5331 45.878 20.5331M45.7974 19.8828H45.4333V20.2926H45.8001C46.103 20.2926 46.2239 20.2563 46.2239 20.0857C46.2239 19.903 46.0708 19.8842 45.7974 19.8842M46.4906 21.0853C46.3261 21.1901 46.1279 21.1941 45.7658 21.1941H45.084V19.6289H45.7497C46.0621 19.6289 46.2535 19.6329 46.4127 19.729C46.4656 19.7605 46.5086 19.8063 46.5369 19.861C46.5651 19.9157 46.5775 19.9773 46.5726 20.0387C46.5726 20.2026 46.5054 20.3121 46.3261 20.3853V20.394C46.5276 20.4397 46.6566 20.5425 46.6566 20.7635C46.6616 20.8266 46.6487 20.8899 46.6193 20.946C46.59 21.0021 46.5454 21.0487 46.4906 21.0806" fill="#939598"/>
<path d="M48.0225 20.7058C47.8881 20.6943 47.7538 20.6876 47.608 20.6876C47.3736 20.6876 47.2909 20.7353 47.2909 20.8428C47.2909 20.9503 47.3581 20.9973 47.5395 20.9973C47.7024 20.9919 47.8643 20.9694 48.0225 20.9301V20.7058ZM48.0896 21.1888L48.0809 21.1216C47.8772 21.179 47.6676 21.2128 47.4562 21.2223C47.334 21.2306 47.2123 21.201 47.1075 21.1377C47.0625 21.0999 47.0276 21.0515 47.0058 20.9969C46.984 20.9423 46.9761 20.8832 46.9828 20.8248C46.9894 20.7664 47.0104 20.7105 47.0439 20.6622C47.0774 20.6139 47.1223 20.5746 47.1747 20.5479C47.2956 20.4908 47.4575 20.4861 47.606 20.4861C47.7262 20.4861 47.8881 20.4928 48.0225 20.5022V20.4814C48.0225 20.3014 47.9042 20.2423 47.5805 20.2423C47.4555 20.2423 47.3024 20.249 47.1566 20.2624V20.03C47.3185 20.0165 47.5012 20.0078 47.6517 20.0078C47.8532 20.0078 48.0594 20.0233 48.1891 20.1146C48.3187 20.206 48.3463 20.3383 48.3463 20.5089V21.1901L48.0896 21.1888Z" fill="#939598"/>
<path d="M49.8454 21.1919V20.5571C49.8454 20.3475 49.7386 20.2723 49.5472 20.2723C49.3883 20.2793 49.2306 20.3036 49.077 20.3448V21.1926H48.7559V20.0412H49.0178L49.0293 20.1144C49.2295 20.0555 49.4361 20.0203 49.6446 20.0096C49.7862 19.9983 49.9269 20.0405 50.0389 20.1278C50.1296 20.2098 50.1638 20.324 50.1638 20.4879V21.1919H49.8454Z" fill="#939598"/>
<path d="M51.0716 21.2223C50.9231 21.2223 50.7612 21.2015 50.643 21.1014C50.5019 20.9872 50.4609 20.8079 50.4609 20.6137C50.4609 20.4317 50.5201 20.2328 50.6954 20.1213C50.8391 20.028 51.0165 20.0078 51.2012 20.0078C51.3356 20.0078 51.4632 20.0165 51.6043 20.03V20.2765C51.488 20.2651 51.349 20.2564 51.2375 20.2564C50.9318 20.2564 50.7881 20.3517 50.7881 20.6164C50.7881 20.8643 50.8956 20.9718 51.1461 20.9718C51.3086 20.9665 51.4702 20.9467 51.6291 20.9127V21.1491C51.4452 21.1919 51.2576 21.2165 51.0689 21.2223" fill="#939598"/>
<path d="M52.581 20.249C52.2754 20.249 52.141 20.345 52.141 20.607C52.141 20.869 52.2754 20.9805 52.581 20.9805C52.8867 20.9805 53.0163 20.8871 53.0163 20.6252C53.0163 20.3632 52.8867 20.249 52.581 20.249ZM53.1326 21.1014C52.9915 21.1968 52.8068 21.2223 52.581 21.2223C52.3553 21.2223 52.1666 21.1948 52.0275 21.1014C51.8676 20.9966 51.8105 20.8233 51.8105 20.6164C51.8105 20.4095 51.8676 20.2328 52.0275 20.1281C52.1666 20.0347 52.3506 20.0078 52.581 20.0078C52.8115 20.0078 52.9915 20.0347 53.1326 20.1281C53.2918 20.2328 53.3468 20.4088 53.3468 20.6137C53.3468 20.8186 53.2897 20.9966 53.1326 21.1014Z" fill="#939598"/>
<path d="M55.2006 21.2226C55.0071 21.2226 54.7975 21.1904 54.6403 21.0607C54.4536 20.9056 54.3965 20.6664 54.3965 20.4091C54.3965 20.1787 54.4697 19.9053 54.7129 19.7461C54.9023 19.6232 55.1368 19.5977 55.3739 19.5977C55.5472 19.5977 55.7252 19.6091 55.9187 19.6252V19.9053C55.7527 19.8919 55.5472 19.8805 55.388 19.8805C54.9433 19.8805 54.7545 20.0491 54.7545 20.4091C54.7545 20.7692 54.9299 20.9398 55.2577 20.9398C55.4919 20.9317 55.7248 20.9004 55.9529 20.8464V21.1245C55.7059 21.1816 55.4539 21.2145 55.2006 21.2226Z" fill="#939598"/>
<path d="M56.8985 20.2147C56.6298 20.2147 56.5291 20.3108 56.5082 20.4834H57.2834C57.274 20.2967 57.1645 20.2147 56.8985 20.2147ZM56.8502 21.2223C56.6614 21.2223 56.4901 21.1995 56.3625 21.0947C56.2348 20.9899 56.1777 20.8099 56.1777 20.6137C56.1777 20.4384 56.2348 20.2423 56.3947 20.1281C56.5358 20.028 56.7158 20.0078 56.8985 20.0078C57.0624 20.0078 57.2559 20.0259 57.397 20.124C57.5817 20.2537 57.5985 20.4545 57.5985 20.691H56.5062C56.5129 20.867 56.6063 20.9805 56.9301 20.9805C57.1357 20.976 57.3407 20.9563 57.5434 20.9214V21.1471C57.3147 21.1905 57.0829 21.2157 56.8502 21.2223Z" fill="#939598"/>
<path d="M59.029 21.1919V20.5571C59.029 20.3475 58.9222 20.2723 58.7308 20.2723C58.5719 20.2793 58.4142 20.3036 58.2606 20.3448V21.1926H57.9395V20.0412H58.2014L58.2129 20.1144C58.4131 20.0555 58.6197 20.0203 58.8282 20.0096C58.9698 19.9983 59.1105 20.0405 59.2225 20.1278C59.3132 20.2098 59.3474 20.324 59.3474 20.4879V21.1919H59.029Z" fill="#939598"/>
<path d="M60.2648 21.223C60.1096 21.223 59.9685 21.1793 59.8913 21.0584C59.828 20.9539 59.7984 20.8324 59.8066 20.7105V20.2792H59.5742V20.04H59.8066L59.8409 19.6914H60.1244V20.04H60.5778V20.2792H60.1244V20.6487C60.1201 20.723 60.1308 20.7975 60.156 20.8676C60.1902 20.9449 60.2654 20.9745 60.3662 20.9745C60.4433 20.973 60.5201 20.9654 60.596 20.9516V21.182C60.4866 21.2057 60.3753 21.2194 60.2634 21.223" fill="#939598"/>
<path d="M60.8906 21.1907V20.04H61.1526L61.164 20.1132C61.3478 20.0508 61.5397 20.0155 61.7337 20.0084C61.7473 20.0076 61.761 20.0076 61.7746 20.0084V20.2872C61.7384 20.2872 61.6947 20.2872 61.6631 20.2872C61.5108 20.2878 61.3591 20.3077 61.2117 20.3463V21.1961L60.8906 21.1907Z" fill="#939598"/>
<path d="M62.9441 20.7058C62.8098 20.6943 62.6754 20.6876 62.529 20.6876C62.2946 20.6876 62.2126 20.7353 62.2126 20.8428C62.2126 20.9503 62.2798 20.9973 62.4605 20.9973C62.6236 20.992 62.7857 20.9694 62.9441 20.9301V20.7058ZM63.0113 21.1888L63.0019 21.1216C62.7982 21.179 62.5886 21.2128 62.3772 21.2223C62.255 21.2306 62.1333 21.201 62.0285 21.1377C61.9862 21.1053 61.9525 21.063 61.9302 21.0145C61.908 20.966 61.8979 20.9128 61.9009 20.8596C61.8978 20.7941 61.9147 20.7292 61.9494 20.6735C61.9841 20.6178 62.0349 20.574 62.095 20.5479C62.216 20.4908 62.3772 20.4861 62.5256 20.4861C62.6466 20.4861 62.8084 20.4928 62.9428 20.5022V20.4814C62.9428 20.3014 62.8239 20.2423 62.5008 20.2423C62.3752 20.2423 62.2227 20.249 62.0769 20.2624V20.03C62.2388 20.0165 62.4208 20.0078 62.5713 20.0078C62.7728 20.0078 62.9791 20.0233 63.1087 20.1146C63.2384 20.206 63.2659 20.3383 63.2659 20.5089V21.1901L63.0113 21.1888Z" fill="#939598"/>
<path d="M63.6777 19.5547H63.9995V21.1904H63.6777V19.5547Z" fill="#939598"/>
</svg>
