<svg width="101" height="29" viewBox="0 0 101 29" fill="none" xmlns="http://www.w3.org/2000/svg">
<path d="M92.3014 9.80077C94.6028 9.80077 95.5318 11.4026 95.5318 12.5035H89.0711C89.0711 11.3895 90.0102 9.80077 92.3014 9.80077ZM95.0117 17.4468C94.5817 18.2825 93.5969 18.8479 92.3253 18.8479C89.9236 18.8479 88.9741 17.1351 88.9484 15.6096H100.879C100.912 15.3947 101 14.7848 101 14.309C101 8.92128 97.2932 5.87939 92.2829 5.87939C87.0014 5.87939 83.3079 8.92128 83.3079 14.309C83.3079 19.7366 87.0013 22.7387 92.3141 22.7387C97.538 22.7387 99.9923 19.8618 100.648 17.4468H95.0117Z" fill="#221C46"/>
<path d="M9.17449 17.8975C7.03197 17.8975 5.51061 16.3617 5.51061 14.3226C5.51061 12.3786 6.93941 10.7479 9.17449 10.7479C11.41 10.7479 12.8379 12.3881 12.8379 14.3226C12.8379 16.2876 11.3905 17.8975 9.17449 17.8975ZM10.7776 6.04175C8.42699 6.04175 6.4104 7.07875 5.37036 8.29754L5.36691 6.3596H0V28.6182H5.53268V20.6488C6.83043 22.046 8.63784 22.5767 10.4653 22.5767C15.9462 22.5767 18.4886 18.4343 18.4886 14.309C18.4886 9.21813 15.223 6.04175 10.7776 6.04175Z" fill="#221C46"/>
<path d="M25.8664 0H20.3112V22.2585H25.8664V0Z" fill="#221C46"/>
<path d="M39.2709 6.35938V14.627C39.2709 15.8802 39.0985 16.489 38.5851 17.0964C38.0891 17.6834 37.3109 17.9601 36.4482 17.9601C35.586 17.9601 34.8065 17.6834 34.3103 17.0964C33.7969 16.489 33.6254 15.8802 33.6254 14.627V6.35938H28.0909L28.0917 15.1182C28.0917 17.5807 28.4682 19.1878 29.6502 20.5537C30.9004 21.9984 32.81 22.5728 34.6797 22.5728C36.8697 22.5728 38.3866 21.7499 39.4351 20.5383L39.4386 22.2584H44.8054V6.35938H39.2709Z" fill="#221C46"/>
<path d="M62.8486 6.35962H59.0668L54.899 10.602L50.7312 6.35962H46.9493V10.1415L51.1918 14.3092L46.9494 18.4768V22.2587H50.7313L54.899 18.0164L59.0667 22.2587H62.8485V18.4768L58.6063 14.3092L62.8486 10.1415V6.35962Z" fill="#09EF65"/>
<path d="M73.0696 9.80077C75.3711 9.80077 76.3001 11.4026 76.3001 12.5035H69.8393C69.8393 11.3895 70.7784 9.80077 73.0696 9.80077ZM75.78 17.4468C75.3499 18.2825 74.3651 18.8479 73.0935 18.8479C70.6918 18.8479 69.7423 17.1351 69.7167 15.6096H81.6474C81.6809 15.3947 81.7684 14.7848 81.7684 14.309C81.7684 8.92128 78.0616 5.87939 73.0513 5.87939C67.7699 5.87939 64.0763 8.92128 64.0763 14.309C64.0763 19.7366 67.7698 22.7387 73.0824 22.7387C78.3064 22.7387 80.7607 19.8618 81.4161 17.4468H75.78Z" fill="#221C46"/>
</svg>
