<svg width="56" height="55" viewBox="0 0 56 55" fill="none" xmlns="http://www.w3.org/2000/svg">
<path d="M27.5268 55.0531C42.7272 55.0531 55.0496 42.729 55.0496 27.5266C55.0496 12.3241 42.7272 0 27.5268 0C12.3264 0 0.00396729 12.3241 0.00396729 27.5266C0.00396729 42.729 12.3264 55.0531 27.5268 55.0531Z" fill="white"/>
<path fill-rule="evenodd" clip-rule="evenodd" d="M48.4438 29.473H40.1002C40.4164 31.2848 42.1439 31.9802 43.64 31.9802C44.5881 31.9802 45.4308 31.7694 46.2526 31.3905L46.021 33.8763C45.0937 34.2555 43.9773 34.4031 42.8606 34.4031C39.1524 34.4031 36.5398 32.2331 36.5398 28.546C36.5398 25.3435 38.8784 22.9417 42.4601 22.9417C46.5053 22.9417 48.5279 25.5121 48.4438 29.473ZM33.3581 34.1925C33.1895 33.792 32.9366 33.1391 32.726 32.4858L32.2414 30.8635C31.9885 30 31.6515 29.6416 30.8296 29.6416H29.4391V34.1925H26.2155V19.3178H29.4391V27.5136H29.7975L32.8522 23.1525H36.4339L32.8312 27.7031H33.0209C34.4535 27.7031 34.8748 28.5039 35.2332 29.6838L35.8442 31.7275C36.0548 32.4858 36.4974 33.5604 36.8342 34.1925H33.3581ZM23.0341 31.7275C23.8767 31.7275 24.5721 31.4956 25.0988 31.2429L24.804 33.9187C24.1297 34.2555 23.1814 34.4241 22.3598 34.4241C18.8832 34.4241 16.4817 32.1699 16.4817 28.6514C16.4817 25.1751 18.8413 22.9417 22.3387 22.9417C23.6238 22.9417 24.6143 23.1944 25.6253 23.6579L24.6983 26.144C24.2138 25.8491 23.5397 25.6175 22.8233 25.6175C21.0536 25.6175 19.8947 26.7761 19.8947 28.6514C19.8947 30.5054 21.1166 31.7483 23.0341 31.7275ZM12.2043 21.7407H15.491V19.3178H12.2043V21.7407ZM12.2043 34.1925H15.491V23.1525H12.2043V34.1925ZM49.1397 28.2301V20.7294L52.4263 19.4021V23.363H54.6384L54.196 25.8281H52.3841V28.3563C52.3841 30.8121 53.3149 32.5417 54.3018 33.9306C54.7919 31.8753 55.0526 29.7312 55.0526 27.526C55.0524 12.3237 42.7284 0 27.5262 0C15.1828 0 4.73726 8.12454 1.24483 19.3178H11.4877L11.0874 22.2674H6.81032V34.1925H3.31267V22.2674H0.503757C0.17455 23.9698 0 25.7274 0 27.526C0.000236425 42.7284 12.3239 55.0521 27.5264 55.0521C40.4297 55.0521 51.2575 46.1735 54.2381 34.1925H50.9937C50.4248 33.2023 49.1186 31.4113 49.1397 28.2301ZM42.5654 25.2171C41.1749 25.2171 40.2901 26.123 40.0161 27.324H44.9674C44.7988 25.9967 43.8718 25.2171 42.5654 25.2171Z" fill="#D52B1E"/>
</svg>
