<svg width="78" height="26" viewBox="0 0 78 26" fill="none" xmlns="http://www.w3.org/2000/svg">
<path d="M34.0737 25.4074H27.8138L31.7292 1.20679H37.9886L34.0737 25.4074Z" fill="#1633CA"/>
<path d="M56.7641 1.79858C55.5294 1.30896 53.5711 0.768311 51.1497 0.768311C44.9679 0.768311 40.6149 4.06358 40.5882 8.77474C40.5368 12.2506 43.7048 14.1812 46.0743 15.3402C48.4961 16.5246 49.3193 17.2976 49.3193 18.3532C49.2947 19.9744 47.3623 20.7217 45.5601 20.7217C43.061 20.7217 41.7218 20.3364 39.6869 19.4344L38.8626 19.0477L37.9867 24.4802C39.4548 25.1489 42.1596 25.7422 44.9679 25.7682C51.536 25.7682 55.8121 22.5241 55.8629 17.5036C55.8877 14.7486 54.215 12.6376 50.6084 10.9127C48.4191 9.80541 47.0783 9.05874 47.0783 7.92574C47.104 6.89574 48.2124 5.84091 50.6837 5.84091C52.7188 5.78924 54.2139 6.27824 55.3467 6.76741L55.9128 7.02441L56.7641 1.79858Z" fill="#1633CA"/>
<path d="M65.0855 16.8341C65.601 15.4438 67.5847 10.0629 67.5847 10.0629C67.5587 10.1146 68.0991 8.64692 68.4082 7.74592L68.8457 9.83125C68.8457 9.83125 70.0312 15.6241 70.2885 16.8341C69.3103 16.8341 66.3219 16.8341 65.0855 16.8341ZM72.8123 1.20679H67.9704C66.4773 1.20679 65.3429 1.6441 64.6988 3.21475L55.4008 25.4071H61.9689C61.9689 25.4071 63.0501 22.4203 63.2826 21.7769C64.0031 21.7769 70.3926 21.7769 71.3195 21.7769C71.4992 22.6266 72.0665 25.4071 72.0665 25.4071H77.8624L72.8123 1.20679Z" fill="#1633CA"/>
<path d="M22.5848 1.20679L16.4546 17.7093L15.7847 14.3624C14.6512 10.5006 11.0969 6.30459 7.13025 4.21842L12.7454 25.3818H19.3648L29.2041 1.20679H22.5848Z" fill="#1633CA"/>
<path d="M10.762 1.21021H0.690799L0.587769 1.69925C8.4439 3.70742 13.6469 8.54842 15.7846 14.3669L13.5954 3.24442C13.2349 1.69892 12.1271 1.26121 10.762 1.21021Z" fill="#1633CA"/>
</svg>
