<svg width="68" height="35" viewBox="0 0 68 35" fill="none" xmlns="http://www.w3.org/2000/svg">
<path d="M30.19 25.1745H26.373L28.7605 10.418H32.5772L30.19 25.1745Z" fill="#1633CA"/>
<path d="M44.0258 10.7766C43.2729 10.4781 42.0789 10.1484 40.6024 10.1484C36.833 10.1484 34.1787 12.1577 34.1625 15.0304C34.1311 17.1498 36.0628 18.3271 37.5077 19.0338C38.9843 19.7559 39.4863 20.2273 39.4863 20.871C39.4713 21.8595 38.293 22.3152 37.1941 22.3152C35.6703 22.3152 34.8537 22.0802 33.6129 21.5302L33.1103 21.2944L32.5762 24.6069C33.4713 25.0147 35.1206 25.3764 36.833 25.3923C40.838 25.3923 43.4453 23.4141 43.4763 20.3529C43.4914 18.673 42.4715 17.3858 40.2723 16.3341C38.9374 15.6589 38.1198 15.2036 38.1198 14.5127C38.1355 13.8847 38.8113 13.2415 40.3183 13.2415C41.5592 13.21 42.4708 13.5082 43.1615 13.8064L43.5067 13.9631L44.0258 10.7766Z" fill="#1633CA"/>
<path d="M49.0987 19.9468C49.413 19.099 50.6226 15.8181 50.6226 15.8181C50.6067 15.8496 50.9362 14.9546 51.1247 14.4052L51.3915 15.6768C51.3915 15.6768 52.1143 19.209 52.2713 19.9468C51.6748 19.9468 49.8526 19.9468 49.0987 19.9468ZM53.8101 10.418H50.8578C49.9473 10.418 49.2556 10.6846 48.8629 11.6423L43.1934 25.1743H47.1983C47.1983 25.1743 47.8576 23.353 47.9994 22.9607C48.4387 22.9607 52.3348 22.9607 52.8999 22.9607C53.0095 23.4788 53.3554 25.1743 53.3554 25.1743H56.8895L53.8101 10.418Z" fill="#1633CA"/>
<path d="M23.1852 10.418L19.4473 20.4804L19.0388 18.4397C18.3477 16.0849 16.1804 13.5264 13.7617 12.2543L17.1856 25.1588H21.2218L27.2214 10.418H23.1852Z" fill="#1633CA"/>
<path d="M15.9753 10.418H9.83431L9.77148 10.7162C14.5618 11.9407 17.7344 14.8925 19.0379 18.4404L17.703 11.6583C17.4831 10.716 16.8077 10.4491 15.9753 10.418Z" fill="#1633CA"/>
</svg>
