<svg width="46" height="56" viewBox="0 0 46 56" fill="none" xmlns="http://www.w3.org/2000/svg">
<path fill-rule="evenodd" clip-rule="evenodd" d="M0 49.6235C0 52.9372 2.68629 55.6235 6 55.6235H40C43.3137 55.6235 46 52.9372 46 49.6235V44.9399H0V49.6235Z" fill="#DB9600"/>
<path d="M46 45.1373H0V5.99999C0 2.68628 2.68629 0 6 0H40C43.3137 0 46 2.68629 46 6V45.1373Z" fill="#54923C"/>
<path d="M40.8204 40.9427H30.5662L27.0202 27.6209H29.5577C30.0633 27.6687 32.0091 26.9017 32.0052 24.986C31.9985 23.2483 30.4082 23.285 29.8481 23.2617H26.6842L19.832 40.9427H9.67403L2.82178 22.2532H11.207L14.5138 32.1725L18.4431 16.6953H33.4642C37.5247 16.6953 40.8204 20.1601 40.8204 24.4336C40.8204 27.335 39.3018 29.8642 37.0569 31.188L40.8204 40.9416V40.9427ZM8.86971 52.7276V47.3099C9.34267 47.2246 9.82256 47.1837 10.3031 47.1875C11.0314 47.1875 11.561 47.3234 11.8917 47.5952C12.2225 47.867 12.3883 48.2336 12.389 48.6949C12.395 49.0035 12.297 49.3052 12.1109 49.5515C11.9142 49.805 11.6446 49.9922 11.3383 50.0877C11.7347 50.2427 12.0035 50.6148 12.1448 51.2041C12.3673 52.103 12.514 52.6108 12.5848 52.7276H11.8022C11.728 52.5997 11.6058 52.1651 11.4356 51.4238C11.3488 51.0385 11.2191 50.7656 11.0463 50.605C10.8735 50.4444 10.6304 50.3645 10.317 50.3653H9.6273V52.7276H8.86971ZM9.6273 47.8327V49.7957H10.3849C10.765 49.7957 11.0678 49.703 11.2932 49.5176C11.4033 49.4287 11.4911 49.3155 11.5497 49.1868C11.6083 49.0581 11.6361 48.9174 11.6309 48.7761C11.6309 48.4479 11.5224 48.1965 11.3038 48.0241C11.0852 47.8517 10.7704 47.766 10.3582 47.766C10.1121 47.7588 9.866 47.7809 9.62508 47.8316L9.6273 47.8327ZM16.682 50.9121H13.8224C13.8335 51.3381 13.9652 51.6645 14.2173 51.891C14.4695 52.1176 14.7968 52.2307 15.1991 52.2303C15.5916 52.2385 15.9819 52.1693 16.3477 52.0267L16.4784 52.5563C16.0894 52.7306 15.6306 52.8175 15.1018 52.8172C14.4877 52.8172 13.9987 52.6353 13.635 52.2715C13.2712 51.9077 13.0893 51.4243 13.0893 50.8214C13.0893 50.2184 13.264 49.7132 13.6133 49.3056C13.9626 48.8981 14.4315 48.6942 15.02 48.6938C15.5636 48.6938 15.9804 48.8748 16.2704 49.2367C16.5604 49.5986 16.7058 50.0423 16.7065 50.5677C16.7091 50.6823 16.7009 50.7968 16.682 50.9098V50.9121ZM13.8308 50.3664H15.9734C15.9734 50.0267 15.8859 49.7529 15.7108 49.5448C15.5362 49.3368 15.2859 49.2333 14.9633 49.2333C14.8215 49.2291 14.6805 49.2547 14.5492 49.3083C14.418 49.362 14.2994 49.4425 14.2012 49.5448C14.0002 49.7521 13.8767 50.026 13.8308 50.3664ZM18.4419 52.7287H17.6838V49.3629H17.132V48.7845H17.6882V48.6054C17.6882 48.0428 17.8169 47.6073 18.0743 47.2988C18.3316 46.9902 18.6891 46.8363 19.1467 46.8371C19.3613 46.8342 19.5744 46.8731 19.7741 46.9517L19.6846 47.5379C19.5349 47.4757 19.3739 47.4452 19.2118 47.4484C18.6956 47.4484 18.4377 47.8259 18.438 48.5809V48.7845H19.4076V49.3629H18.4419V52.7276V52.7287ZM23.2723 50.9121H20.4138C20.4249 51.3381 20.5567 51.6645 20.8093 51.891C21.0618 52.1176 21.3887 52.2307 21.7899 52.2303C22.1824 52.2385 22.5727 52.1693 22.9385 52.0267L23.0687 52.5563C22.6804 52.7306 22.2216 52.8175 21.692 52.8172C21.0779 52.8172 20.5892 52.6353 20.2258 52.2715C19.8624 51.9077 19.6803 51.4243 19.6796 50.8214C19.6796 50.2184 19.8544 49.7132 20.2041 49.3056C20.5538 48.8981 21.0225 48.6942 21.6103 48.6938C22.1535 48.6938 22.5705 48.8748 22.8612 49.2367C23.1519 49.5986 23.2971 50.0423 23.2968 50.5677C23.2997 50.6823 23.2915 50.7969 23.2723 50.9098V50.9121ZM20.421 50.3664H22.5636C22.5636 50.0267 22.4763 49.7529 22.3017 49.5448C22.127 49.3368 21.8776 49.233 21.5535 49.2333C21.4119 49.2291 21.2709 49.2546 21.1397 49.3083C21.0086 49.3619 20.8901 49.4425 20.792 49.5448C20.5907 49.7521 20.467 50.026 20.421 50.3664ZM24.9666 52.7287H24.2095V48.7845H24.9666V52.7276V52.7287ZM25.0728 47.588C25.0747 47.6523 25.0633 47.7164 25.0393 47.7761C25.0153 47.8358 24.9792 47.89 24.9333 47.9351C24.8874 47.9802 24.8327 48.0153 24.7725 48.0383C24.7124 48.0613 24.6482 48.0716 24.5839 48.0686C24.5197 48.0708 24.4557 48.0597 24.396 48.0358C24.3364 48.012 24.2823 47.976 24.2373 47.9301C24.1933 47.8849 24.1587 47.8314 24.1357 47.7726C24.1127 47.7139 24.1016 47.6511 24.1033 47.588C24.1024 47.526 24.114 47.4645 24.1375 47.4071C24.1611 47.3498 24.196 47.2978 24.2401 47.2543C24.2864 47.2088 24.3416 47.1733 24.4021 47.1499C24.4627 47.1266 24.5274 47.1159 24.5922 47.1185C24.6559 47.1164 24.7194 47.1274 24.7787 47.1507C24.838 47.1741 24.8919 47.2093 24.9371 47.2543C24.9812 47.2978 25.016 47.3498 25.0393 47.4072C25.0626 47.4645 25.074 47.5261 25.0728 47.588ZM28.9748 52.0117L29.1133 52.5819C28.7639 52.7337 28.3868 52.8113 28.0058 52.8099L27.8117 53.127C27.9674 53.1433 28.1132 53.211 28.2261 53.3194C28.276 53.3671 28.3156 53.4244 28.3424 53.4879C28.3693 53.5515 28.3829 53.6198 28.3824 53.6888C28.3873 53.7839 28.3686 53.8787 28.3281 53.9649C28.2875 54.0511 28.2263 54.1259 28.1499 54.1827C27.9953 54.2984 27.782 54.3564 27.5102 54.3568C27.3128 54.362 27.118 54.3111 26.9484 54.21L27.0702 53.8517C27.2026 53.9329 27.355 53.9753 27.5102 53.9741C27.7494 53.9741 27.869 53.8898 27.869 53.721C27.869 53.5356 27.6545 53.4244 27.2254 53.3873L27.5658 52.7866C27.0385 52.7161 26.6256 52.4988 26.3271 52.1347C26.0286 51.7705 25.8793 51.3255 25.8793 50.7997C25.8793 50.183 26.0816 49.6783 26.4862 49.2856C26.8908 48.8929 27.4216 48.6969 28.0787 48.6977C28.4359 48.6904 28.7899 48.7656 29.1133 48.9174L28.9509 49.4959C28.6803 49.361 28.381 49.294 28.0787 49.3006C27.6471 49.3006 27.3018 49.4367 27.043 49.7089C26.7842 49.9811 26.6544 50.331 26.6536 50.7585C26.6536 51.1928 26.7855 51.5432 27.0491 51.8098C27.3128 52.0764 27.6508 52.2096 28.0631 52.2092C28.3777 52.2097 28.6887 52.143 28.9753 52.0134L28.9748 52.0117ZM32.8529 50.343V51.7853C32.8473 52.1018 32.8691 52.4182 32.9179 52.7309H32.2254L32.1359 52.2253C31.8392 52.6221 31.4237 52.8205 30.8893 52.8205C30.5148 52.8205 30.2148 52.7092 29.9894 52.4867C29.8806 52.3841 29.7944 52.2601 29.7362 52.1224C29.678 51.9847 29.649 51.8364 29.6512 51.6869C29.6512 51.2093 29.8588 50.844 30.2742 50.5911C30.6895 50.3382 31.2963 50.2112 32.0947 50.2101V50.1367C32.0947 49.8585 32.0185 49.636 31.865 49.4825C31.7115 49.329 31.4834 49.2489 31.1819 49.2489C30.8018 49.2427 30.4282 49.3475 30.1067 49.5504L29.936 49.0531C30.3157 48.8147 30.769 48.6953 31.296 48.6949C31.8095 48.6949 32.1976 48.836 32.4602 49.1182C32.7227 49.4004 32.8525 49.8083 32.8495 50.3419L32.8529 50.343ZM32.1114 51.3832V50.7313C31.4762 50.7313 31.0349 50.8073 30.7876 50.9593C30.5402 51.1114 30.4167 51.3205 30.4171 51.5868C30.4171 51.7959 30.4794 51.9589 30.6029 52.0774C30.6689 52.1377 30.7461 52.1845 30.8302 52.2149C30.9143 52.2454 31.0036 52.2589 31.0929 52.2548C31.3594 52.2618 31.6183 52.166 31.816 51.9873C32.0111 51.81 32.1088 51.6086 32.1092 51.3832H32.1114ZM30.7264 48.1492H30.3437C30.3437 47.8897 30.3908 47.6857 30.485 47.5374C30.525 47.4681 30.5829 47.4108 30.6527 47.3716C30.7225 47.3325 30.8016 47.3129 30.8816 47.3149C31.0032 47.3149 31.1797 47.3774 31.4111 47.5023C31.5741 47.5947 31.6987 47.6403 31.7854 47.6403C31.9134 47.6403 31.984 47.524 31.9974 47.2904H32.3728C32.3728 47.8281 32.1874 48.097 31.8166 48.097C31.6835 48.097 31.5123 48.0372 31.3032 47.9178C31.1402 47.8255 31.0184 47.7793 30.9366 47.7793C30.8143 47.7793 30.7442 47.9012 30.7247 48.1459L30.7264 48.1492ZM37.7572 50.7151C37.766 51.1026 37.6749 51.4857 37.4924 51.8276C37.3224 52.1393 37.0645 52.3942 36.7509 52.5607C36.4347 52.7318 36.0803 52.8201 35.7208 52.8177C35.1449 52.8177 34.6695 52.6293 34.2946 52.2526C33.9197 51.8758 33.7324 51.388 33.7328 50.7891C33.7328 50.1506 33.9266 49.6418 34.3141 49.2628C34.7016 48.8838 35.1894 48.6947 35.7775 48.6955C36.3638 48.6955 36.8403 48.8833 37.2071 49.2589C37.5738 49.6346 37.7572 50.1202 37.7572 50.7157V50.7151ZM34.5071 50.7641C34.5071 51.1957 34.6224 51.5519 34.8531 51.8326C34.955 51.9655 35.0865 52.0728 35.2371 52.1461C35.3877 52.2194 35.5533 52.2566 35.7208 52.2548C35.8916 52.2569 36.0606 52.2198 36.2149 52.1465C36.3692 52.0731 36.5046 51.9653 36.6108 51.8315C36.8481 51.5489 36.9666 51.185 36.9662 50.7396C36.9662 50.3295 36.8572 49.9796 36.6391 49.69C36.4211 49.4004 36.123 49.256 35.7447 49.2567C35.3617 49.2567 35.0596 49.3998 34.8386 49.6861C34.6176 49.9724 34.5064 50.3317 34.5049 50.7641H34.5071Z" fill="white"/>
</svg>
