<svg width="82" height="144" viewBox="0 0 82 144" fill="none" xmlns="http://www.w3.org/2000/svg">
<path d="M5.86566 3.61751C5.86566 4.97478 4.76538 6.07568 3.40811 6.07568V6.07568C2.05084 6.07568 0.950562 4.97478 0.950562 3.61751V3.61751C0.950562 2.26025 2.05084 1.15935 3.40811 1.15935V1.15935C4.76538 1.15935 5.86566 2.26025 5.86566 3.61751V3.61751Z" stroke="#45484D" stroke-opacity="0.3" stroke-miterlimit="10"/>
<path d="M43.4333 3.61751C43.4333 4.97478 42.333 6.07568 40.9757 6.07568C39.6185 6.07568 38.5182 4.97478 38.5182 3.61751C38.5182 2.26025 39.6185 1.15935 40.9757 1.15935C42.333 1.15935 43.4333 2.26025 43.4333 3.61751Z" fill="#FFBB00"/>
<path d="M81 3.61751C81 4.97512 79.8995 6.07568 78.5418 6.07568V6.07568C77.1842 6.07568 76.0837 4.97512 76.0837 3.61751V3.61751C76.0837 2.25991 77.1842 1.15935 78.5418 1.15935V1.15935C79.8995 1.15935 81 2.25991 81 3.61751V3.61751Z" stroke="#45484D" stroke-opacity="0.3" stroke-miterlimit="10"/>
<path d="M5.86566 31.0022C5.86566 32.3594 4.76538 33.4597 3.40811 33.4597V33.4597C2.05084 33.4597 0.950562 32.3594 0.950562 31.0022V31.0022C0.950562 29.6449 2.05084 28.5446 3.40811 28.5446V28.5446C4.76538 28.5446 5.86566 29.6449 5.86566 31.0022V31.0022Z" stroke="#45484D" stroke-opacity="0.3" stroke-miterlimit="10"/>
<path d="M43.4333 31.0022C43.4333 32.3594 42.333 33.4597 40.9757 33.4597V33.4597C39.6185 33.4597 38.5182 32.3594 38.5182 31.0022V31.0022C38.5182 29.6449 39.6185 28.5446 40.9757 28.5446V28.5446C42.333 28.5446 43.4333 29.6449 43.4333 31.0022V31.0022Z" stroke="#45484D" stroke-opacity="0.3" stroke-miterlimit="10"/>
<path d="M81 31.0022C81 32.3594 79.8991 33.4597 78.5418 33.4597V33.4597C77.1846 33.4597 76.0837 32.3594 76.0837 31.0022V31.0022C76.0837 29.6449 77.1846 28.5446 78.5418 28.5446V28.5446C79.8991 28.5446 81 29.6449 81 31.0022V31.0022Z" stroke="#45484D" stroke-opacity="0.3" stroke-miterlimit="10"/>
<path d="M5.86566 58.3877C5.86566 59.7449 4.76538 60.8452 3.40811 60.8452V60.8452C2.05084 60.8452 0.950562 59.7449 0.950562 58.3877V58.3877C0.950562 57.0304 2.05084 55.9301 3.40811 55.9301V55.9301C4.76538 55.9301 5.86566 57.0304 5.86566 58.3877V58.3877Z" stroke="#45484D" stroke-opacity="0.3" stroke-miterlimit="10"/>
<path d="M43.4333 58.3877C43.4333 59.7449 42.333 60.8452 40.9757 60.8452V60.8452C39.6185 60.8452 38.5182 59.7449 38.5182 58.3877V58.3877C38.5182 57.0304 39.6185 55.9301 40.9757 55.9301V55.9301C42.333 55.9301 43.4333 57.0304 43.4333 58.3877V58.3877Z" stroke="#45484D" stroke-opacity="0.3" stroke-miterlimit="10"/>
<path d="M81 58.3877C81 59.7449 79.8991 60.8452 78.5418 60.8452C77.1846 60.8452 76.0837 59.7449 76.0837 58.3877C76.0837 57.0304 77.1846 55.9301 78.5418 55.9301C79.8991 55.9301 81 57.0304 81 58.3877Z" fill="#FFBB00"/>
<path d="M5.86566 85.7732C5.86566 87.1304 4.76538 88.2307 3.40811 88.2307V88.2307C2.05084 88.2307 0.950562 87.1304 0.950562 85.7732V85.7732C0.950562 84.4159 2.05084 83.3156 3.40811 83.3156V83.3156C4.76538 83.3156 5.86566 84.4159 5.86566 85.7732V85.7732Z" stroke="#45484D" stroke-opacity="0.3" stroke-miterlimit="10"/>
<path d="M43.4333 85.7732C43.4333 87.1304 42.333 88.2307 40.9757 88.2307V88.2307C39.6185 88.2307 38.5182 87.1304 38.5182 85.7732V85.7732C38.5182 84.4159 39.6185 83.3156 40.9757 83.3156V83.3156C42.333 83.3156 43.4333 84.4159 43.4333 85.7732V85.7732Z" stroke="#45484D" stroke-opacity="0.3" stroke-miterlimit="10"/>
<path d="M81 85.7732C81 87.1304 79.8991 88.2307 78.5418 88.2307V88.2307C77.1846 88.2307 76.0837 87.1304 76.0837 85.7732V85.7732C76.0837 84.4159 77.1846 83.3156 78.5418 83.3156V83.3156C79.8991 83.3156 81 84.4159 81 85.7732V85.7732Z" stroke="#45484D" stroke-opacity="0.3" stroke-miterlimit="10"/>
<path d="M5.86566 113.158C5.86566 114.515 4.76538 115.616 3.40811 115.616C2.05084 115.616 0.950562 114.515 0.950562 113.158C0.950562 111.801 2.05084 110.7 3.40811 110.7C4.76538 110.7 5.86566 111.801 5.86566 113.158Z" fill="#FFBB00"/>
<path d="M43.4333 113.158C43.4333 114.515 42.333 115.616 40.9757 115.616V115.616C39.6185 115.616 38.5182 114.515 38.5182 113.158V113.158C38.5182 111.801 39.6185 110.7 40.9757 110.7V110.7C42.333 110.7 43.4333 111.801 43.4333 113.158V113.158Z" stroke="#45484D" stroke-opacity="0.3" stroke-miterlimit="10"/>
<path d="M81 113.158C81 114.515 79.8994 115.616 78.5418 115.616V115.616C77.1843 115.616 76.0837 114.515 76.0837 113.158V113.158C76.0837 111.8 77.1843 110.7 78.5418 110.7V110.7C79.8994 110.7 81 111.8 81 113.158V113.158Z" stroke="#45484D" stroke-opacity="0.3" stroke-miterlimit="10"/>
<path d="M5.86566 140.542C5.86566 141.9 4.76538 143 3.40811 143V143C2.05084 143 0.950562 141.9 0.950562 140.542V140.542C0.950562 139.185 2.05084 138.085 3.40811 138.085V138.085C4.76538 138.085 5.86566 139.185 5.86566 140.542V140.542Z" stroke="#45484D" stroke-opacity="0.3" stroke-miterlimit="10"/>
<path d="M43.4333 140.542C43.4333 141.9 42.333 143 40.9757 143C39.6185 143 38.5182 141.9 38.5182 140.542C38.5182 139.185 39.6185 138.085 40.9757 138.085C42.333 138.085 43.4333 139.185 43.4333 140.542Z" fill="#FFBB00"/>
<path d="M81 140.542C81 141.9 79.8992 143 78.5418 143V143C77.1845 143 76.0837 141.9 76.0837 140.542V140.542C76.0837 139.185 77.1845 138.085 78.5418 138.085V138.085C79.8992 138.085 81 139.185 81 140.542V140.542Z" stroke="#45484D" stroke-opacity="0.3" stroke-miterlimit="10"/>
</svg>
