<svg width="324" height="205" viewBox="0 0 324 205" fill="none" xmlns="http://www.w3.org/2000/svg">
<path d="M211.301 1L82.107 195.334C79.761 198.089 72.5552 203.598 62.5006 203.598C52.446 203.598 17.3108 203.598 1 203.598" stroke="#FFBB00"/>
<path d="M0.999344 203.598L130.194 9.26346C132.54 6.50884 139.746 0.999573 149.8 0.999573C159.855 0.999573 194.99 0.999573 211.301 0.999573" stroke="#FFBB00"/>
<path d="M323 1L221.727 153.216C219.888 155.374 214.239 159.689 206.358 159.689C198.476 159.689 170.934 159.689 158.148 159.689" stroke="#FFBB00"/>
<path d="M158.148 159.688L259.422 7.47135C261.261 5.31374 266.909 0.9985 274.791 0.9985C282.672 0.9985 310.214 0.9985 323 0.9985" stroke="#FFBB00"/>
</svg>
