<svg width="257" height="175" viewBox="0 0 257 175" fill="none" xmlns="http://www.w3.org/2000/svg">
<g opacity="0.4">
<path d="M7.39315 1.00028C4.02826 1.00028 1.33897 5.35733 1.31924 10.7692L1.00023 98.2284C0.971227 103.64 3.70954 108.035 7.07399 107.997L64.5995 107.342C69.6188 111.26 62.6013 136.608 44.2414 146.374C28.6513 154.666 43.5295 171.197 42.7715 174C68.3868 167.55 77.9483 157.367 84.5683 152.463C95.0867 143.642 111.477 120.602 115.567 103.456C116.169 101.94 116.007 100.168 116.014 98.2281L116.333 10.7689C116.362 5.35704 113.624 0.999995 110.259 0.999995L7.39315 1.00028Z" stroke="#6C6F74" stroke-linecap="round" stroke-linejoin="round"/>
<path d="M155.222 1.00028C152.098 1.00028 149.601 5.35733 149.582 10.7692L149.286 98.2284C149.259 103.64 151.802 108.035 154.926 107.997L208.343 107.342C213.003 111.26 206.487 136.608 189.439 146.374C174.962 154.666 188.778 171.197 188.074 174C211.859 167.55 220.738 157.367 226.885 152.463C236.652 143.642 251.872 120.602 255.67 103.456C256.229 101.94 256.078 100.168 256.085 98.2281L256.381 10.7689C256.408 5.35704 253.865 0.999995 250.74 0.999995L155.222 1.00028Z" stroke="#6C6F74" stroke-linecap="round" stroke-linejoin="round"/>
</g>
</svg>
