<svg width="420" height="265" viewBox="0 0 420 265" fill="none" xmlns="http://www.w3.org/2000/svg">
<path d="M274 1L106.288 253.272C103.242 256.848 93.8884 264 80.8361 264C67.7839 264 22.1736 264 1 264" stroke="black" stroke-opacity="0.2"/>
<path d="M1 264L168.712 11.7276C171.758 8.15176 181.112 0.999986 194.164 0.999986C207.216 0.999986 252.826 0.999986 274 0.999986" stroke="black" stroke-opacity="0.2"/>
<path d="M419 1L287.533 198.597C285.146 201.398 277.814 207 267.582 207C257.351 207 221.598 207 205 207" stroke="black" stroke-opacity="0.2"/>
<path d="M205 207L336.467 9.40265C338.854 6.60178 346.186 1 356.418 1C366.649 1 402.402 1 419 1" stroke="black" stroke-opacity="0.2"/>
</svg>
