<svg width="78" height="129" viewBox="0 0 78 129" fill="none" xmlns="http://www.w3.org/2000/svg">
<path d="M42.8931 123.611C45.4205 120.835 47.8791 118.028 50.5307 115.366C50.957 114.937 56.2703 109.848 55.6955 109.677C48.2195 107.456 42.0689 106.13 35.4598 101.505C29.0829 97.0416 23.4986 91.242 18.8823 84.9924C10.365 73.461 4.67007 60.235 1.82442 46.1904C-0.612757 34.165 -1.1451 19.5305 4.97535 8.42558C6.12206 6.34537 13.3512 -2.69172 16.3235 1.37585C17.7124 3.27751 15.1416 4.56576 14.0119 5.93873C11.7061 8.7421 10.4866 11.9482 9.5214 15.4611C2.40328 41.3433 20.0317 73.7725 39.7636 89.3569C45.0427 93.5263 50.9789 96.8468 57.7064 97.9851C59.1847 98.2347 64.5582 99.38 65.3146 98.1173C66.0468 96.8944 60.4991 90.4981 59.6628 89.1544C56.6722 84.3473 52.2065 78.4153 50.8586 72.8475C50.2518 70.3397 50.4476 67.8849 53.2078 66.9717C56.514 65.8782 58.3357 69.0123 59.9937 71.2041C64.676 77.393 68.2794 84.4284 72.2122 91.1119C75.795 97.2002 80.5319 102.47 74.21 108.072C67.8881 113.674 60.5773 118.485 53.7209 123.402C51.8069 124.775 47.0642 129.052 44.1713 128.443C39.9137 127.546 44.1987 124.785 42.8931 123.611C42.9676 123.678 45.1513 121.13 42.8931 123.611Z" fill="#FFBB00"/>
</svg>
