<svg width="78" height="129" viewBox="0 0 78 129" fill="none" xmlns="http://www.w3.org/2000/svg">
<path d="M34.6767 123.545C32.1493 120.768 29.6907 117.962 27.0391 115.3C26.6128 114.871 21.2995 109.781 21.8744 109.611C29.3503 107.39 35.5009 106.064 42.1101 101.438C48.4869 96.9752 54.0713 91.1756 58.6875 84.926C67.2049 73.3946 72.8998 60.1686 75.7454 46.124C78.1826 34.0986 78.7149 19.4641 72.5945 8.35917C71.4478 6.27896 64.2187 -2.75812 61.2463 1.30944C59.8574 3.2111 62.4283 4.49935 63.5579 5.87232C65.8637 8.67569 67.0833 11.8818 68.0484 15.3946C75.1665 41.2769 57.5381 73.7061 37.8062 89.2905C32.5271 93.4599 26.591 96.7804 19.8634 97.9187C18.3851 98.1683 13.0116 99.3136 12.2552 98.0509C11.523 96.8279 17.0707 90.4317 17.907 89.088C20.8976 84.2809 25.3634 78.3489 26.7112 72.7811C27.318 70.2733 27.1222 67.8185 24.3621 66.9053C21.0558 65.8118 19.2341 68.9459 17.5762 71.1377C12.8938 77.3266 9.29045 84.362 5.35759 91.0455C1.77479 97.1338 -2.96204 102.403 3.35983 108.005C9.68171 113.607 16.9925 118.418 23.8489 123.336C25.763 124.708 30.5056 128.986 33.3985 128.376C37.6561 127.48 33.3711 124.719 34.6767 123.545C34.6022 123.612 32.4185 121.064 34.6767 123.545Z" fill="#FFBB00"/>
</svg>
