<svg width="122" height="83" viewBox="0 0 122 83" fill="none" xmlns="http://www.w3.org/2000/svg">
<g opacity="0.2">
<path d="M117.996 82.2901C119.577 82.2901 120.841 80.2428 120.85 77.6999L121 36.604C121.014 34.061 119.727 31.996 118.146 32.014L91.1155 32.3217C88.757 30.4808 92.0544 18.5698 100.681 13.9812C108.007 10.0848 101.016 2.31723 101.372 1C89.3359 4.03077 84.8431 8.81554 81.7324 11.1199C76.79 15.265 69.0884 26.0909 67.1664 34.1474C66.8836 34.8602 66.9599 35.6925 66.9565 36.6041L66.8066 77.7C66.793 80.243 68.0795 82.2903 69.6609 82.2903L117.996 82.2901Z" stroke="#6C6F74" stroke-linecap="round" stroke-linejoin="round"/>
<path d="M48.5328 82.2901C50.001 82.2901 51.1744 80.2428 51.183 77.6999L51.3222 36.604C51.3348 34.061 50.14 31.996 48.672 32.014L23.5723 32.3217C21.3823 30.4808 24.4442 18.5698 32.455 13.9812C39.2574 10.0848 32.7657 2.31723 33.0964 1C21.9199 4.03077 17.748 8.81554 14.8595 11.1199C10.2701 15.265 3.11866 26.0909 1.33388 34.1474C1.07131 34.8602 1.14217 35.6925 1.13901 36.6041L0.999818 77.7C0.987164 80.243 2.18182 82.2903 3.65025 82.2903L48.5328 82.2901Z" stroke="#6C6F74" stroke-linecap="round" stroke-linejoin="round"/>
</g>
</svg>
