<svg width="257" height="175" viewBox="0 0 257 175" fill="none" xmlns="http://www.w3.org/2000/svg">
<g opacity="0.4">
<path d="M249.988 174C253.353 174 256.042 169.643 256.062 164.231L256.381 76.7716C256.41 71.3597 253.672 66.965 250.307 67.0033L192.782 67.6582C187.762 63.7404 194.78 38.3916 213.14 28.6262C228.73 20.334 213.852 3.8033 214.61 1C188.994 7.45002 179.433 17.6328 172.813 22.537C162.294 31.3585 145.904 54.3979 141.814 71.5435C141.212 73.0604 141.374 74.8316 141.367 76.7719L141.048 164.231C141.019 169.643 143.757 174 147.122 174L249.988 174Z" stroke="#6C6F74" stroke-linecap="round" stroke-linejoin="round"/>
<path d="M102.159 174C105.283 174 107.78 169.643 107.799 164.231L108.095 76.7716C108.122 71.3597 105.579 66.965 102.455 67.0033L49.0385 67.6582C44.3777 63.7404 50.894 38.3916 67.9424 28.6262C82.419 20.334 68.6036 3.8033 69.3074 1C45.5217 7.45002 36.6432 17.6328 30.4961 22.537C20.729 31.3585 5.50946 54.3979 1.71114 71.5435C1.15235 73.0604 1.30316 74.8316 1.29642 76.7719L1.0002 164.231C0.973274 169.643 3.51571 174 6.64079 174L102.159 174Z" stroke="#6C6F74" stroke-linecap="round" stroke-linejoin="round"/>
</g>
</svg>
