<svg width="82" height="144" viewBox="0 0 82 144" fill="none" xmlns="http://www.w3.org/2000/svg">
<path d="M5.9151 3.4598C5.9151 4.81707 4.81482 5.91797 3.45755 5.91797V5.91797C2.10028 5.91797 1 4.81707 1 3.4598V3.4598C1 2.10253 2.10028 1.00163 3.45755 1.00163V1.00163C4.81482 1.00163 5.9151 2.10253 5.9151 3.4598V3.4598Z" stroke="white" stroke-opacity="0.3" stroke-miterlimit="10"/>
<path d="M43.4815 3.4598C43.4815 4.81707 42.3812 5.91797 41.024 5.91797C39.6667 5.91797 38.5664 4.81707 38.5664 3.4598C38.5664 2.10253 39.6667 1.00163 41.024 1.00163C42.3812 1.00163 43.4815 2.10253 43.4815 3.4598Z" fill="#F7B334"/>
<path d="M81.0492 3.4598C81.0492 4.81741 79.9486 5.91797 78.591 5.91797V5.91797C77.2334 5.91797 76.1328 4.81741 76.1328 3.4598V3.4598C76.1328 2.10219 77.2334 1.00163 78.591 1.00163V1.00163C79.9486 1.00163 81.0492 2.10219 81.0492 3.4598V3.4598Z" stroke="white" stroke-opacity="0.3" stroke-miterlimit="10"/>
<path d="M5.9151 30.8432C5.9151 32.2005 4.81482 33.3008 3.45755 33.3008V33.3008C2.10028 33.3008 1 32.2005 1 30.8432V30.8432C1 29.486 2.10028 28.3857 3.45755 28.3857V28.3857C4.81482 28.3857 5.9151 29.486 5.9151 30.8432V30.8432Z" stroke="white" stroke-opacity="0.3" stroke-miterlimit="10"/>
<path d="M43.4815 30.8432C43.4815 32.2005 42.3812 33.3008 41.024 33.3008V33.3008C39.6667 33.3008 38.5664 32.2005 38.5664 30.8432V30.8432C38.5664 29.486 39.6667 28.3857 41.024 28.3857V28.3857C42.3812 28.3857 43.4815 29.486 43.4815 30.8432V30.8432Z" stroke="white" stroke-opacity="0.3" stroke-miterlimit="10"/>
<path d="M81.0492 30.8432C81.0492 32.2005 79.9482 33.3008 78.591 33.3008V33.3008C77.2337 33.3008 76.1328 32.2005 76.1328 30.8432V30.8432C76.1328 29.486 77.2337 28.3857 78.591 28.3857V28.3857C79.9482 28.3857 81.0492 29.486 81.0492 30.8432V30.8432Z" stroke="white" stroke-opacity="0.3" stroke-miterlimit="10"/>
<path d="M5.9151 58.2299C5.9151 59.5872 4.81482 60.6875 3.45755 60.6875V60.6875C2.10028 60.6875 1 59.5872 1 58.2299V58.2299C1 56.8727 2.10028 55.7724 3.45755 55.7724V55.7724C4.81482 55.7724 5.9151 56.8727 5.9151 58.2299V58.2299Z" stroke="white" stroke-opacity="0.3" stroke-miterlimit="10"/>
<path d="M43.4815 58.2299C43.4815 59.5872 42.3812 60.6875 41.024 60.6875V60.6875C39.6667 60.6875 38.5664 59.5872 38.5664 58.2299V58.2299C38.5664 56.8727 39.6667 55.7724 41.024 55.7724V55.7724C42.3812 55.7724 43.4815 56.8727 43.4815 58.2299V58.2299Z" stroke="white" stroke-opacity="0.3" stroke-miterlimit="10"/>
<path d="M81.0492 58.2299C81.0492 59.5872 79.9483 60.6875 78.591 60.6875C77.2337 60.6875 76.1328 59.5872 76.1328 58.2299C76.1328 56.8727 77.2337 55.7724 78.591 55.7724C79.9483 55.7724 81.0492 56.8727 81.0492 58.2299Z" fill="#F7B334"/>
<path d="M5.9151 85.6128C5.9151 86.97 4.81482 88.0703 3.45755 88.0703V88.0703C2.10028 88.0703 1 86.97 1 85.6128V85.6128C1 84.2555 2.10028 83.1552 3.45755 83.1552V83.1552C4.81482 83.1552 5.9151 84.2555 5.9151 85.6128V85.6128Z" stroke="white" stroke-opacity="0.3" stroke-miterlimit="10"/>
<path d="M43.4815 85.6128C43.4815 86.97 42.3812 88.0703 41.024 88.0703V88.0703C39.6667 88.0703 38.5664 86.97 38.5664 85.6128V85.6128C38.5664 84.2555 39.6667 83.1552 41.024 83.1552V83.1552C42.3812 83.1552 43.4815 84.2555 43.4815 85.6128V85.6128Z" stroke="white" stroke-opacity="0.3" stroke-miterlimit="10"/>
<path d="M81.0492 85.6128C81.0492 86.97 79.9483 88.0703 78.591 88.0703V88.0703C77.2337 88.0703 76.1328 86.97 76.1328 85.6128V85.6128C76.1328 84.2555 77.2337 83.1552 78.591 83.1552V83.1552C79.9483 83.1552 81.0492 84.2555 81.0492 85.6128V85.6128Z" stroke="white" stroke-opacity="0.3" stroke-miterlimit="10"/>
<path d="M5.9151 112.999C5.9151 114.356 4.81482 115.457 3.45755 115.457C2.10028 115.457 1 114.356 1 112.999C1 111.642 2.10028 110.541 3.45755 110.541C4.81482 110.541 5.9151 111.642 5.9151 112.999Z" fill="#F7B334"/>
<path d="M43.4815 112.999C43.4815 114.356 42.3812 115.457 41.024 115.457V115.457C39.6667 115.457 38.5664 114.356 38.5664 112.999V112.999C38.5664 111.642 39.6667 110.541 41.024 110.541V110.541C42.3812 110.541 43.4815 111.642 43.4815 112.999V112.999Z" stroke="white" stroke-opacity="0.3" stroke-miterlimit="10"/>
<path d="M81.0492 112.999C81.0492 114.356 79.9486 115.457 78.591 115.457V115.457C77.2334 115.457 76.1328 114.356 76.1328 112.999V112.999C76.1328 111.641 77.2334 110.541 78.591 110.541V110.541C79.9486 110.541 81.0492 111.641 81.0492 112.999V112.999Z" stroke="white" stroke-opacity="0.3" stroke-miterlimit="10"/>
<path d="M5.9151 140.382C5.9151 141.739 4.81482 142.84 3.45755 142.84V142.84C2.10028 142.84 1 141.739 1 140.382V140.382C1 139.025 2.10028 137.925 3.45755 137.925V137.925C4.81482 137.925 5.9151 139.025 5.9151 140.382V140.382Z" stroke="white" stroke-opacity="0.3" stroke-miterlimit="10"/>
<path d="M43.4815 140.382C43.4815 141.739 42.3812 142.84 41.024 142.84C39.6667 142.84 38.5664 141.739 38.5664 140.382C38.5664 139.025 39.6667 137.925 41.024 137.925C42.3812 137.925 43.4815 139.025 43.4815 140.382Z" fill="#F7B334"/>
<path d="M81.0492 140.382C81.0492 141.74 79.9483 142.84 78.591 142.84V142.84C77.2337 142.84 76.1328 141.74 76.1328 140.382V140.382C76.1328 139.025 77.2337 137.925 78.591 137.925V137.925C79.9483 137.925 81.0492 139.025 81.0492 140.382V140.382Z" stroke="white" stroke-opacity="0.3" stroke-miterlimit="10"/>
</svg>
