<svg width="387" height="244" viewBox="0 0 387 244" fill="none" xmlns="http://www.w3.org/2000/svg">
<path d="M252.447 0.761719L97.9758 233.118C95.1707 236.411 86.5551 242.999 74.5333 242.999C62.5115 242.999 20.502 242.999 1 242.999" stroke="white" stroke-opacity="0.25"/>
<path d="M0.999895 243L155.471 10.6439C158.277 7.35032 166.892 0.763152 178.914 0.763152C190.936 0.763152 232.945 0.763152 252.447 0.763152" stroke="white" stroke-opacity="0.25"/>
<path d="M386 0.761719L264.912 182.759C262.713 185.339 255.96 190.499 246.536 190.499C237.112 190.499 204.182 190.499 188.895 190.499" stroke="white" stroke-opacity="0.25"/>
<path d="M188.895 190.5L309.982 8.50243C312.181 5.92268 318.935 0.76315 328.359 0.76315C337.782 0.76315 370.713 0.76315 386 0.76315" stroke="white" stroke-opacity="0.25"/>
</svg>
