<svg width="307" height="194" viewBox="0 0 307 194" fill="none" xmlns="http://www.w3.org/2000/svg">
<path d="M200.299 1L77.8638 185.167C75.6405 187.778 68.8116 192.999 59.2831 192.999C49.7545 192.999 16.4575 192.999 1 192.999" stroke="white" stroke-opacity="0.25"/>
<path d="M1.00159 193L123.437 8.83268C125.66 6.22217 132.489 1.00113 142.018 1.00113C151.546 1.00113 184.843 1.00113 200.301 1.00113" stroke="white" stroke-opacity="0.25"/>
<path d="M306.155 1L210.18 145.253C208.437 147.297 203.084 151.387 195.615 151.387C188.146 151.387 162.045 151.387 149.928 151.387" stroke="white" stroke-opacity="0.25"/>
<path d="M149.925 151.387L245.9 7.13398C247.643 5.08925 252.996 0.999765 260.465 0.999765C267.935 0.999765 294.036 0.999765 306.152 0.999765" stroke="white" stroke-opacity="0.25"/>
</svg>
