<svg width="502" height="422" viewBox="0 0 502 422" fill="none" xmlns="http://www.w3.org/2000/svg">
<path d="M60.9356 395.651C43.8531 420.564 19.274 422 7.33826 422C3.83774 422 1 419.162 1 415.662V21C1 9.95428 9.95432 1 21 1H490.357C496.787 1 502 6.21274 502 12.6429C502 14.8171 501.425 16.8895 500.285 18.741C475.591 58.8576 390.023 205.295 375.204 231.344C360.02 258.036 318.2 272.337 306.337 271.595H174.204C145.734 271.595 125.962 293.839 119.635 304.961C65.8572 393.193 78.0181 370.739 60.9356 395.651Z" fill="url(#paint0_linear_2560_1680)"/>
<path d="M42.0338 230.666C30.3386 245.164 13.511 246 5.33936 246C2.94281 246 1 244.057 1 241.661V21C1 9.9543 9.95428 1 21 1H337.435C341.061 1 344 3.93939 344 7.56531C344 8.95975 343.576 10.2886 342.758 11.4182C325.763 34.8976 267.323 119.909 257.192 135.048C246.796 150.582 218.165 158.904 210.043 158.472H119.581C100.089 158.472 86.553 171.417 82.2214 177.889C45.4032 229.236 53.7289 216.169 42.0338 230.666Z" fill="url(#paint1_linear_2560_1680)" stroke="white" stroke-opacity="0.55"/>
<defs>
<linearGradient id="paint0_linear_2560_1680" x1="546.156" y1="-71.6374" x2="498.032" y2="589.107" gradientUnits="userSpaceOnUse">
<stop stop-color="white"/>
<stop offset="1" stop-color="#E7EBF0"/>
</linearGradient>
<linearGradient id="paint1_linear_2560_1680" x1="374.23" y1="-41.2711" x2="350.39" y2="343.811" gradientUnits="userSpaceOnUse">
<stop stop-color="white"/>
<stop offset="1" stop-color="#E7EBF0"/>
</linearGradient>
</defs>
</svg>
