<svg width="502" height="422" viewBox="0 0 502 422" fill="none" xmlns="http://www.w3.org/2000/svg">
<path d="M441.064 395.651C458.147 420.564 482.726 422 494.662 422C498.162 422 501 419.162 501 415.662V21C501 9.95428 492.046 1 481 1H11.643C5.21274 1 0 6.21274 0 12.6429C0 14.8171 0.574848 16.8895 1.71456 18.741C26.4091 58.8576 111.977 205.295 126.796 231.344C141.98 258.036 183.8 272.337 195.663 271.595H327.796C356.266 271.595 376.038 293.839 382.365 304.961C436.143 393.193 423.982 370.739 441.064 395.651Z" fill="url(#paint0_linear_2560_1737)"/>
<path d="M459.966 230.666C471.661 245.164 488.489 246 496.661 246C499.057 246 501 244.057 501 241.661V21C501 9.9543 492.046 1 481 1H164.565C160.939 1 158 3.93939 158 7.56531C158 8.95975 158.424 10.2886 159.242 11.4182C176.237 34.8976 234.677 119.909 244.808 135.048C255.204 150.582 283.835 158.904 291.957 158.472H382.419C401.911 158.472 415.447 171.417 419.779 177.889C456.597 229.236 448.271 216.169 459.966 230.666Z" fill="url(#paint1_linear_2560_1737)" stroke="white" stroke-opacity="0.55"/>
<defs>
<linearGradient id="paint0_linear_2560_1737" x1="-44.1559" y1="-71.6374" x2="3.96838" y2="589.107" gradientUnits="userSpaceOnUse">
<stop stop-color="white"/>
<stop offset="1" stop-color="#E7EBF0"/>
</linearGradient>
<linearGradient id="paint1_linear_2560_1737" x1="127.77" y1="-41.2711" x2="151.61" y2="343.811" gradientUnits="userSpaceOnUse">
<stop stop-color="white"/>
<stop offset="1" stop-color="#E7EBF0"/>
</linearGradient>
</defs>
</svg>
