<svg width="501" height="421" viewBox="0 0 501 421" fill="none" xmlns="http://www.w3.org/2000/svg">
<path d="M59.9356 394.651C42.8531 419.564 18.274 421 6.33826 421C2.83774 421 0 418.162 0 414.662V20C0 8.95428 8.95432 0 20 0H489.357C495.787 0 501 5.21274 501 11.6429C501 13.8171 500.425 15.8895 499.285 17.741C474.591 57.8576 389.023 204.295 374.204 230.344C359.02 257.036 317.2 271.337 305.337 270.595H173.204C144.734 270.595 124.962 292.839 118.635 303.961C64.8572 392.193 77.0181 369.739 59.9356 394.651Z" fill="url(#paint0_linear_2560_1704)"/>
<path d="M43.0338 229.666C31.3386 244.164 14.511 245 6.33936 245C3.94281 245 2 243.057 2 240.661V20C2 8.9543 10.9543 0 22 0H338.435C342.061 0 345 2.93939 345 6.56531C345 7.95975 344.576 9.28864 343.758 10.4182C326.763 33.8976 268.323 118.909 258.192 134.048C247.796 149.582 219.165 157.904 211.043 157.472H120.581C101.089 157.472 87.553 170.417 83.2214 176.889C46.4032 228.236 54.7289 215.169 43.0338 229.666Z" fill="url(#paint1_linear_2560_1704)"/>
<defs>
<linearGradient id="paint0_linear_2560_1704" x1="545.156" y1="-72.6374" x2="497.032" y2="588.107" gradientUnits="userSpaceOnUse">
<stop stop-color="#F2BF27"/>
<stop offset="1" stop-color="#FF9D00"/>
</linearGradient>
<linearGradient id="paint1_linear_2560_1704" x1="375.23" y1="-42.2711" x2="213.885" y2="242.997" gradientUnits="userSpaceOnUse">
<stop offset="0.271218" stop-color="#F2BF27"/>
<stop offset="1" stop-color="#FF9D00"/>
</linearGradient>
</defs>
</svg>
