<svg width="501" height="421" viewBox="0 0 501 421" fill="none" xmlns="http://www.w3.org/2000/svg">
<path d="M441.064 394.651C458.147 419.564 482.726 421 494.662 421C498.162 421 501 418.162 501 414.662V20C501 8.95428 492.046 0 481 0H11.643C5.21274 0 0 5.21274 0 11.6429C0 13.8171 0.574848 15.8895 1.71456 17.741C26.4091 57.8576 111.977 204.295 126.796 230.344C141.98 257.036 183.8 271.337 195.663 270.595H327.796C356.266 270.595 376.038 292.839 382.365 303.961C436.143 392.193 423.982 369.739 441.064 394.651Z" fill="url(#paint0_linear_2707_1074)"/>
<path d="M457.966 229.666C469.661 244.164 486.489 245 494.661 245C497.057 245 499 243.057 499 240.661V20C499 8.9543 490.046 0 479 0H162.565C158.939 0 156 2.93939 156 6.56531C156 7.95975 156.424 9.28864 157.242 10.4182C174.237 33.8976 232.677 118.909 242.808 134.048C253.204 149.582 281.835 157.904 289.957 157.472H380.419C399.911 157.472 413.447 170.417 417.779 176.889C454.597 228.236 446.271 215.169 457.966 229.666Z" fill="url(#paint1_linear_2707_1074)"/>
<defs>
<linearGradient id="paint0_linear_2707_1074" x1="-44.1559" y1="-72.6374" x2="3.96838" y2="588.107" gradientUnits="userSpaceOnUse">
<stop stop-color="#F2BF27"/>
<stop offset="1" stop-color="#FF9D00"/>
</linearGradient>
<linearGradient id="paint1_linear_2707_1074" x1="125.77" y1="-42.2711" x2="287.115" y2="242.997" gradientUnits="userSpaceOnUse">
<stop offset="0.271218" stop-color="#F2BF27"/>
<stop offset="1" stop-color="#FF9D00"/>
</linearGradient>
</defs>
</svg>
