<svg width="470" height="422" viewBox="0 0 470 422" fill="none" xmlns="http://www.w3.org/2000/svg">
<path d="M441.064 395.651C458.147 420.564 482.726 422 494.662 422C498.162 422 501 419.162 501 415.662V21C501 9.95428 492.046 1 481 1H11.643C5.21274 1 0 6.21274 0 12.6429C0 14.8171 0.574848 16.8895 1.71456 18.741C26.4091 58.8576 111.977 205.295 126.796 231.344C141.98 258.036 183.8 272.337 195.663 271.595H327.796C356.266 271.595 376.038 293.839 382.365 304.961C436.143 393.193 423.982 370.739 441.064 395.651Z" fill="url(#paint0_linear_2615_1077)"/>
<path d="M471.966 230.666C483.661 245.164 500.489 246 508.661 246C511.057 246 513 244.057 513 241.661V21C513 9.9543 504.046 1 493 1H176.565C172.939 1 170 3.93939 170 7.56531C170 8.95975 170.424 10.2886 171.242 11.4182C188.237 34.8976 246.677 119.909 256.808 135.048C267.204 150.582 295.835 158.904 303.957 158.472H394.419C413.911 158.472 427.447 171.417 431.779 177.889C468.597 229.236 460.271 216.169 471.966 230.666Z" fill="url(#paint1_linear_2615_1077)" stroke="white" stroke-opacity="0.55"/>
<defs>
<linearGradient id="paint0_linear_2615_1077" x1="-44.1559" y1="-71.6374" x2="3.96838" y2="589.107" gradientUnits="userSpaceOnUse">
<stop stop-color="white"/>
<stop offset="1" stop-color="#E7EBF0"/>
</linearGradient>
<linearGradient id="paint1_linear_2615_1077" x1="139.77" y1="-41.2711" x2="163.61" y2="343.811" gradientUnits="userSpaceOnUse">
<stop stop-color="white"/>
<stop offset="1" stop-color="#E7EBF0"/>
</linearGradient>
</defs>
</svg>
