<svg width="467" height="422" viewBox="0 0 467 422" fill="none" xmlns="http://www.w3.org/2000/svg">
<path d="M25.9356 395.651C8.85309 420.564 -15.726 422 -27.6617 422C-31.1623 422 -34 419.162 -34 415.662V21C-34 9.95428 -25.0457 1 -14 1H455.357C461.787 1 467 6.21274 467 12.6429C467 14.8171 466.425 16.8895 465.285 18.741C440.591 58.8576 355.023 205.295 340.204 231.344C325.02 258.036 283.2 272.337 271.337 271.595H139.204C110.734 271.595 90.9622 293.839 84.6354 304.961C30.8572 393.193 43.0181 370.739 25.9356 395.651Z" fill="url(#paint0_linear_2615_1076)"/>
<path d="M-4.96625 230.666C-16.6614 245.164 -33.489 246 -41.6606 246C-44.0572 246 -46 244.057 -46 241.661V21C-46 9.9543 -37.0457 1 -26 1H290.435C294.061 1 297 3.93939 297 7.56531C297 8.95975 296.576 10.2886 295.758 11.4182C278.763 34.8976 220.323 119.909 210.192 135.048C199.796 150.582 171.165 158.904 163.043 158.472H72.581C53.0891 158.472 39.553 171.417 35.2214 177.889C-1.59677 229.236 6.72894 216.169 -4.96625 230.666Z" stroke="white" stroke-opacity="0.55"/>
<defs>
<linearGradient id="paint0_linear_2615_1076" x1="511.156" y1="-71.6374" x2="463.032" y2="589.107" gradientUnits="userSpaceOnUse">
<stop stop-color="#F2BF27"/>
<stop offset="1" stop-color="#FF9D00"/>
</linearGradient>
</defs>
</svg>
