<svg width="199" height="179" viewBox="0 0 199 179" fill="none" xmlns="http://www.w3.org/2000/svg">
<path d="M12.63 167.62C5.4119 178.138 -4.97389 178.744 -10.0173 178.744C-11.4964 178.744 -12.6955 177.545 -12.6955 176.066V21C-12.6955 9.95435 -3.74118 1.00005 7.30452 1.00005H194.085C196.8 1.00005 199 3.2005 199 5.91489C199 6.83328 198.757 7.70871 198.275 8.49063C187.84 25.4283 151.684 87.2525 145.423 98.2504C139.007 109.52 121.336 115.557 116.324 115.244H60.4913C48.4611 115.244 40.1068 124.635 37.4334 129.331C14.7096 166.582 19.8482 157.102 12.63 167.62Z" fill="url(#paint0_linear_2184_3610)"/>
<path d="M-0.0754242 97.7276C-5.00101 103.834 -12.0882 104.186 -15.5297 104.186C-16.5391 104.186 -17.3573 103.367 -17.3573 102.358V21.0006C-17.3573 9.95494 -8.40302 1.00063 2.64267 1.00063H124.336C125.864 1.00063 127.102 2.23859 127.102 3.7657C127.102 4.35299 126.923 4.91267 126.579 5.3884C119.421 15.2771 94.8082 51.0808 90.5411 57.4568C86.1628 63.9989 74.1046 67.5039 70.684 67.3222H32.5846C24.3753 67.3222 18.6744 72.7739 16.8501 75.4998C1.34367 97.1251 4.85016 91.6217 -0.0754242 97.7276Z" stroke="white" stroke-opacity="0.55"/>
<defs>
<linearGradient id="paint0_linear_2184_3610" x1="217.658" y1="-29.6671" x2="197.357" y2="249.298" gradientUnits="userSpaceOnUse">
<stop stop-color="#F2BF27"/>
<stop offset="1" stop-color="#FF9D00"/>
</linearGradient>
</defs>
</svg>
