<svg width="202" height="179" viewBox="0 0 202 179" fill="none" xmlns="http://www.w3.org/2000/svg">
<path d="M187.014 167.622C194.233 178.14 204.618 178.746 209.662 178.746C211.141 178.746 212.34 177.547 212.34 176.068V21.0018C212.34 9.95605 203.386 1.00175 192.34 1.00175H5.55937C2.84498 1.00175 0.644531 3.20221 0.644531 5.9166C0.644531 6.83499 0.887538 7.71042 1.36926 8.49234C11.8041 25.43 47.9601 87.2542 54.2217 98.2521C60.6378 109.521 78.3083 115.559 83.3209 115.246H139.153C151.183 115.246 159.538 124.637 162.211 129.333C184.935 166.584 179.796 157.104 187.014 167.622Z" fill="url(#paint0_linear_2553_8502)"/>
<path d="M199.718 97.7296C204.644 103.836 211.731 104.187 215.172 104.188C216.182 104.188 217 103.369 217 102.36V21.0026C217 9.95689 208.046 1.00259 197 1.00259H75.3061C73.779 1.00259 72.541 2.24055 72.541 3.76765C72.541 4.35494 72.7197 4.91462 73.064 5.39036C80.2217 15.279 104.834 51.0827 109.102 57.4588C113.48 64.0009 125.538 67.5058 128.959 67.3241H167.058C175.267 67.3241 180.968 72.7759 182.792 75.5017C198.299 97.127 194.792 91.6236 199.718 97.7296Z" stroke="white" stroke-opacity="0.55"/>
<defs>
<linearGradient id="paint0_linear_2553_8502" x1="-18.0134" y1="-29.6654" x2="2.28783" y2="249.3" gradientUnits="userSpaceOnUse">
<stop stop-color="#F2BF27"/>
<stop offset="1" stop-color="#FF9D00"/>
</linearGradient>
</defs>
</svg>
