<svg width="558" height="470" viewBox="0 0 558 470" fill="none" xmlns="http://www.w3.org/2000/svg">
<path d="M491.245 440.647C510.271 468.4 537.647 470 550.941 470C554.839 470 558 466.839 558 462.941V21C558 9.95432 549.046 1 538 1H12.971C5.8073 1 0 6.80731 0 13.971C0 16.3927 0.64018 18.7011 1.90947 20.7635C29.4133 65.4536 124.717 228.587 141.222 257.607C158.134 287.342 204.711 303.273 217.924 302.447H365.09C396.8 302.447 418.821 327.227 425.867 339.616C485.764 437.908 472.219 412.894 491.245 440.647Z" fill="url(#paint0_linear_2690_1086)"/>
<path d="M525.301 256.914C538.326 273.069 557.067 274 566.167 274C568.836 274 571 271.836 571 269.167V21C571 9.95428 562.046 1 551 1H196.316C192.276 1 189 4.27567 189 8.31641C189 9.86975 189.472 11.3501 190.383 12.6086C209.31 38.771 274.395 133.499 285.679 150.368C297.257 167.677 329.143 176.95 338.188 176.469H438.936C460.644 176.469 475.719 190.893 480.543 198.105C521.548 255.32 512.276 240.759 525.301 256.914Z" stroke="white" stroke-opacity="0.55"/>
<defs>
<linearGradient id="paint0_linear_2690_1086" x1="-49.1796" y1="-79.919" x2="4.44302" y2="656.157" gradientUnits="userSpaceOnUse">
<stop stop-color="#F2BF27"/>
<stop offset="1" stop-color="#FF9D00"/>
</linearGradient>
</defs>
</svg>
