<svg width="420" height="265" viewBox="0 0 420 265" fill="none" xmlns="http://www.w3.org/2000/svg">
<path d="M146 264L313.712 11.7276C316.758 8.15176 326.112 0.999986 339.164 0.999986C352.216 0.999986 397.826 0.999986 419 0.999986" stroke="black" stroke-opacity="0.2"/>
<path d="M419 1L251.288 253.272C248.242 256.848 238.888 264 225.836 264C212.784 264 167.174 264 146 264" stroke="black" stroke-opacity="0.2"/>
<path d="M0.999992 264L132.467 66.4027C134.854 63.6018 142.186 58 152.418 58C162.649 58 198.402 58 215 58" stroke="black" stroke-opacity="0.2"/>
<path d="M215 58L83.5335 255.597C81.1461 258.398 73.8136 264 63.5822 264C53.3508 264 17.5976 264 1 264" stroke="black" stroke-opacity="0.2"/>
</svg>
