<svg width="210" height="133" viewBox="0 0 210 133" fill="none" xmlns="http://www.w3.org/2000/svg">
<path d="M136.868 0.75L53.1724 126.645C51.6526 128.43 46.9845 131.999 40.4708 131.999C33.9571 131.999 11.1955 131.999 0.628906 131.999" stroke="black" stroke-opacity="0.1"/>
<path d="M0.62868 132L84.3246 6.10457C85.8445 4.32004 90.5126 0.75098 97.0263 0.75098C103.54 0.75098 126.302 0.75098 136.868 0.75098" stroke="black" stroke-opacity="0.1"/>
<path d="M209.23 0.75L143.623 99.3601C142.431 100.758 138.772 103.553 133.666 103.553C128.56 103.553 110.718 103.553 102.435 103.553" stroke="black" stroke-opacity="0.1"/>
<path d="M102.435 103.555L168.043 4.94457C169.234 3.54681 172.893 0.751267 177.999 0.751267C183.105 0.751267 200.947 0.751267 209.23 0.751267" stroke="black" stroke-opacity="0.1"/>
</svg>
