<svg width="67" height="75" viewBox="0 0 67 75" fill="none" xmlns="http://www.w3.org/2000/svg">
<path d="M63.9938 60.3381C61.5309 60.9324 59.0727 61.4764 56.6371 62.1814C56.2449 62.2944 51.5096 63.7865 51.5953 63.3912C52.7072 58.2473 53.9185 54.178 53.3262 48.7666C52.7549 43.5454 51.1355 38.3595 48.9358 33.6003C44.877 24.8191 38.8997 17.1579 31.5135 10.9169C25.1894 5.5728 16.7035 0.509056 8.14718 0.526826C6.54431 0.530273 -1.14833 1.87496 0.293754 4.95349C0.968222 6.39229 2.56464 5.28926 3.74352 5.06642C6.15038 4.61184 8.44303 4.93064 10.8346 5.49949C28.4578 9.68656 41.9246 30.6396 44.7423 47.3711C45.4962 51.8475 45.5345 56.4371 44.025 60.7869C43.693 61.7426 42.6269 65.2935 41.6344 65.3312C40.6733 65.3676 38.689 60.0098 38.1654 59.0789C36.2917 55.7497 34.2311 51.1826 31.3742 48.5784C30.0874 47.4056 28.5714 46.7249 27.1354 48.0617C25.4156 49.663 26.6788 51.7578 27.4376 53.45C29.5799 58.2286 32.5732 62.6435 35.2514 67.1391C37.691 71.2345 39.2718 75.7471 44.6376 73.8244C50.0034 71.9019 55.2222 69.1375 60.3563 66.6764C61.7897 65.9895 65.8594 64.5714 66.4375 62.662C67.2886 59.8521 64.2645 61.4913 63.9938 60.3381C61.7928 60.8689 64.0091 60.4038 63.9938 60.3381Z" fill="#FFBB00"/>
</svg>
