<svg width="71" height="73" viewBox="0 0 71 73" fill="none" xmlns="http://www.w3.org/2000/svg">
<path d="M54.3305 3.09133C55.1599 5.48533 55.9388 7.87951 56.8756 10.2356C57.026 10.6151 58.9685 15.1842 58.5667 15.137C53.3395 14.527 49.1722 13.7145 43.8433 14.8265C38.7017 15.8994 33.6964 18.012 29.1719 20.661C20.8237 25.5489 13.7756 32.2382 8.27706 40.1926C3.56865 47.0032 -0.651922 55.9384 0.192076 64.4531C0.350302 66.0481 2.43161 73.5749 5.35648 71.8423C6.72342 71.032 5.47137 69.5496 5.13572 68.3977C4.45083 66.046 4.54673 63.7333 4.88196 61.298C7.34754 43.3528 26.9021 27.9255 43.2833 23.5051C47.666 22.3224 52.2304 21.841 56.7057 22.9235C57.6889 23.1616 61.3262 23.8798 61.4596 24.864C61.5887 25.8171 56.4475 28.3095 55.5715 28.9206C52.4388 31.1071 48.0921 33.5991 45.776 36.6941C44.7329 38.0882 44.2018 39.6628 45.671 40.963C47.4309 42.5201 49.394 41.0605 51.0049 40.1419C55.5543 37.5481 59.6595 34.1424 63.8755 31.0426C67.7161 28.2189 72.0549 26.2097 69.6231 21.0546C67.1913 15.8995 63.9359 10.9721 60.9905 6.09969C60.1683 4.7393 58.3638 0.825652 56.4076 0.434579C53.5285 -0.141161 55.4522 2.71052 54.3305 3.09133C55.0714 5.23074 54.3944 3.0697 54.3305 3.09133Z" fill="#FFBB00"/>
</svg>
