<svg width="182" height="179" viewBox="0 0 182 179" fill="none" xmlns="http://www.w3.org/2000/svg">
<path d="M187.014 167.62C194.233 178.138 204.618 178.744 209.662 178.744C211.141 178.744 212.34 177.545 212.34 176.066V21C212.34 9.95435 203.386 1.00005 192.34 1.00005H5.55937C2.84498 1.00005 0.644531 3.2005 0.644531 5.91489C0.644531 6.83328 0.887538 7.70871 1.36926 8.49063C11.8041 25.4283 47.9601 87.2525 54.2217 98.2504C60.6378 109.52 78.3083 115.557 83.3209 115.244H139.153C151.183 115.244 159.538 124.635 162.211 129.331C184.935 166.582 179.796 157.102 187.014 167.62Z" fill="url(#paint0_linear_2186_24)"/>
<path d="M199.716 97.7276C204.642 103.834 211.729 104.186 215.17 104.186C216.18 104.186 216.998 103.367 216.998 102.358V21.0006C216.998 9.95494 208.044 1.00063 196.998 1.00063H75.3041C73.777 1.00063 72.5391 2.23859 72.5391 3.7657C72.5391 4.35299 72.7177 4.91267 73.0621 5.3884C80.2197 15.2771 104.832 51.0808 109.1 57.4568C113.478 63.9989 125.536 67.5039 128.957 67.3222H167.056C175.265 67.3222 180.966 72.7739 182.79 75.4998C198.297 97.1251 194.79 91.6217 199.716 97.7276Z" stroke="white" stroke-opacity="0.55"/>
<defs>
<linearGradient id="paint0_linear_2186_24" x1="-18.0134" y1="-29.6671" x2="2.28783" y2="249.298" gradientUnits="userSpaceOnUse">
<stop stop-color="#F2BF27"/>
<stop offset="1" stop-color="#FF9D00"/>
</linearGradient>
</defs>
</svg>
