<svg width="185" height="182" viewBox="0 0 185 182" fill="none" xmlns="http://www.w3.org/2000/svg">
<path d="M-5.07159 170.672C-12.4158 181.383 -22.9831 182 -28.1146 182C-29.6196 182 -30.8396 180.78 -30.8396 179.275V21C-30.8396 9.9543 -21.8853 1 -10.8396 1H179.549C182.314 1 184.555 3.2411 184.555 6.00565C184.555 6.94037 184.308 7.83136 183.818 8.62738C173.201 25.8747 136.412 88.8322 130.041 100.032C123.513 111.507 105.534 117.656 100.434 117.337H43.6259C31.3855 117.337 22.8852 126.9 20.1651 131.681C-2.95564 169.615 2.27266 159.961 -5.07159 170.672Z" fill="url(#paint0_linear_2186_21)"/>
<path d="M-18.3591 99.7397C-23.3872 105.973 -30.6219 106.332 -34.1351 106.332C-35.1655 106.332 -36.0007 105.497 -36.0007 104.466V20.9995C-36.0007 9.9538 -27.0464 0.999496 -16.0007 0.999496H108.642C110.201 0.999496 111.465 2.26322 111.465 3.82211C111.465 4.42162 111.282 4.99294 110.931 5.47858C103.624 15.5731 78.4994 52.1219 74.1434 58.6307C69.674 65.309 57.3648 68.8869 53.8731 68.7014H14.9807C6.60052 68.7014 0.780968 74.2666 -1.08129 77.0492C-16.9105 99.1246 -13.331 93.5066 -18.3591 99.7397Z" fill="url(#paint1_linear_2186_21)" stroke="white" stroke-opacity="0.55"/>
<defs>
<linearGradient id="paint0_linear_2186_21" x1="203.539" y1="-30.2289" x2="182.849" y2="253.844" gradientUnits="userSpaceOnUse">
<stop stop-color="white"/>
<stop offset="1" stop-color="#E7EBF0"/>
</linearGradient>
<linearGradient id="paint1_linear_2186_21" x1="124.462" y1="-17.1741" x2="114.212" y2="148.384" gradientUnits="userSpaceOnUse">
<stop stop-color="white"/>
<stop offset="1" stop-color="#E7EBF0"/>
</linearGradient>
</defs>
</svg>
