<svg width="471" height="421" viewBox="0 0 471 421" fill="none" xmlns="http://www.w3.org/2000/svg">
<path d="M29.9356 394.651C12.8531 419.564 -11.726 421 -23.6617 421C-27.1623 421 -30 418.162 -30 414.662V20C-30 8.95428 -21.0457 0 -10 0H459.357C465.787 0 471 5.21274 471 11.6429C471 13.8171 470.425 15.8895 469.285 17.741C444.591 57.8576 359.023 204.295 344.204 230.344C329.02 257.036 287.2 271.337 275.337 270.595H143.204C114.734 270.595 94.9622 292.839 88.6354 303.961C34.8572 392.193 47.0181 369.739 29.9356 394.651Z" fill="url(#paint0_linear_2132_5077)"/>
<defs>
<linearGradient id="paint0_linear_2132_5077" x1="515.156" y1="-72.6374" x2="467.032" y2="588.107" gradientUnits="userSpaceOnUse">
<stop stop-color="white"/>
<stop offset="1" stop-color="#E7EBF0"/>
</linearGradient>
</defs>
</svg>
