<svg width="471" height="421" viewBox="0 0 471 421" fill="none" xmlns="http://www.w3.org/2000/svg">
<path d="M441.064 394.651C458.147 419.564 482.726 421 494.662 421C498.162 421 501 418.162 501 414.662V20C501 8.95428 492.046 0 481 0H11.643C5.21274 0 0 5.21274 0 11.6429C0 13.8171 0.574848 15.8895 1.71456 17.741C26.4091 57.8576 111.977 204.295 126.796 230.344C141.98 257.036 183.8 271.337 195.663 270.595H327.796C356.266 270.595 376.038 292.839 382.365 303.961C436.143 392.193 423.982 369.739 441.064 394.651Z" fill="url(#paint0_linear_2132_5075)"/>
<defs>
<linearGradient id="paint0_linear_2132_5075" x1="-44.1559" y1="-72.6374" x2="3.96838" y2="588.107" gradientUnits="userSpaceOnUse">
<stop stop-color="#F2BF27"/>
<stop offset="1" stop-color="#FF9D00"/>
</linearGradient>
</defs>
</svg>
